<svg width="1096" height="410" viewBox="0 0 1096 410" fill="none" xmlns="http://www.w3.org/2000/svg">
<g opacity="0.5">
<mask id="path-1-outside-1_94_614" maskUnits="userSpaceOnUse" x="-0.669189" y="-0.716675" width="1096" height="411" fill="black">
<rect fill="white" x="-0.669189" y="-0.716675" width="1096" height="411"/>
<path d="M190.555 408.155C150.471 408.155 116.303 401.092 88.0536 386.968C60.1855 372.461 38.8073 350.128 23.9188 319.97C9.0304 289.811 1.58619 251.445 1.58619 204.871C1.58619 136.155 18.1925 85.1905 51.4052 51.9778C84.9996 18.3834 131.574 1.58621 191.127 1.58621C223.958 1.58621 253.353 7.12165 279.313 18.1925C305.654 29.2634 326.269 45.8697 341.157 68.0115C356.427 89.7715 364.062 117.64 364.062 151.616H298.782C298.782 130.619 294.392 113.059 285.612 98.9337C276.831 84.8087 264.233 74.1196 247.818 66.8662C231.784 59.6129 213.078 55.9862 191.7 55.9862C164.977 55.9862 142.263 61.3308 123.557 72.0199C105.233 82.3273 91.2985 97.9792 81.7547 118.976C72.5926 139.972 68.0115 166.695 68.0115 199.144V211.742C68.0115 244.191 72.5926 270.914 81.7547 291.911C91.2985 312.907 105.233 328.559 123.557 338.866C141.881 348.792 164.595 353.755 191.7 353.755C213.842 353.755 233.12 350.319 249.536 343.447C265.951 336.194 278.549 325.505 287.33 311.38C296.492 297.255 301.073 279.694 301.073 258.698H364.062C364.062 292.674 356.427 320.733 341.157 342.875C326.269 365.017 305.654 381.432 279.313 392.121C253.353 402.81 223.767 408.155 190.555 408.155ZM435.418 401.283V8.45777H643.856C665.616 8.45777 684.703 12.4662 701.119 20.4831C717.534 28.1181 730.323 39.189 739.485 53.6957C749.029 68.2024 753.801 85.1905 753.801 104.66C753.801 119.548 750.938 133.101 745.211 145.317C739.867 157.533 732.232 167.84 722.306 176.239C712.762 184.638 701.882 190.937 689.666 195.136V197.426C703.791 200.48 716.389 206.207 727.46 214.605C738.912 222.622 747.884 233.311 754.374 246.673C761.245 259.652 764.681 275.304 764.681 293.629C764.681 318.443 759.145 338.866 748.075 354.9C737.385 370.934 723.07 382.768 705.127 390.403C687.185 397.657 666.761 401.283 643.856 401.283H435.418ZM499.552 346.311H638.702C656.263 346.311 670.578 341.73 681.649 332.567C693.102 323.024 698.828 307.753 698.828 286.757C698.828 274.159 696.347 263.47 691.384 254.69C686.803 245.527 679.741 238.656 670.197 234.075C660.653 229.112 648.628 226.631 634.121 226.631H499.552V346.311ZM499.552 172.803H628.967C641.183 172.803 651.682 170.513 660.462 165.932C669.242 161.351 675.923 154.861 680.504 146.462C685.467 138.063 687.948 128.711 687.948 118.403C687.948 99.6971 682.795 85.954 672.487 77.1736C662.562 68.0115 649.391 63.4305 632.976 63.4305H499.552V172.803ZM874.711 401.283C874.711 367.307 878.911 334.476 887.309 302.791C895.708 270.723 906.969 240.374 921.094 211.742C935.601 182.729 951.253 155.815 968.05 131.001C985.229 105.805 1002.22 83.2817 1019.01 63.4305H815.157V8.45777H1093.46V46.8241C1080.1 62.8578 1066.16 80.6094 1051.65 100.079C1037.15 119.167 1023.21 139.591 1009.85 161.351C996.491 183.111 984.466 205.634 973.777 228.921C963.469 252.208 955.261 276.068 949.153 300.5C943.045 324.551 939.991 348.792 939.991 373.224V401.283H874.711Z"/>
</mask>
<path d="M88.0536 386.968L87.3212 388.375L87.3327 388.38L87.3443 388.386L88.0536 386.968ZM23.9188 319.97L25.3412 319.267V319.267L23.9188 319.97ZM51.4052 51.9778L50.2836 50.8562V50.8562L51.4052 51.9778ZM279.313 18.1925L278.69 19.6516L278.698 19.6548L279.313 18.1925ZM341.157 68.0115L339.841 68.8966L339.849 68.9097L339.859 68.9227L341.157 68.0115ZM364.062 151.616V153.202H365.648V151.616H364.062ZM298.782 151.616H297.196V153.202H298.782V151.616ZM285.612 98.9337L284.265 99.7711V99.7711L285.612 98.9337ZM247.818 66.8662L247.164 68.3115L247.177 68.3171L247.818 66.8662ZM123.557 72.0199L124.334 73.4025L124.344 73.3971L123.557 72.0199ZM81.7547 118.976L80.3106 118.319L80.3057 118.33L80.3008 118.341L81.7547 118.976ZM81.7547 291.911L80.3008 292.545L80.3057 292.556L80.3106 292.567L81.7547 291.911ZM123.557 338.866L122.779 340.249L122.79 340.255L122.801 340.261L123.557 338.866ZM249.536 343.448L250.148 344.911L250.163 344.905L250.177 344.898L249.536 343.448ZM287.33 311.38L285.999 310.517L285.99 310.53L285.982 310.543L287.33 311.38ZM301.073 258.698V257.112H299.487V258.698H301.073ZM364.062 258.698H365.648V257.112H364.062V258.698ZM341.157 342.875L339.851 341.974L339.846 341.982L339.841 341.99L341.157 342.875ZM279.313 392.121L278.716 390.651L278.709 390.654L279.313 392.121ZM190.555 406.569C150.652 406.569 116.741 399.538 88.763 385.549L87.3443 388.386C115.866 402.647 150.289 409.741 190.555 409.741V406.569ZM88.786 385.561C61.2386 371.221 40.0915 349.146 25.3412 319.267L22.4965 320.672C37.523 351.11 59.1325 373.701 87.3212 388.375L88.786 385.561ZM25.3412 319.267C10.5938 289.395 3.17239 251.289 3.17239 204.871H-1.33514e-05C-1.33514e-05 251.6 7.46702 290.227 22.4965 320.672L25.3412 319.267ZM3.17239 204.871C3.17239 136.381 19.7255 85.9008 52.5268 53.0994L50.2836 50.8562C16.6596 84.4802 -1.33514e-05 135.928 -1.33514e-05 204.871H3.17239ZM52.5268 53.0994C85.7526 19.8736 131.882 3.17241 191.127 3.17241V1.52588e-05C131.266 1.52588e-05 84.2465 16.8932 50.2836 50.8562L52.5268 53.0994ZM191.127 3.17241C223.779 3.17241 252.957 8.67717 278.69 19.6516L279.935 16.7335C253.749 5.56613 224.138 1.52588e-05 191.127 1.52588e-05V3.17241ZM278.698 19.6548C304.775 30.6147 325.137 47.03 339.841 68.8966L342.473 67.1264C327.4 44.7095 306.532 27.9121 279.927 16.7302L278.698 19.6548ZM339.859 68.9227C354.895 90.3501 362.476 117.875 362.476 151.616H365.648C365.648 117.404 357.959 89.193 342.455 67.1004L339.859 68.9227ZM364.062 150.03H298.782V153.202H364.062V150.03ZM300.368 151.616C300.368 130.4 295.932 112.531 286.959 98.0962L284.265 99.7711C292.852 113.586 297.196 130.838 297.196 151.616H300.368ZM286.959 98.0962C277.997 83.6789 265.142 72.7869 248.459 65.4154L247.177 68.3171C263.325 75.4523 275.666 85.9386 284.265 99.7711L286.959 98.0962ZM248.472 65.421C232.193 58.057 213.256 54.4 191.7 54.4V57.5724C212.9 57.5724 231.375 61.1688 247.164 68.3114L248.472 65.421ZM191.7 54.4C164.767 54.4 141.767 59.7874 122.77 70.6427L124.344 73.3971C142.759 62.8742 165.188 57.5724 191.7 57.5724V54.4ZM122.779 70.6374C104.133 81.1261 89.9797 97.0475 80.3106 118.319L83.1987 119.632C92.6174 98.9109 106.332 83.5285 124.334 73.4024L122.779 70.6374ZM80.3008 118.341C71.023 139.603 66.4253 166.561 66.4253 199.144H69.5977C69.5977 166.829 74.1621 140.342 83.2085 119.61L80.3008 118.341ZM66.4253 199.144V211.742H69.5977V199.144H66.4253ZM66.4253 211.742C66.4253 244.325 71.023 271.283 80.3008 292.545L83.2085 291.276C74.1621 270.545 69.5977 244.057 69.5977 211.742H66.4253ZM80.3106 292.567C89.9797 313.839 104.133 329.76 122.779 340.249L124.334 337.484C106.332 327.358 92.6174 311.975 83.1987 291.254L80.3106 292.567ZM122.801 340.261C141.417 350.345 164.409 355.341 191.7 355.341V352.169C164.782 352.169 142.345 347.24 124.312 337.472L122.801 340.261ZM191.7 355.341C214.002 355.341 233.498 351.881 250.148 344.911L248.923 341.984C232.743 348.757 213.681 352.169 191.7 352.169V355.341ZM250.177 344.898C266.86 337.527 279.715 326.635 288.677 312.218L285.982 310.543C277.384 324.375 265.043 334.861 248.895 341.997L250.177 344.898ZM288.66 312.243C298.026 297.804 302.659 279.925 302.659 258.698H299.487C299.487 279.464 294.957 296.706 285.999 310.517L288.66 312.243ZM301.073 260.284H364.062V257.112H301.073V260.284ZM362.476 258.698C362.476 292.437 354.896 320.16 339.851 341.974L342.463 343.775C357.958 321.307 365.648 292.911 365.648 258.698H362.476ZM339.841 341.99C325.14 363.852 304.785 380.073 278.716 390.651L279.909 393.591C306.523 382.791 327.397 366.181 342.473 343.76L339.841 341.99ZM278.709 390.654C252.973 401.252 223.597 406.569 190.555 406.569V409.741C223.937 409.741 253.734 404.369 279.917 393.588L278.709 390.654ZM435.418 401.283H433.831V402.87H435.418V401.283ZM435.418 8.45778V6.87157H433.831V8.45778H435.418ZM701.119 20.4831L700.423 21.9084L700.436 21.915L700.45 21.9213L701.119 20.4831ZM739.485 53.6957L738.144 54.5427L738.152 54.5552L738.16 54.5675L739.485 53.6957ZM745.211 145.317L743.775 144.644L743.766 144.662L743.758 144.681L745.211 145.317ZM722.306 176.239L721.282 175.028L721.27 175.038L721.258 175.048L722.306 176.239ZM689.666 195.136L689.151 193.636L688.08 194.004V195.136H689.666ZM689.666 197.426H688.08V198.706L689.331 198.977L689.666 197.426ZM727.46 214.605L726.501 215.869L726.525 215.887L726.55 215.905L727.46 214.605ZM754.374 246.673L752.947 247.366L752.959 247.391L752.972 247.415L754.374 246.673ZM748.075 354.9L746.769 353.999L746.762 354.01L746.755 354.02L748.075 354.9ZM705.127 390.403L705.722 391.874L705.735 391.869L705.748 391.863L705.127 390.403ZM499.552 346.311H497.966V347.897H499.552V346.311ZM681.649 332.567L682.661 333.789L682.665 333.786L681.649 332.567ZM691.384 254.69L689.965 255.399L689.983 255.435L690.003 255.47L691.384 254.69ZM670.197 234.075L669.465 235.482L669.487 235.494L669.51 235.505L670.197 234.075ZM499.552 226.631V225.044H497.966V226.631H499.552ZM499.552 172.803H497.966V174.389H499.552V172.803ZM660.462 165.932L661.196 167.338V167.338L660.462 165.932ZM680.504 146.462L679.138 145.655L679.125 145.679L679.112 145.703L680.504 146.462ZM672.487 77.1736L671.411 78.3392L671.435 78.3606L671.459 78.3811L672.487 77.1736ZM499.552 63.4305V61.8443H497.966V63.4305H499.552ZM437.004 401.283V8.45778H433.831V401.283H437.004ZM435.418 10.044H643.856V6.87157H435.418V10.044ZM643.856 10.044C665.42 10.044 684.262 14.0157 700.423 21.9084L701.815 19.0578C685.145 10.9167 665.811 6.87157 643.856 6.87157V10.044ZM700.45 21.9213C716.605 29.4354 729.154 40.3081 738.144 54.5427L740.826 52.8487C731.492 38.07 718.463 26.8009 701.788 19.0448L700.45 21.9213ZM738.16 54.5675C747.513 68.7847 752.215 85.4615 752.215 104.66H755.387C755.387 84.9195 750.545 67.6201 740.81 52.8239L738.16 54.5675ZM752.215 104.66C752.215 119.34 749.393 132.659 743.775 144.644L746.648 145.99C752.483 133.542 755.387 119.757 755.387 104.66H752.215ZM743.758 144.681C738.508 156.681 731.017 166.79 721.282 175.028L723.331 177.45C733.446 168.891 741.226 158.385 746.665 145.953L743.758 144.681ZM721.258 175.048C711.872 183.308 701.174 189.503 689.151 193.636L690.182 196.636C702.591 192.37 713.652 185.967 723.354 177.43L721.258 175.048ZM688.08 195.136V197.426H691.252V195.136H688.08ZM689.331 198.977C703.239 201.984 715.622 207.616 726.501 215.869L728.419 213.342C717.156 204.797 704.343 198.977 690.001 195.876L689.331 198.977ZM726.55 215.905C737.768 223.757 746.567 234.231 752.947 247.366L755.8 245.98C749.2 232.391 740.057 221.487 728.369 213.306L726.55 215.905ZM752.972 247.415C759.696 260.116 763.095 275.5 763.095 293.629H766.267C766.267 275.108 762.794 259.189 755.775 245.931L752.972 247.415ZM763.095 293.629C763.095 318.209 757.613 338.294 746.769 353.999L749.38 355.801C760.678 339.439 766.267 318.677 766.267 293.629H763.095ZM746.755 354.02C736.239 369.794 722.168 381.428 704.506 388.944L705.748 391.863C723.972 384.108 738.532 372.074 749.394 355.78L746.755 354.02ZM704.533 388.933C686.81 396.097 666.594 399.697 643.856 399.697V402.87C666.928 402.87 687.559 399.216 705.722 391.874L704.533 388.933ZM643.856 399.697H435.418V402.87H643.856V399.697ZM499.552 347.897H638.702V344.724H499.552V347.897ZM638.702 347.897C656.547 347.897 671.246 343.236 682.661 333.789L680.638 331.345C669.911 340.223 655.978 344.724 638.702 344.724V347.897ZM682.665 333.786C694.609 323.832 700.414 308.024 700.414 286.757H697.242C697.242 307.483 691.595 322.215 680.634 331.349L682.665 333.786ZM700.414 286.757C700.414 273.953 697.892 262.98 692.765 253.909L690.003 255.47C694.802 263.96 697.242 274.365 697.242 286.757H700.414ZM692.803 253.98C688.059 244.492 680.733 237.373 670.883 232.645L669.51 235.505C678.748 239.939 685.547 246.563 689.965 255.399L692.803 253.98ZM670.928 232.667C661.094 227.553 648.797 225.044 634.121 225.044V228.217C648.458 228.217 660.212 230.671 669.465 235.482L670.928 232.667ZM634.121 225.044H499.552V228.217H634.121V225.044ZM497.966 226.631V346.311H501.138V226.631H497.966ZM499.552 174.389H628.967V171.217H499.552V174.389ZM628.967 174.389C641.38 174.389 652.142 172.062 661.196 167.338L659.728 164.525C651.221 168.964 640.987 171.217 628.967 171.217V174.389ZM661.196 167.338C670.244 162.617 677.159 155.906 681.897 147.222L679.112 145.703C674.687 153.815 668.24 160.084 659.728 164.525L661.196 167.338ZM681.87 147.269C686.985 138.612 689.534 128.978 689.534 118.403H686.362C686.362 128.443 683.949 137.515 679.138 145.655L681.87 147.269ZM689.534 118.403C689.534 99.418 684.297 85.1504 673.516 75.9661L671.459 78.3811C681.292 86.7576 686.362 99.9763 686.362 118.403H689.534ZM673.563 76.0081C663.284 66.5199 649.699 61.8443 632.976 61.8443V65.0166C649.083 65.0166 661.839 69.5032 671.411 78.3392L673.563 76.0081ZM632.976 61.8443H499.552V65.0166H632.976V61.8443ZM497.966 63.4305V172.803H501.138V63.4305H497.966ZM874.711 401.283H873.125V402.87H874.711V401.283ZM887.309 302.791L888.842 303.197L888.844 303.193L887.309 302.791ZM921.094 211.742L919.676 211.033L919.672 211.04L921.094 211.742ZM968.05 131.001L966.74 130.107L966.737 130.112L968.05 131.001ZM1019.01 63.4305L1020.23 64.455L1022.43 61.8443H1019.01V63.4305ZM815.157 63.4305H813.571V65.0166H815.157V63.4305ZM815.157 8.45778V6.87157H813.571V8.45778H815.157ZM1093.46 8.45778H1095.04V6.87157H1093.46V8.45778ZM1093.46 46.8241L1094.68 47.8396L1095.04 47.3984V46.8241H1093.46ZM1051.65 100.079L1052.92 101.039L1052.92 101.033L1052.93 101.027L1051.65 100.079ZM1009.85 161.351L1011.2 162.181V162.181L1009.85 161.351ZM973.777 228.921L972.335 228.259L972.33 228.269L972.326 228.279L973.777 228.921ZM949.153 300.5L950.691 300.891L950.692 300.885L949.153 300.5ZM939.991 401.283V402.87H941.577V401.283H939.991ZM876.297 401.283C876.297 367.439 880.48 334.745 888.842 303.197L885.776 302.384C877.341 334.207 873.125 367.175 873.125 401.283H876.297ZM888.844 303.193C897.216 271.225 908.441 240.976 922.517 212.444L919.672 211.04C905.498 239.771 894.199 270.222 885.775 302.389L888.844 303.193ZM922.513 212.452C936.991 183.495 952.609 156.642 969.364 131.89L966.737 130.112C949.897 154.988 934.211 181.962 919.676 211.033L922.513 212.452ZM969.361 131.895C986.514 106.737 1003.47 84.2579 1020.23 64.455L1017.8 62.4059C1000.97 82.3054 983.944 104.874 966.74 130.107L969.361 131.895ZM1019.01 61.8443H815.157V65.0166H1019.01V61.8443ZM816.744 63.4305V8.45778H813.571V63.4305H816.744ZM815.157 10.044H1093.46V6.87157H815.157V10.044ZM1091.87 8.45778V46.8241H1095.04V8.45778H1091.87ZM1092.24 45.8087C1078.86 61.8677 1064.9 79.6422 1050.38 99.1312L1052.93 101.027C1067.42 81.5766 1081.33 63.848 1094.68 47.8396L1092.24 45.8087ZM1050.39 99.1191C1035.85 118.251 1021.89 138.719 1008.5 160.521L1011.2 162.181C1024.54 140.462 1038.44 120.082 1052.92 101.039L1050.39 99.1191ZM1008.5 160.521C995.106 182.335 983.051 204.915 972.335 228.259L975.218 229.583C985.881 206.353 997.876 183.886 1011.2 162.181L1008.5 160.521ZM972.326 228.279C961.982 251.648 953.745 275.594 947.615 300.115L950.692 300.885C956.778 276.542 964.956 252.768 975.227 229.563L972.326 228.279ZM947.616 300.11C941.476 324.286 938.405 348.658 938.405 373.224H941.577C941.577 348.926 944.615 324.815 950.691 300.891L947.616 300.11ZM938.405 373.224V401.283H941.577V373.224H938.405ZM939.991 399.697H874.711V402.87H939.991V399.697Z" fill="url(#paint0_linear_94_614)" mask="url(#path-1-outside-1_94_614)"/>
<path d="M88.0536 386.968L87.3212 388.375L87.3327 388.38L87.3443 388.386L88.0536 386.968ZM23.9188 319.97L25.3412 319.267V319.267L23.9188 319.97ZM51.4052 51.9778L50.2836 50.8562V50.8562L51.4052 51.9778ZM279.313 18.1925L278.69 19.6516L278.698 19.6548L279.313 18.1925ZM341.157 68.0115L339.841 68.8966L339.849 68.9097L339.859 68.9227L341.157 68.0115ZM364.062 151.616V153.202H365.648V151.616H364.062ZM298.782 151.616H297.196V153.202H298.782V151.616ZM285.612 98.9337L284.265 99.7711V99.7711L285.612 98.9337ZM247.818 66.8662L247.164 68.3115L247.177 68.3171L247.818 66.8662ZM123.557 72.0199L124.334 73.4025L124.344 73.3971L123.557 72.0199ZM81.7547 118.976L80.3106 118.319L80.3057 118.33L80.3008 118.341L81.7547 118.976ZM81.7547 291.911L80.3008 292.545L80.3057 292.556L80.3106 292.567L81.7547 291.911ZM123.557 338.866L122.779 340.249L122.79 340.255L122.801 340.261L123.557 338.866ZM249.536 343.448L250.148 344.911L250.163 344.905L250.177 344.898L249.536 343.448ZM287.33 311.38L285.999 310.517L285.99 310.53L285.982 310.543L287.33 311.38ZM301.073 258.698V257.112H299.487V258.698H301.073ZM364.062 258.698H365.648V257.112H364.062V258.698ZM341.157 342.875L339.851 341.974L339.846 341.982L339.841 341.99L341.157 342.875ZM279.313 392.121L278.716 390.651L278.709 390.654L279.313 392.121ZM190.555 406.569C150.652 406.569 116.741 399.538 88.763 385.549L87.3443 388.386C115.866 402.647 150.289 409.741 190.555 409.741V406.569ZM88.786 385.561C61.2386 371.221 40.0915 349.146 25.3412 319.267L22.4965 320.672C37.523 351.11 59.1325 373.701 87.3212 388.375L88.786 385.561ZM25.3412 319.267C10.5938 289.395 3.17239 251.289 3.17239 204.871H-1.33514e-05C-1.33514e-05 251.6 7.46702 290.227 22.4965 320.672L25.3412 319.267ZM3.17239 204.871C3.17239 136.381 19.7255 85.9008 52.5268 53.0994L50.2836 50.8562C16.6596 84.4802 -1.33514e-05 135.928 -1.33514e-05 204.871H3.17239ZM52.5268 53.0994C85.7526 19.8736 131.882 3.17241 191.127 3.17241V1.52588e-05C131.266 1.52588e-05 84.2465 16.8932 50.2836 50.8562L52.5268 53.0994ZM191.127 3.17241C223.779 3.17241 252.957 8.67717 278.69 19.6516L279.935 16.7335C253.749 5.56613 224.138 1.52588e-05 191.127 1.52588e-05V3.17241ZM278.698 19.6548C304.775 30.6147 325.137 47.03 339.841 68.8966L342.473 67.1264C327.4 44.7095 306.532 27.9121 279.927 16.7302L278.698 19.6548ZM339.859 68.9227C354.895 90.3501 362.476 117.875 362.476 151.616H365.648C365.648 117.404 357.959 89.193 342.455 67.1004L339.859 68.9227ZM364.062 150.03H298.782V153.202H364.062V150.03ZM300.368 151.616C300.368 130.4 295.932 112.531 286.959 98.0962L284.265 99.7711C292.852 113.586 297.196 130.838 297.196 151.616H300.368ZM286.959 98.0962C277.997 83.6789 265.142 72.7869 248.459 65.4154L247.177 68.3171C263.325 75.4523 275.666 85.9386 284.265 99.7711L286.959 98.0962ZM248.472 65.421C232.193 58.057 213.256 54.4 191.7 54.4V57.5724C212.9 57.5724 231.375 61.1688 247.164 68.3114L248.472 65.421ZM191.7 54.4C164.767 54.4 141.767 59.7874 122.77 70.6427L124.344 73.3971C142.759 62.8742 165.188 57.5724 191.7 57.5724V54.4ZM122.779 70.6374C104.133 81.1261 89.9797 97.0475 80.3106 118.319L83.1987 119.632C92.6174 98.9109 106.332 83.5285 124.334 73.4024L122.779 70.6374ZM80.3008 118.341C71.023 139.603 66.4253 166.561 66.4253 199.144H69.5977C69.5977 166.829 74.1621 140.342 83.2085 119.61L80.3008 118.341ZM66.4253 199.144V211.742H69.5977V199.144H66.4253ZM66.4253 211.742C66.4253 244.325 71.023 271.283 80.3008 292.545L83.2085 291.276C74.1621 270.545 69.5977 244.057 69.5977 211.742H66.4253ZM80.3106 292.567C89.9797 313.839 104.133 329.76 122.779 340.249L124.334 337.484C106.332 327.358 92.6174 311.975 83.1987 291.254L80.3106 292.567ZM122.801 340.261C141.417 350.345 164.409 355.341 191.7 355.341V352.169C164.782 352.169 142.345 347.24 124.312 337.472L122.801 340.261ZM191.7 355.341C214.002 355.341 233.498 351.881 250.148 344.911L248.923 341.984C232.743 348.757 213.681 352.169 191.7 352.169V355.341ZM250.177 344.898C266.86 337.527 279.715 326.635 288.677 312.218L285.982 310.543C277.384 324.375 265.043 334.861 248.895 341.997L250.177 344.898ZM288.66 312.243C298.026 297.804 302.659 279.925 302.659 258.698H299.487C299.487 279.464 294.957 296.706 285.999 310.517L288.66 312.243ZM301.073 260.284H364.062V257.112H301.073V260.284ZM362.476 258.698C362.476 292.437 354.896 320.16 339.851 341.974L342.463 343.775C357.958 321.307 365.648 292.911 365.648 258.698H362.476ZM339.841 341.99C325.14 363.852 304.785 380.073 278.716 390.651L279.909 393.591C306.523 382.791 327.397 366.181 342.473 343.76L339.841 341.99ZM278.709 390.654C252.973 401.252 223.597 406.569 190.555 406.569V409.741C223.937 409.741 253.734 404.369 279.917 393.588L278.709 390.654ZM435.418 401.283H433.831V402.87H435.418V401.283ZM435.418 8.45778V6.87157H433.831V8.45778H435.418ZM701.119 20.4831L700.423 21.9084L700.436 21.915L700.45 21.9213L701.119 20.4831ZM739.485 53.6957L738.144 54.5427L738.152 54.5552L738.16 54.5675L739.485 53.6957ZM745.211 145.317L743.775 144.644L743.766 144.662L743.758 144.681L745.211 145.317ZM722.306 176.239L721.282 175.028L721.27 175.038L721.258 175.048L722.306 176.239ZM689.666 195.136L689.151 193.636L688.08 194.004V195.136H689.666ZM689.666 197.426H688.08V198.706L689.331 198.977L689.666 197.426ZM727.46 214.605L726.501 215.869L726.525 215.887L726.55 215.905L727.46 214.605ZM754.374 246.673L752.947 247.366L752.959 247.391L752.972 247.415L754.374 246.673ZM748.075 354.9L746.769 353.999L746.762 354.01L746.755 354.02L748.075 354.9ZM705.127 390.403L705.722 391.874L705.735 391.869L705.748 391.863L705.127 390.403ZM499.552 346.311H497.966V347.897H499.552V346.311ZM681.649 332.567L682.661 333.789L682.665 333.786L681.649 332.567ZM691.384 254.69L689.965 255.399L689.983 255.435L690.003 255.47L691.384 254.69ZM670.197 234.075L669.465 235.482L669.487 235.494L669.51 235.505L670.197 234.075ZM499.552 226.631V225.044H497.966V226.631H499.552ZM499.552 172.803H497.966V174.389H499.552V172.803ZM660.462 165.932L661.196 167.338V167.338L660.462 165.932ZM680.504 146.462L679.138 145.655L679.125 145.679L679.112 145.703L680.504 146.462ZM672.487 77.1736L671.411 78.3392L671.435 78.3606L671.459 78.3811L672.487 77.1736ZM499.552 63.4305V61.8443H497.966V63.4305H499.552ZM437.004 401.283V8.45778H433.831V401.283H437.004ZM435.418 10.044H643.856V6.87157H435.418V10.044ZM643.856 10.044C665.42 10.044 684.262 14.0157 700.423 21.9084L701.815 19.0578C685.145 10.9167 665.811 6.87157 643.856 6.87157V10.044ZM700.45 21.9213C716.605 29.4354 729.154 40.3081 738.144 54.5427L740.826 52.8487C731.492 38.07 718.463 26.8009 701.788 19.0448L700.45 21.9213ZM738.16 54.5675C747.513 68.7847 752.215 85.4615 752.215 104.66H755.387C755.387 84.9195 750.545 67.6201 740.81 52.8239L738.16 54.5675ZM752.215 104.66C752.215 119.34 749.393 132.659 743.775 144.644L746.648 145.99C752.483 133.542 755.387 119.757 755.387 104.66H752.215ZM743.758 144.681C738.508 156.681 731.017 166.79 721.282 175.028L723.331 177.45C733.446 168.891 741.226 158.385 746.665 145.953L743.758 144.681ZM721.258 175.048C711.872 183.308 701.174 189.503 689.151 193.636L690.182 196.636C702.591 192.37 713.652 185.967 723.354 177.43L721.258 175.048ZM688.08 195.136V197.426H691.252V195.136H688.08ZM689.331 198.977C703.239 201.984 715.622 207.616 726.501 215.869L728.419 213.342C717.156 204.797 704.343 198.977 690.001 195.876L689.331 198.977ZM726.55 215.905C737.768 223.757 746.567 234.231 752.947 247.366L755.8 245.98C749.2 232.391 740.057 221.487 728.369 213.306L726.55 215.905ZM752.972 247.415C759.696 260.116 763.095 275.5 763.095 293.629H766.267C766.267 275.108 762.794 259.189 755.775 245.931L752.972 247.415ZM763.095 293.629C763.095 318.209 757.613 338.294 746.769 353.999L749.38 355.801C760.678 339.439 766.267 318.677 766.267 293.629H763.095ZM746.755 354.02C736.239 369.794 722.168 381.428 704.506 388.944L705.748 391.863C723.972 384.108 738.532 372.074 749.394 355.78L746.755 354.02ZM704.533 388.933C686.81 396.097 666.594 399.697 643.856 399.697V402.87C666.928 402.87 687.559 399.216 705.722 391.874L704.533 388.933ZM643.856 399.697H435.418V402.87H643.856V399.697ZM499.552 347.897H638.702V344.724H499.552V347.897ZM638.702 347.897C656.547 347.897 671.246 343.236 682.661 333.789L680.638 331.345C669.911 340.223 655.978 344.724 638.702 344.724V347.897ZM682.665 333.786C694.609 323.832 700.414 308.024 700.414 286.757H697.242C697.242 307.483 691.595 322.215 680.634 331.349L682.665 333.786ZM700.414 286.757C700.414 273.953 697.892 262.98 692.765 253.909L690.003 255.47C694.802 263.96 697.242 274.365 697.242 286.757H700.414ZM692.803 253.98C688.059 244.492 680.733 237.373 670.883 232.645L669.51 235.505C678.748 239.939 685.547 246.563 689.965 255.399L692.803 253.98ZM670.928 232.667C661.094 227.553 648.797 225.044 634.121 225.044V228.217C648.458 228.217 660.212 230.671 669.465 235.482L670.928 232.667ZM634.121 225.044H499.552V228.217H634.121V225.044ZM497.966 226.631V346.311H501.138V226.631H497.966ZM499.552 174.389H628.967V171.217H499.552V174.389ZM628.967 174.389C641.38 174.389 652.142 172.062 661.196 167.338L659.728 164.525C651.221 168.964 640.987 171.217 628.967 171.217V174.389ZM661.196 167.338C670.244 162.617 677.159 155.906 681.897 147.222L679.112 145.703C674.687 153.815 668.24 160.084 659.728 164.525L661.196 167.338ZM681.87 147.269C686.985 138.612 689.534 128.978 689.534 118.403H686.362C686.362 128.443 683.949 137.515 679.138 145.655L681.87 147.269ZM689.534 118.403C689.534 99.418 684.297 85.1504 673.516 75.9661L671.459 78.3811C681.292 86.7576 686.362 99.9763 686.362 118.403H689.534ZM673.563 76.0081C663.284 66.5199 649.699 61.8443 632.976 61.8443V65.0166C649.083 65.0166 661.839 69.5032 671.411 78.3392L673.563 76.0081ZM632.976 61.8443H499.552V65.0166H632.976V61.8443ZM497.966 63.4305V172.803H501.138V63.4305H497.966ZM874.711 401.283H873.125V402.87H874.711V401.283ZM887.309 302.791L888.842 303.197L888.844 303.193L887.309 302.791ZM921.094 211.742L919.676 211.033L919.672 211.04L921.094 211.742ZM968.05 131.001L966.74 130.107L966.737 130.112L968.05 131.001ZM1019.01 63.4305L1020.23 64.455L1022.43 61.8443H1019.01V63.4305ZM815.157 63.4305H813.571V65.0166H815.157V63.4305ZM815.157 8.45778V6.87157H813.571V8.45778H815.157ZM1093.46 8.45778H1095.04V6.87157H1093.46V8.45778ZM1093.46 46.8241L1094.68 47.8396L1095.04 47.3984V46.8241H1093.46ZM1051.65 100.079L1052.92 101.039L1052.92 101.033L1052.93 101.027L1051.65 100.079ZM1009.85 161.351L1011.2 162.181V162.181L1009.85 161.351ZM973.777 228.921L972.335 228.259L972.33 228.269L972.326 228.279L973.777 228.921ZM949.153 300.5L950.691 300.891L950.692 300.885L949.153 300.5ZM939.991 401.283V402.87H941.577V401.283H939.991ZM876.297 401.283C876.297 367.439 880.48 334.745 888.842 303.197L885.776 302.384C877.341 334.207 873.125 367.175 873.125 401.283H876.297ZM888.844 303.193C897.216 271.225 908.441 240.976 922.517 212.444L919.672 211.04C905.498 239.771 894.199 270.222 885.775 302.389L888.844 303.193ZM922.513 212.452C936.991 183.495 952.609 156.642 969.364 131.89L966.737 130.112C949.897 154.988 934.211 181.962 919.676 211.033L922.513 212.452ZM969.361 131.895C986.514 106.737 1003.47 84.2579 1020.23 64.455L1017.8 62.4059C1000.97 82.3054 983.944 104.874 966.74 130.107L969.361 131.895ZM1019.01 61.8443H815.157V65.0166H1019.01V61.8443ZM816.744 63.4305V8.45778H813.571V63.4305H816.744ZM815.157 10.044H1093.46V6.87157H815.157V10.044ZM1091.87 8.45778V46.8241H1095.04V8.45778H1091.87ZM1092.24 45.8087C1078.86 61.8677 1064.9 79.6422 1050.38 99.1312L1052.93 101.027C1067.42 81.5766 1081.33 63.848 1094.68 47.8396L1092.24 45.8087ZM1050.39 99.1191C1035.85 118.251 1021.89 138.719 1008.5 160.521L1011.2 162.181C1024.54 140.462 1038.44 120.082 1052.92 101.039L1050.39 99.1191ZM1008.5 160.521C995.106 182.335 983.051 204.915 972.335 228.259L975.218 229.583C985.881 206.353 997.876 183.886 1011.2 162.181L1008.5 160.521ZM972.326 228.279C961.982 251.648 953.745 275.594 947.615 300.115L950.692 300.885C956.778 276.542 964.956 252.768 975.227 229.563L972.326 228.279ZM947.616 300.11C941.476 324.286 938.405 348.658 938.405 373.224H941.577C941.577 348.926 944.615 324.815 950.691 300.891L947.616 300.11ZM938.405 373.224V401.283H941.577V373.224H938.405ZM939.991 399.697H874.711V402.87H939.991V399.697Z" fill="url(#paint1_linear_94_614)" mask="url(#path-1-outside-1_94_614)"/>
</g>
<defs>
<linearGradient id="paint0_linear_94_614" x1="246.331" y1="-858.172" x2="1349.33" y2="-314.572" gradientUnits="userSpaceOnUse">
<stop stop-color="#00B4FD"/>
<stop offset="1" stop-color="#003ACE"/>
</linearGradient>
<linearGradient id="paint1_linear_94_614" x1="419.206" y1="378.074" x2="595.738" y2="-79.707" gradientUnits="userSpaceOnUse">
<stop stop-color="#02171F"/>
<stop offset="1" stop-opacity="0"/>
</linearGradient>
</defs>
</svg>
