<svg width="30" height="32" viewBox="0 0 30 32" fill="none" xmlns="http://www.w3.org/2000/svg">
<circle cx="14.8862" cy="16.0495" r="9.26182" fill="url(#paint0_linear_72_276)"/>
<path d="M13.2437 18.3327L11.3438 16.4329C11.2415 16.3306 11.1026 16.273 10.9579 16.273C10.8131 16.273 10.6742 16.3306 10.5719 16.4329C10.4695 16.5353 10.412 16.6741 10.412 16.8189C10.412 16.8906 10.4261 16.9616 10.4535 17.0278C10.481 17.094 10.5212 17.1542 10.5719 17.2049L12.8604 19.4934C13.0739 19.707 13.4189 19.707 13.6324 19.4934L19.4249 13.7009C19.5273 13.5985 19.5848 13.4597 19.5848 13.3149C19.5848 13.1701 19.5273 13.0313 19.4249 12.9289C19.3226 12.8266 19.1837 12.769 19.039 12.769C18.8942 12.769 18.7553 12.8266 18.653 12.9289L13.2437 18.3327Z" fill="#E9F4F9"/>
<defs>
<linearGradient id="paint0_linear_72_276" x1="-9.11865" y1="-15.9255" x2="25.1246" y2="-17.5506" gradientUnits="userSpaceOnUse">
<stop stop-color="#00B4FD"/>
<stop offset="0.815786" stop-color="#003ACE"/>
</linearGradient>
</defs>
</svg>
