<svg width="73" height="19" viewBox="0 0 73 19" fill="none" xmlns="http://www.w3.org/2000/svg">
<path fill-rule="evenodd" clip-rule="evenodd" d="M0 9.39914L0.000887696 9.30697L0.00271825 9.21475L0.00549637 9.12253L0.00921734 9.03031L0.0138904 8.93809L0.0195063 8.84587L0.0260743 8.7537L0.0335853 8.66153L0.0420483 8.5694L0.0514588 8.47727L0.0618167 8.38528L0.0731177 8.29329L0.0853707 8.2014L0.0985711 8.10959L0.112714 8.01788L0.127805 7.9263L0.143844 7.83477L0.16082 7.74343L0.178744 7.65217L0.197611 7.56106L0.217421 7.47008L0.238165 7.37929L0.259856 7.28868L0.282476 7.19821L0.306039 7.10797L0.330531 7.01786L0.355962 6.92799L0.382321 6.83835L0.40961 6.74893L0.437823 6.65975L0.466965 6.57079L0.497032 6.48207L0.528018 6.39362L0.55992 6.30545L0.592742 6.21756L0.626475 6.12994L0.661122 6.04264L0.696676 5.95562L0.733136 5.86896L0.770498 5.78258L0.808761 5.69653L0.84792 5.61084L0.887972 5.52552L0.928917 5.44052L0.970749 5.35589L1.01346 5.27168L1.05706 5.18783L1.10153 5.10435L1.14687 5.02133L1.19308 4.93867L1.24016 4.85644L1.2881 4.77466L1.33689 4.69329L1.38654 4.61239L1.43704 4.53194L1.48838 4.45196L1.54056 4.37248L1.59358 4.29342L1.64742 4.2149L1.7021 4.13685L1.75759 4.0593L1.8139 3.98231L1.87102 3.90577L1.92894 3.82984L1.98767 3.7544L2.04719 3.6795L2.10751 3.60517L2.16861 3.5314L2.23048 3.45821L2.29314 3.38559L2.35656 3.31356L2.42074 3.24212L2.48568 3.17128L2.55137 3.10106L2.61781 3.03145L2.68498 2.96247L2.75289 2.89412L2.82152 2.8264L2.89088 2.75934L2.96095 2.69293L3.03172 2.62718L3.1032 2.5621L3.17537 2.4977L3.24823 2.43398L3.32177 2.37094L3.39598 2.30861L3.47086 2.24698L3.5464 2.18606L3.6226 2.12586L3.69944 2.06638L3.7769 2.00763L3.85504 1.94962L3.93378 1.89236L4.01312 1.83584L4.09306 1.78008L4.17365 1.72509L4.25478 1.67086L4.33651 1.61741L4.41884 1.56473L4.50177 1.51285L4.58521 1.46176L4.66924 1.41147L4.75378 1.36198L4.83887 1.3133L4.92451 1.26544L5.01066 1.2184L5.09731 1.17219L5.18447 1.12681L5.27214 1.08226L5.36031 1.03856L5.44894 0.99571L5.53808 0.953708L5.62763 0.912566L5.71769 0.872288L5.80816 0.832876L5.89909 0.794337L5.99043 0.756676L6.08219 0.719894L6.17437 0.683995L6.26695 0.648994L6.35991 0.614879L6.45328 0.581671L6.54702 0.54936L6.64112 0.517955L6.73555 0.487465L6.83034 0.457886L6.9255 0.429227L7.02099 0.401492L7.11675 0.374682L7.21288 0.348796L7.30928 0.323844L7.40597 0.29983L7.50292 0.276759L7.6002 0.254622L7.69771 0.233437L7.79545 0.213194L7.89346 0.193904L7.99171 0.175571L8.09018 0.158189L8.18889 0.141769L8.28777 0.12631L8.38685 0.111813L8.4861 0.098286L8.58554 0.0857248L8.68517 0.0741342L8.78493 0.0635093L8.88483 0.0538689L8.98487 0.0451989L9.08504 0.0375041L9.18531 0.0307934L9.72455 0L9.75533 2.59809L9.77294 2.59788L9.84741 2.59778L9.92187 2.5984L9.99634 2.59976L10.0709 2.60185L10.1454 2.60468L10.22 2.60823L10.2945 2.61252L10.3691 2.61755L10.4436 2.6233L10.5181 2.62979L10.5926 2.63702L10.6671 2.64499L10.7415 2.65369L10.8158 2.66312L10.8901 2.67329L10.9643 2.68419L11.0385 2.69583L11.1126 2.70821L11.1865 2.72131L11.2605 2.73515L11.3342 2.74972L11.4079 2.76503L11.4815 2.78106L11.5549 2.79783L11.6281 2.81532L11.7013 2.83354L11.7743 2.8525L11.8471 2.87217L11.9198 2.89258L11.9923 2.9137L12.0646 2.93555L12.1367 2.95812L12.2087 2.98141L12.2804 3.00542L12.352 3.03014L12.4232 3.05558L12.4944 3.08173L12.5652 3.10859L12.6358 3.13616L12.7062 3.16444L12.7763 3.19343L12.8461 3.22312L12.9157 3.2535L12.985 3.28459L13.054 3.31637L13.1227 3.34885L13.1911 3.38201L13.2592 3.41587L13.327 3.45041L13.3945 3.48563L13.4617 3.52154L13.5285 3.55812L13.595 3.59538L13.6611 3.63331L13.7269 3.6719L13.7923 3.71117L13.8573 3.75109L13.922 3.79166L13.9862 3.83292L14.0501 3.87477L14.1136 3.91732L14.1767 3.96051L14.2393 4.00429L14.3016 4.04877L14.3634 4.09384L14.4248 4.13956L14.4858 4.18593L14.5463 4.23289L14.6063 4.28049L14.6659 4.32865L14.725 4.37745L14.7837 4.42689L14.8419 4.47689L14.8996 4.52748L14.9568 4.57867L15.0135 4.63046L15.0697 4.68285L15.1254 4.73579L15.1806 4.78928L15.2352 4.84337L15.2894 4.89802L15.3429 4.95325L15.396 5.009L15.4485 5.0653L15.5005 5.12215L15.5518 5.17955L15.6027 5.23746L15.6529 5.29591L15.7026 5.35488L15.7517 5.41435L15.8003 5.47437L15.8482 5.53486L15.8955 5.59585L15.9422 5.65734L15.9884 5.71934L16.0339 5.7818L16.0788 5.84477L16.123 5.9082L16.1667 5.97204L16.2097 6.03638L16.252 6.10119L16.2937 6.16646L16.3348 6.23214L16.3752 6.29823L16.4149 6.36478L16.454 6.43175L16.4924 6.49913L16.5302 6.56693L16.5673 6.63514L16.6036 6.70372L16.6393 6.77271L16.6743 6.84207L16.7087 6.9118L16.7423 6.98194L16.7752 7.0524L16.8074 7.12324L16.8389 7.19444L16.8697 7.26596L16.8997 7.33785L16.9291 7.41001L16.9577 7.48255L16.9855 7.55536L17.0127 7.62853L17.0391 7.70194L17.0647 7.77572L17.0897 7.84972L17.1139 7.92405L17.1373 7.99861L17.16 8.07344L17.1819 8.14855L17.203 8.22389L17.2234 8.2995L17.243 8.37535L17.2618 8.45138L17.28 8.52768L17.2973 8.60417L17.3138 8.68089L17.3295 8.75775L17.3445 8.83488L17.3587 8.91215L17.3721 8.98961L17.3847 9.0672L17.3965 9.14498L17.4075 9.22294L17.4178 9.30099L17.4272 9.37923L17.4358 9.45756L17.4437 9.53602L17.4507 9.61458L17.4569 9.69328L17.4624 9.77207L17.467 9.85095L17.4708 9.92987L17.4738 10.0089L17.476 10.088L17.4774 10.1672L17.478 10.2464L17.4777 10.3256L17.4767 10.4049L17.4748 10.4842L17.4721 10.5635L17.4686 10.6429L17.4643 10.7222L17.4592 10.8016L17.4533 10.8809L17.4465 10.9602L17.4389 11.0395L17.4305 11.1187L17.4213 11.1979L17.4113 11.2771L17.4005 11.3561L17.3888 11.4351L17.3763 11.5141L17.363 11.5929L17.3489 11.6716L17.334 11.7503L17.3183 11.8289L17.3017 11.9073L17.2843 11.9856L17.2662 12.0637L17.2472 12.1418L17.2274 12.2196L17.2068 12.2973L17.1854 12.3749L17.1632 12.4522L17.1402 12.5294L17.1164 12.6064L17.0917 12.6832L17.0663 12.7598L17.0401 12.8362L17.0131 12.9124L16.9853 12.9883L16.9567 13.0639L16.9273 13.1394L16.8971 13.2146L16.8661 13.2895L16.8344 13.3642L16.8019 13.4386L16.7686 13.5126L16.7345 13.5864L16.6996 13.6599L16.664 13.7331L16.6276 13.806L16.5905 13.8786L16.5526 13.9508L16.5139 14.0227L16.4745 14.0942L16.4343 14.1654L16.3934 14.2362L16.3517 14.3067L16.3093 14.3767L16.2661 14.4465L16.2222 14.5157L16.1776 14.5846L16.1323 14.6531L16.0862 14.7212L16.0394 14.7888L15.9919 14.8561L15.9437 14.9229L15.8948 14.9892L15.8452 15.0551L15.7948 15.1206L15.7438 15.1855L15.6921 15.2501L15.6397 15.3141L15.5867 15.3776L15.5329 15.4407L15.4785 15.5032L15.4234 15.5653L15.3676 15.6268L15.3112 15.6879L15.2542 15.7483L15.1965 15.8083L15.1382 15.8677L15.0792 15.9266L15.0195 15.9849L14.9593 16.0427L14.8985 16.0999L14.837 16.1565L14.775 16.2126L14.7123 16.268L14.649 16.3229L14.5851 16.3772L14.5207 16.4308L14.4557 16.4839L14.3901 16.5364L14.3239 16.5882L14.2571 16.6394L14.1899 16.6899L14.122 16.7399L14.0537 16.7892L13.9847 16.8378L13.9153 16.8858L13.8453 16.9332L13.7748 16.9798L13.7038 17.0258L13.6324 17.0711L13.5604 17.1158L13.4879 17.1597L13.4149 17.203L13.3414 17.2456L13.2676 17.2874L13.1931 17.3285L13.1184 17.369L13.0431 17.4087L12.9674 17.4477L12.8912 17.486L12.8146 17.5235L12.7376 17.5603L12.6602 17.5964L12.5824 17.6318L12.5042 17.6664L12.4256 17.7002L12.3466 17.7332L12.2673 17.7656L12.1876 17.7971L12.1075 17.8279L12.027 17.8579L11.9463 17.8871L11.8651 17.9156L11.7837 17.9432L11.702 17.9702L11.6199 17.9962L11.5375 18.0215L11.4549 18.046L11.3719 18.0697L11.2887 18.0926L11.2052 18.1148L11.1214 18.136L11.0374 18.1565L10.9532 18.1762L10.8686 18.195L10.7839 18.213L10.699 18.2302L10.6138 18.2466L10.5284 18.2621L10.4429 18.2768L10.3571 18.2907L10.2712 18.3038L10.185 18.3159L10.0988 18.3273L10.0123 18.3378L9.92574 18.3475L9.83904 18.3563L9.7522 18.3643L9.66527 18.3715L9.5782 18.3778L9.49104 18.3832L9.40374 18.3878L9.3164 18.3915L9.22901 18.3944L9.14148 18.3964L9.05395 18.3975L8.96633 18.3979L8.87871 18.3973L8.79105 18.3959L8.70334 18.3936L8.61562 18.3904L8.52791 18.3864L8.4402 18.3816L8.35253 18.3759L8.26482 18.3693L8.1772 18.3618L8.08958 18.3535L8.00201 18.3444L7.91453 18.3343L7.82709 18.3234L7.7397 18.3117L7.65245 18.299L7.56524 18.2855L7.47818 18.2712L7.3912 18.256L7.30432 18.2399L7.21762 18.223L7.13101 18.2052L7.04458 18.1866L6.95825 18.1671L6.87215 18.1467L6.78619 18.1255L6.70041 18.1034L6.61481 18.0805L6.52945 18.0568L6.44426 18.0322L6.35926 18.0068L6.27454 17.9805L6.19005 17.9533L6.10579 17.9254L6.02176 17.8965L5.938 17.8668L5.85452 17.8364L5.77132 17.8051L5.68839 17.7729L5.60578 17.7399L5.52345 17.7061L5.44144 17.6715L5.35976 17.6361L5.27839 17.5998L5.19735 17.5628L5.11667 17.5249L5.03637 17.4862L4.95643 17.4467L4.87681 17.4064L4.79761 17.3653L4.71882 17.3234L4.64035 17.2808L4.56235 17.2373L4.48475 17.1931L4.40757 17.148L4.33081 17.1022L4.2545 17.0557L4.17861 17.0083L4.10318 16.9602L4.02826 16.9114L3.95375 16.8618L3.87974 16.8114L3.80624 16.7603L3.7332 16.7084L3.66067 16.6558L3.58865 16.6025L3.51715 16.5484L3.44618 16.4936L3.37573 16.4382L3.30582 16.3819L3.23647 16.325L3.16766 16.2674L3.09942 16.2091L3.03175 16.1501L2.96466 16.0903L2.89815 16.0299L2.83223 15.9689L2.76691 15.9071L2.7022 15.8447L2.63811 15.7816L2.57462 15.7179L2.51177 15.6536L2.44955 15.5885L2.38798 15.5229L2.32705 15.4566L2.26678 15.3897L2.20716 15.3222L2.14822 15.2541L2.08995 15.1853L2.03236 15.116L1.97546 15.046L1.91925 14.9755L1.86374 14.9044L1.80894 14.8328L1.75485 14.7605L1.70148 14.6877L1.64883 14.6143L1.59691 14.5404L1.54573 14.466L1.49529 14.391L1.44561 14.3155L1.39667 14.2395L1.34849 14.163L1.30108 14.0859L1.25444 14.0084L1.20858 13.9304L1.1635 13.8519L1.1192 13.773L1.07569 13.6935L1.03299 13.6136L0.991079 13.5332L0.949983 13.4525L0.909691 13.3712L0.870223 13.2896L0.831574 13.2075L0.793748 13.125L0.756754 13.0421L0.720593 12.9589L0.685274 12.8751L0.650801 12.7911L0.61717 12.7067L0.584394 12.6218L0.552478 12.5367L0.521418 12.4512L0.491223 12.3654L0.461892 12.2792L0.433435 12.1927L0.405857 12.1059L0.379152 12.0188L0.353335 11.9314L0.328402 11.8437L0.304356 11.7557L0.281202 11.6675L0.258945 11.579L0.237585 11.4902L0.217131 11.4012L0.197579 11.312L0.178933 11.2225L0.161197 11.1328L0.144373 11.0429L0.128463 10.9528L0.113473 10.8626L0.099399 10.7721L0.0862492 10.6814L0.0740237 10.5906L0.0627275 10.4996L0.0523557 10.4085L0.042913 10.3172L0.034404 10.2259L0.0268287 10.1344L0.020187 10.0427L0.0144838 9.95103L0.00971871 9.85923L0.00589191 9.76733L0.00300347 9.67539L0.00105789 9.58335L5.97646e-05 9.49127L0 9.39914ZM8.91289 2.65251L8.89191 0.881621L8.872 0.883543L8.78056 0.893276L8.68935 0.903891L8.59819 0.915408L8.5074 0.927781L8.4167 0.941055L8.32609 0.955217L8.23575 0.970248L8.14551 0.986176L8.05573 1.00293L7.96581 1.02063L7.87654 1.03912L7.78712 1.05854L7.69817 1.07879L7.60931 1.09993L7.52086 1.12189L7.43264 1.14473L7.34465 1.16842L7.25694 1.19297L7.16964 1.21834L7.08248 1.24459L6.99578 1.27165L6.90931 1.29956L6.8233 1.32826L6.73743 1.35785L6.65202 1.38824L6.56702 1.41944L6.48225 1.45148L6.39795 1.48431L6.3141 1.51792L6.23048 1.55241L6.14728 1.58767L6.06449 1.62374L5.98215 1.66057L5.90024 1.6982L5.81878 1.73658L5.7376 1.77582L5.65702 1.81577L5.57685 1.8565L5.49714 1.89799L5.41789 1.94026L5.3392 1.98324L5.26082 2.02703L5.18295 2.07157L5.10577 2.11674L5.02882 2.1628L4.95261 2.20947L4.8769 2.25687L4.80156 2.30504L4.72682 2.35392L4.65263 2.40351L4.57913 2.45369L4.50591 2.50475L4.43342 2.55636L4.36149 2.60869L4.29006 2.66173L4.21927 2.7154L4.14913 2.76971L4.0794 2.82479L4.01046 2.8804L3.94202 2.93673L3.87422 2.99368L3.80702 3.05128L3.74051 3.10944L3.6745 3.16834L3.60925 3.22776L3.54454 3.28787L3.48059 3.34848L3.41723 3.40975L3.35456 3.47157L3.29254 3.534L3.23112 3.59708L3.1705 3.66059L3.11057 3.72465L3.05117 3.78945L2.99259 3.85467L2.93472 3.92035L2.87746 3.98672L2.82102 4.05351L2.76521 4.12089L2.71015 4.18873L2.65581 4.25713L2.60218 4.32598L2.54934 4.39529L2.4972 4.46511L2.44577 4.53549L2.39516 4.60618L2.34523 4.67747L2.2961 4.74913L2.24773 4.82125L2.20008 4.89383L2.15324 4.96682L2.10717 5.04018L2.06187 5.11401L2.01738 5.1882L1.97362 5.26284L1.93065 5.33791L1.88852 5.41325L1.84715 5.489L1.80657 5.56517L1.76681 5.64166L1.72783 5.71851L1.6897 5.79565L1.65235 5.87315L1.61583 5.95097L1.58011 6.02916L1.54523 6.10758L1.51114 6.18637L1.47789 6.26544L1.44549 6.34473L1.41389 6.42435L1.38313 6.50424L1.35321 6.58436L1.32412 6.66476L1.29589 6.74534L1.26847 6.82625L1.2419 6.90734L1.21619 6.98866L1.19132 7.07011L1.16728 7.15189L1.14412 7.23376L1.1218 7.31586L1.10032 7.3981L1.0797 7.48057L1.05994 7.56313L1.04104 7.64587L1.02299 7.72876L1.0058 7.81178L0.989473 7.89489L0.974001 7.97814L0.959393 8.06148L0.945645 8.14496L0.932762 8.22849L0.920739 8.31211L0.909581 8.39582L0.899283 8.47957L0.889849 8.56337L0.88128 8.64727L0.873576 8.73116L0.866732 8.81506L0.860753 8.89904L0.855638 8.98303L0.851384 9.06697L0.847994 9.15096L0.845464 9.2349L0.843799 9.31884L0.84299 9.40273L0.843045 9.48662L0.843956 9.57043L0.845726 9.65423L0.848353 9.73794L0.851835 9.82156L0.856176 9.90513L0.861365 9.98856L0.867408 10.072L0.874303 10.1552L0.882048 10.2384L0.890636 10.3214L0.900074 10.4043L0.910353 10.4871L0.921475 10.5697L0.933438 10.6522L0.946243 10.7345L0.959876 10.8166L0.974351 10.8986L0.989653 10.9803L1.00578 11.0619L1.02274 11.1433L1.04052 11.2244L1.05913 11.3054L1.07855 11.3861L1.09879 11.4666L1.11985 11.5469L1.1417 11.6268L1.16438 11.7066L1.18785 11.786L1.21213 11.8652L1.23721 11.9442L1.26307 12.0228L1.28973 12.1011L1.31718 12.1791L1.34541 12.2568L1.37441 12.3342L1.40421 12.4113L1.43477 12.488L1.46609 12.5644L1.49819 12.6404L1.53105 12.7161L1.56466 12.7914L1.59903 12.8664L1.63415 12.941L1.67001 13.0151L1.70661 13.0889L1.74394 13.1623L1.78201 13.2353L1.8208 13.3079L1.86032 13.3801L1.90055 13.4518L1.9415 13.5231L1.98315 13.5939L2.02551 13.6643L2.06855 13.7343L2.11231 13.8038L2.15673 13.8728L2.20186 13.9413L2.24765 14.0094L2.29411 14.077L2.34124 14.1441L2.38904 14.2107L2.43748 14.2768L2.48659 14.3424L2.53632 14.4074L2.58672 14.4719L2.63771 14.5359L2.68936 14.5994L2.74163 14.6624L2.7945 14.7247L2.84799 14.7865L2.90207 14.8478L2.95677 14.9085L3.01205 14.9686L3.0679 15.0282L3.12435 15.0872L3.18136 15.1456L3.23895 15.2034L3.29709 15.2606L3.3558 15.3172L3.41503 15.3732L3.47481 15.4286L3.53514 15.4834L3.59598 15.5375L3.65732 15.591L3.71922 15.6439L3.78163 15.6961L3.84446 15.7477L3.90789 15.7987L3.97173 15.849L4.03608 15.8987L4.10088 15.9477L4.16619 15.9961L4.23192 16.0437L4.29811 16.0907L4.36471 16.137L4.43181 16.1827L4.49929 16.2276L4.56727 16.2719L4.63557 16.3155L4.70433 16.3584L4.77351 16.4006L4.84301 16.4421L4.91296 16.4829L4.98324 16.523L5.05394 16.5623L5.12495 16.601L5.19638 16.6389L5.26809 16.6761L5.34016 16.7127L5.4126 16.7484L5.48537 16.7834L5.55841 16.8178L5.63177 16.8513L5.70541 16.8841L5.77941 16.9162L5.85365 16.9476L5.9282 16.9782L6.00299 17.008L6.07805 17.0371L6.15339 17.0655L6.22892 17.0931L6.30472 17.1199L6.38079 17.146L6.45705 17.1713L6.53354 17.1959L6.61017 17.2197L6.68711 17.2427L6.76416 17.265L6.84143 17.2864L6.91888 17.3072L6.99647 17.3271L7.07425 17.3463L7.15212 17.3647L7.23022 17.3824L7.30841 17.3992L7.38669 17.4153L7.46516 17.4306L7.54372 17.4452L7.62237 17.4589L7.70111 17.4719L7.77995 17.4841L7.85887 17.4955L7.93789 17.5061L8.01691 17.516L8.09602 17.5251L8.17518 17.5333L8.25438 17.5409L8.33363 17.5476L8.41288 17.5536L8.49213 17.5587L8.57142 17.5631L8.65067 17.5667L8.72992 17.5696L8.80917 17.5717L8.88842 17.5729L8.96758 17.5734L9.04673 17.5731L9.12584 17.5721L9.20486 17.5703L9.28383 17.5677L9.36276 17.5643L9.4416 17.5602L9.52029 17.5552L9.59894 17.5496L9.6775 17.5431L9.75592 17.5359L9.83421 17.5279L9.9124 17.5192L9.9904 17.5097L10.0683 17.4994L10.146 17.4884L10.2236 17.4766L10.3011 17.4641L10.3783 17.4508L10.4554 17.4368L10.5323 17.422L10.6089 17.4065L10.6854 17.3903L10.7617 17.3733L10.8377 17.3555L10.9136 17.337L10.9891 17.3179L11.0645 17.2979L11.1395 17.2772L11.2144 17.2559L11.289 17.2337L11.3633 17.2109L11.4373 17.1874L11.5111 17.1631L11.5845 17.1382L11.6576 17.1125L11.7305 17.0861L11.8031 17.0591L11.8753 17.0313L11.9472 17.0029L12.0187 16.9738L12.0899 16.9439L12.1608 16.9134L12.2313 16.8822L12.3014 16.8504L12.3712 16.8179L12.4406 16.7847L12.5096 16.7509L12.5782 16.7163L12.6465 16.6812L12.7143 16.6454L12.7818 16.6089L12.8487 16.5719L12.9153 16.5342L12.9815 16.4958L13.0473 16.4568L13.1125 16.4173L13.1775 16.377L13.2418 16.3362L13.3057 16.2948L13.3693 16.2528L13.4323 16.2101L13.4948 16.1669L13.5568 16.1231L13.6184 16.0787L13.6795 16.0338L13.7401 15.9882L13.8001 15.9422L13.8598 15.8954L13.9188 15.8482L13.9773 15.8005L14.0354 15.7522L14.0929 15.7033L14.1498 15.6539L14.2062 15.604L14.2621 15.5535L14.3174 15.5026L14.3722 15.4511L14.4263 15.3992L14.48 15.3467L14.5331 15.2937L14.5855 15.2402L14.6375 15.1863L14.6888 15.1319L14.7394 15.0771L14.7897 15.0216L14.8392 14.9659L14.8881 14.9096L14.9364 14.8529L14.9842 14.7957L15.0313 14.7382L15.0777 14.6802L15.1236 14.6217L15.1688 14.563L15.2135 14.5037L15.2574 14.4441L15.3008 14.384L15.3436 14.3235L15.3855 14.2628L15.427 14.2016L15.4677 14.1401L15.5078 14.0781L15.5473 14.0158L15.586 13.9533L15.6241 13.8903L15.6616 13.8269L15.6983 13.7634L15.7344 13.6994L15.7699 13.6351L15.8045 13.5706L15.8386 13.5057L15.872 13.4405L15.9046 13.3752L15.9366 13.3094L15.968 13.2433L15.9985 13.1771L16.0284 13.1106L16.0576 13.0438L16.0861 12.9768L16.1139 12.9095L16.141 12.842L16.1674 12.7744L16.1931 12.7063L16.218 12.6383L16.2423 12.5699L16.2658 12.5013L16.2886 12.4326L16.3107 12.3638L16.3321 12.2946L16.3527 12.2254L16.3726 12.156L16.3918 12.0865L16.4103 12.0167L16.428 11.9469L16.4451 11.8769L16.4614 11.8068L16.477 11.7366L16.4918 11.6662L16.5059 11.5959L16.5193 11.5252L16.5319 11.4548L16.5439 11.384L16.555 11.3133L16.5655 11.2425L16.5752 11.1715L16.5842 11.1007L16.5925 11.0296L16.6 10.9587L16.6068 10.8876L16.6128 10.8166L16.6181 10.7454L16.6227 10.6745L16.6266 10.6033L16.6297 10.5321L16.6321 10.4611L16.6338 10.3902L16.6347 10.3191L16.635 10.2481L16.6345 10.1771L16.6332 10.1063L16.6312 10.0354L16.6285 9.96478L16.6251 9.89391L16.621 9.82335L16.6161 9.7528L16.6105 9.68247L16.6042 9.61201L16.5973 9.54186L16.5895 9.47168L16.5811 9.40172L16.5719 9.33181L16.5621 9.26212L16.5514 9.1924L16.5402 9.12299L16.5282 9.05381L16.5155 8.98459L16.5021 8.9156L16.488 8.84688L16.4732 8.77812L16.4578 8.70987L16.4416 8.64152L16.4248 8.57363L16.4072 8.50565L16.3889 8.43818L16.37 8.37079L16.3505 8.30355L16.3302 8.23672L16.3093 8.17012L16.2876 8.10357L16.2654 8.03752L16.2424 7.97151L16.2189 7.90593L16.1946 7.84048L16.1697 7.77549L16.1441 7.71059L16.1179 7.64606L16.091 7.58194L16.0636 7.5181L16.0353 7.45435L16.0067 7.3912L15.9772 7.3281L15.9472 7.26559L15.9166 7.20331L15.8853 7.14127L15.8534 7.07972L15.8209 7.01846L15.7878 6.95747L15.7542 6.89708L15.7198 6.83683L15.685 6.77708L15.6494 6.71761L15.6134 6.65874L15.5767 6.6L15.5395 6.54182L15.5017 6.48391L15.4633 6.42651L15.4244 6.36961L15.3849 6.31295L15.3448 6.25679L15.3043 6.20104L15.2631 6.1458L15.2214 6.09089L15.1792 6.03652L15.1365 5.98252L15.0932 5.92903L15.0494 5.876L15.0051 5.82338L14.9602 5.77127L14.9149 5.71962L14.8691 5.66847L14.8228 5.61778L14.7759 5.56751L14.7288 5.51793L14.6808 5.46862L14.6327 5.42001L14.584 5.37176L14.5349 5.32411L14.4851 5.27683L14.4351 5.23028L14.3845 5.1841L14.3335 5.13847L14.2823 5.09345L14.2305 5.04892L14.1781 5.00481L14.1254 4.96135L14.0724 4.91844L14.0189 4.87608L13.965 4.83422L13.9108 4.79306L13.856 4.75221L13.8011 4.71215L13.7456 4.6726L13.6898 4.63355L13.6337 4.59514L13.5771 4.55719L13.5204 4.52003L13.4631 4.48328L13.4056 4.44718L13.3476 4.41162L13.2895 4.37667L13.231 4.34235L13.1722 4.30869L13.1129 4.27543L13.0536 4.24296L12.9939 4.21099L12.9338 4.17967L12.8736 4.14899L12.813 4.11887L12.7521 4.08934L12.691 4.0605L12.6296 4.03221L12.5681 4.00462L12.5062 3.97757L12.4421 3.95034L12.3819 3.92546L12.3192 3.90025L12.2566 3.87583L12.1935 3.85187L12.1304 3.82869L12.067 3.80606L12.0035 3.78412L11.9397 3.76273L11.8759 3.74208L11.8117 3.72202L11.7475 3.70261L11.6832 3.68389L11.6186 3.66575L11.5538 3.64824L11.4891 3.63144L11.4242 3.61528L11.359 3.59971L11.2939 3.58485L11.2286 3.5706L11.1632 3.55703L11.0976 3.54408L11.0321 3.5318L10.9665 3.52017L10.9008 3.50921L10.8349 3.49886L10.7691 3.48919L10.7032 3.48017L10.6372 3.47179L10.5712 3.46408L10.5052 3.45702L10.4391 3.45061L10.373 3.44485L10.3069 3.43974L10.2407 3.43528L10.1747 3.43148L10.1087 3.42833L10.0424 3.42582L9.97647 3.42397L9.91042 3.42277L9.84442 3.42222L9.77832 3.42231L9.76508 3.42246L9.78591 5.18047L9.8234 5.18028L9.87165 5.18056L9.91989 5.1813L9.96819 5.18254L10.0165 5.18424L10.0649 5.18645L10.1132 5.18912L10.1616 5.19224L10.21 5.19588L10.2584 5.19997L10.3068 5.20457L10.3551 5.20963L10.4035 5.21519L10.4518 5.22122L10.5001 5.2277L10.5484 5.23474L10.5967 5.24219L10.6449 5.25015L10.6931 5.25861L10.7412 5.26754L10.7892 5.27696L10.8373 5.28685L10.8852 5.2972L10.9331 5.30806L10.9809 5.31942L11.0286 5.33124L11.0762 5.34352L11.1238 5.35631L11.1713 5.36955L11.2186 5.3833L11.2659 5.39752L11.3131 5.41219L11.3601 5.42737L11.407 5.44301L11.4538 5.45915L11.5005 5.47575L11.547 5.49282L11.5934 5.51034L11.6396 5.52837L11.6857 5.54686L11.7317 5.56581L11.7774 5.58527L11.8231 5.60514L11.8685 5.62551L11.9138 5.6463L11.9588 5.6676L12.0038 5.68935L12.0485 5.71157L12.093 5.73424L12.1373 5.75738L12.1815 5.78093L12.2254 5.80498L12.2691 5.82945L12.3125 5.85438L12.3558 5.87977L12.3989 5.90562L12.4416 5.93188L12.4842 5.95861L12.5265 5.98579L12.5686 6.01338L12.6104 6.0414L12.652 6.06987L12.6933 6.0988L12.7343 6.1281L12.7751 6.15785L12.8155 6.18807L12.8558 6.21866L12.8957 6.24971L12.9353 6.28117L12.9746 6.31299L13.0137 6.34528L13.0524 6.37799L13.0909 6.41105L13.129 6.44454L13.1668 6.47844L13.2043 6.51275L13.2414 6.54743L13.2782 6.58252L13.3147 6.61798L13.3509 6.65386L13.3867 6.6901L13.4222 6.72676L13.4573 6.76374L13.492 6.80114L13.5264 6.8389L13.5605 6.87703L13.5941 6.91548L13.6274 6.95434L13.6604 6.99353L13.6929 7.03309L13.7251 7.07301L13.7569 7.11326L13.7882 7.15387L13.8192 7.1948L13.8498 7.23611L13.88 7.27769L13.9098 7.31963L13.9391 7.3619L13.9681 7.40449L13.9966 7.44741L14.0247 7.4906L14.0524 7.53415L14.0797 7.57798L14.1066 7.62209L14.133 7.66652L14.1589 7.71128L14.1844 7.75626L14.2095 7.80157L14.2341 7.84715L14.2583 7.893L14.282 7.93913L14.3053 7.98554L14.3281 8.03223L14.3504 8.07914L14.3723 8.12629L14.3937 8.17375L14.4146 8.2214L14.4351 8.26933L14.455 8.31749L14.4745 8.36587L14.4935 8.41449L14.512 8.46329L14.53 8.51237L14.5476 8.56163L14.5646 8.61112L14.5812 8.66079L14.5972 8.71069L14.6127 8.76074L14.6278 8.81101L14.6423 8.86147L14.6563 8.91211L14.6698 8.96293L14.6828 9.01389L14.6953 9.06504L14.7072 9.11632L14.7187 9.16779L14.7296 9.2194L14.74 9.27114L14.7498 9.32302L14.7592 9.37509L14.768 9.42725L14.7763 9.4795L14.784 9.53193L14.7912 9.58441L14.7979 9.63703L14.8041 9.68978L14.8096 9.74263L14.8147 9.79552L14.8192 9.84856L14.8232 9.90163L14.8266 9.9548L14.8295 10.008L14.8318 10.0613L14.8336 10.1147L14.8349 10.1681L14.8356 10.2216L14.8357 10.2752L14.8353 10.3287L14.8343 10.3823L14.8328 10.4359L14.8307 10.4896L14.8281 10.5432L14.8249 10.5969L14.8212 10.6506L14.8169 10.7043L14.8121 10.758L14.8067 10.8116L14.8007 10.8653L14.7942 10.9189L14.7871 10.9725L14.7795 11.0261L14.7713 11.0796L14.7626 11.1331L14.7533 11.1866L14.7434 11.24L14.733 11.2933L14.722 11.3466L14.7105 11.3998L14.6984 11.4529L14.6858 11.506L14.6726 11.5589L14.6588 11.6118L14.6445 11.6646L14.6297 11.7172L14.6142 11.7698L14.5983 11.8222L14.5818 11.8745L14.5647 11.9267L14.547 11.9788L14.5289 12.0307L14.5102 12.0825L14.4909 12.1341L14.4711 12.1855L14.4508 12.2369L14.4299 12.288L14.4085 12.339L14.3865 12.3898L14.364 12.4404L14.3409 12.4909L14.3173 12.5411L14.2932 12.5912L14.2686 12.641L14.2434 12.6907L14.2177 12.7401L14.1915 12.7893L14.1647 12.8383L14.1374 12.887L14.1096 12.9355L14.0813 12.9838L14.0525 13.0318L14.0231 13.0796L13.9933 13.1271L13.9629 13.1744L13.932 13.2214L13.9006 13.2681L13.8687 13.3145L13.8363 13.3607L13.8035 13.4066L13.7701 13.4521L13.7362 13.4974L13.7018 13.5424L13.667 13.5871L13.6317 13.6314L13.5958 13.6755L13.5595 13.7192L13.5228 13.7626L13.4855 13.8057L13.4478 13.8484L13.4096 13.8907L13.371 13.9328L13.3319 13.9745L13.2924 14.0158L13.2524 14.0567L13.212 14.0974L13.171 14.1376L13.1297 14.1774L13.0879 14.2169L13.0457 14.2559L13.0031 14.2947L12.96 14.3329L12.9165 14.3708L12.8726 14.4084L12.8283 14.4454L12.7836 14.4821L12.7384 14.5184L12.6929 14.5542L12.6469 14.5896L12.6006 14.6246L12.5539 14.6592L12.5067 14.6933L12.4593 14.727L12.4114 14.7602L12.3631 14.793L12.3145 14.8254L12.2655 14.8572L12.2161 14.8886L12.1665 14.9196L12.1164 14.9501L12.066 14.9801L12.0152 15.0096L11.9642 15.0386L11.9127 15.0672L11.861 15.0953L11.8089 15.1229L11.7566 15.15L11.7038 15.1766L11.6509 15.2027L11.5975 15.2283L11.5439 15.2533L11.49 15.2779L11.4358 15.302L11.3814 15.3255L11.3266 15.3485L11.2716 15.371L11.2163 15.393L11.1607 15.4144L11.1049 15.4353L11.0489 15.4557L10.9926 15.4755L10.936 15.4948L10.8792 15.5136L10.8222 15.5317L10.765 15.5494L10.7076 15.5665L10.6499 15.583L10.592 15.599L10.5339 15.6144L10.4756 15.6293L10.4172 15.6436L10.3585 15.6574L10.2997 15.6705L10.2407 15.6831L10.1815 15.6951L10.1222 15.7066L10.0627 15.7175L10.0031 15.7278L9.94326 15.7375L9.88337 15.7466L9.82331 15.7551L9.7631 15.7631L9.7028 15.7705L9.64241 15.7773L9.58188 15.7835L9.52126 15.7891L9.46055 15.7941L9.39974 15.7985L9.33884 15.8023L9.27785 15.8056L9.21682 15.8082L9.15569 15.8102L9.09452 15.8116L9.0333 15.8125L8.97199 15.8127L8.91068 15.8123L8.84937 15.8113L8.78797 15.8097L8.72656 15.8075L8.66516 15.8047L8.60371 15.8013L8.54231 15.7973L8.48086 15.7927L8.41946 15.7875L8.35805 15.7816L8.29665 15.7752L8.23529 15.7682L8.17398 15.7605L8.11267 15.7522L8.05145 15.7434L7.99028 15.7339L7.92915 15.7238L7.86807 15.7131L7.80708 15.7018L7.74619 15.6899L7.68538 15.6774L7.62462 15.6643L7.564 15.6506L7.50347 15.6362L7.44304 15.6213L7.38274 15.6057L7.32253 15.5896L7.26246 15.5728L7.20258 15.5555L7.14278 15.5375L7.08313 15.519L7.02366 15.4998L6.96437 15.4801L6.90518 15.4598L6.84621 15.4388L6.78743 15.4173L6.72879 15.3952L6.67037 15.3725L6.61214 15.3492L6.5541 15.3253L6.49628 15.3008L6.4387 15.2758L6.38134 15.2501L6.32417 15.2239L6.26728 15.1971L6.21061 15.1698L6.15417 15.1418L6.09797 15.1133L6.04209 15.0842L5.98643 15.0546L5.93105 15.0243L5.87595 14.9936L5.82113 14.9622L5.76658 14.9303L5.71235 14.8978L5.6584 14.8648L5.60477 14.8313L5.55146 14.7972L5.49848 14.7625L5.44581 14.7273L5.39347 14.6916L5.34145 14.6553L5.2898 14.6185L5.23847 14.5812L5.18751 14.5433L5.13687 14.5049L5.08664 14.466L5.03678 14.4266L4.98729 14.3866L4.93817 14.3462L4.88941 14.3052L4.84107 14.2638L4.79315 14.2218L4.74559 14.1793L4.69844 14.1364L4.65176 14.0929L4.60544 14.049L4.55954 14.0046L4.5141 13.9597L4.46912 13.9143L4.42455 13.8685L4.38039 13.8222L4.3367 13.7754L4.29351 13.7282L4.25073 13.6806L4.20842 13.6324L4.16661 13.5839L4.12521 13.5349L4.08437 13.4854L4.04394 13.4355L4.00406 13.3853L3.96465 13.3345L3.92573 13.2834L3.88733 13.2318L3.84938 13.1799L3.81199 13.1275L3.77515 13.0748L3.73877 13.0216L3.70294 12.9681L3.66764 12.9141L3.63287 12.8598L3.59864 12.8051L3.56495 12.7501L3.53181 12.6947L3.49922 12.6389L3.46718 12.5828L3.43569 12.5263L3.40478 12.4695L3.37442 12.4123L3.34464 12.3548L3.31543 12.297L3.2868 12.2389L3.25874 12.1804L3.23128 12.1217L3.2044 12.0626L3.17811 12.0033L3.15241 11.9436L3.12732 11.8836L3.10282 11.8234L3.07894 11.7629L3.05565 11.7021L3.03298 11.6411L3.01092 11.5798L2.98949 11.5183L2.96867 11.4565L2.94847 11.3944L2.9289 11.3322L2.90996 11.2697L2.89165 11.207L2.87398 11.144L2.85693 11.0809L2.84054 11.0175L2.82478 10.954L2.80966 10.8902L2.7952 10.8263L2.78137 10.7622L2.76821 10.6979L2.75569 10.6335L2.74383 10.5689L2.73262 10.5041L2.72208 10.4392L2.7122 10.3742L2.70298 10.309L2.69442 10.2437L2.68653 10.1782L2.67931 10.1127L2.67276 10.0471L2.66688 9.9813L2.66167 9.91543L2.65713 9.84952L2.65327 9.78347L2.65009 9.71738L2.64758 9.65124L2.64575 9.58501L2.6446 9.51873L2.64414 9.45236L2.64435 9.38599L2.64524 9.31957L2.64683 9.25316L2.64908 9.18669L2.65203 9.12018L2.65567 9.05372L2.65998 8.98721L2.66498 8.92075L2.67067 8.85424L2.67704 8.78783L2.68411 8.72137L2.69185 8.65499L2.70029 8.58862L2.70941 8.5223L2.71922 8.45602L2.72971 8.38984L2.74089 8.3237L2.75276 8.25765L2.76531 8.19164L2.77855 8.12574L2.79246 8.05996L2.80707 7.99424L2.82236 7.92865L2.83833 7.86315L2.85498 7.79779L2.87231 7.73257L2.89033 7.66744L2.90902 7.6025L2.92839 7.53769L2.94844 7.47303L2.96916 7.40849L2.99056 7.34419L3.01263 7.28003L3.03537 7.21605L3.05878 7.15226L3.08286 7.08865L3.1076 7.02527L3.13302 6.96207L3.15909 6.8991L3.18583 6.83637L3.21322 6.77381L3.24128 6.71154L3.26998 6.64949L3.29935 6.58767L3.32936 6.52613L3.36002 6.46487L3.39133 6.40383L3.42328 6.34312L3.45588 6.28264L3.48911 6.22248L3.52298 6.16259L3.55748 6.10298L3.59262 6.04374L3.62838 5.98478L3.66477 5.92613L3.70179 5.86781L3.73941 5.80981L3.77768 5.75218L3.8165 5.69487L3.85601 5.63793L3.89607 5.58131L3.93673 5.52506L3.97803 5.46922L4.01989 5.41371L4.06238 5.35861L4.10544 5.30387L4.14908 5.24955L4.19329 5.19565L4.23808 5.14211L4.28348 5.08898L4.32943 5.03628L4.37593 4.98403L4.42303 4.93219L4.47063 4.88077L4.51884 4.82981L4.56759 4.77926L4.61685 4.72921L4.66666 4.67959L4.71703 4.63042L4.76794 4.58176L4.81936 4.53351L4.87129 4.48581L4.92377 4.43853L4.97676 4.3918L5.0302 4.34553L5.0842 4.29976L5.13871 4.2545L5.19367 4.20975L5.24914 4.1655L5.30511 4.12181L5.36155 4.07862L5.41844 4.03598L5.47585 3.99385L5.53366 3.95227L5.59194 3.91125L5.65072 3.87077L5.70991 3.83085L5.76952 3.79152L5.82964 3.7527L5.89012 3.71448L5.95106 3.67683L6.01242 3.63975L6.07419 3.60326L6.13633 3.56736L6.19893 3.53204L6.26189 3.49732L6.32523 3.46321L6.38898 3.4297L6.45309 3.39679L6.51758 3.3645L6.58243 3.33282L6.64765 3.30177L6.71324 3.27134L6.77915 3.24153L6.84543 3.21236L6.91203 3.18382L6.97895 3.15593L7.04619 3.12867L7.11372 3.10206L7.1816 3.0761L7.24977 3.0508L7.31825 3.02615L7.38702 3.00216L7.45605 2.97883L7.52537 2.95617L7.59491 2.93418L7.66478 2.91285L7.73487 2.89221L7.80524 2.87224L7.8758 2.85295L7.94663 2.83435L8.01769 2.81643L8.08899 2.7992L8.16046 2.78266L8.23217 2.76681L8.30406 2.75166L8.37613 2.73721L8.44843 2.72346L8.52087 2.71041L8.5935 2.69807L8.66631 2.68643L8.73926 2.6755L8.81234 2.66529L8.88557 2.65578L8.91289 2.65251ZM8.9438 5.25999L8.92273 3.48266L8.86271 3.49105L8.79818 3.50073L8.7336 3.51104L8.66944 3.52195L8.60518 3.53352L8.54125 3.54569L8.47746 3.55848L8.41389 3.57187L8.35046 3.58589L8.28718 3.60053L8.22407 3.61578L8.16124 3.63163L8.09846 3.64812L8.03816 3.66458L7.97391 3.68284L7.91186 3.7011L7.85009 3.71995L7.78864 3.73936L7.72733 3.75942L7.66625 3.78007L7.60544 3.80127L7.54496 3.82303L7.48471 3.84543L7.42473 3.86833L7.36498 3.89188L7.3057 3.91594L7.24641 3.94064L7.18758 3.96584L7.12903 3.9916L7.07089 4.01791L7.01289 4.04481L6.95522 4.07227L6.89805 4.10019L6.84097 4.12875L6.78449 4.15778L6.7281 4.18744L6.67226 4.21748L6.61651 4.24825L6.56132 4.27934L6.50649 4.31103L6.45194 4.34327L6.39781 4.37598L6.34395 4.40928L6.29064 4.44294L6.23756 4.47721L6.18499 4.51194L6.13279 4.54712L6.08095 4.58286L6.02944 4.6191L5.97852 4.65567L5.92788 4.69288L5.87766 4.7305L5.82789 4.76859L5.77858 4.80708L5.7296 4.84613L5.68117 4.88555L5.63315 4.92543L5.5855 4.96586L5.53844 5.00656L5.49171 5.04782L5.44544 5.08949L5.39968 5.13153L5.35442 5.17398L5.30948 5.21694L5.26519 5.26018L5.22131 5.30387L5.17785 5.34803L5.13493 5.3925L5.09248 5.43744L5.05053 5.4827L5.00909 5.52833L4.96811 5.57437L4.92759 5.62082L4.88776 5.66751L4.8483 5.71465L4.80934 5.76216L4.77093 5.80995L4.73308 5.85806L4.69564 5.90663L4.6588 5.95543L4.62246 6.0046L4.58668 6.05409L4.5514 6.1039L4.51672 6.15394L4.48255 6.20435L4.44888 6.25509L4.41576 6.3061L4.38324 6.35733L4.35128 6.40889L4.31982 6.46082L4.28891 6.51289L4.2586 6.56527L4.22879 6.61794L4.19963 6.67074L4.17098 6.72391L4.14283 6.77736L4.11537 6.83089L4.08842 6.8848L4.06206 6.93889L4.03626 6.99312L4.01105 7.04767L3.9864 7.10235L3.96235 7.15727L3.93884 7.21237L3.91598 7.26766L3.89368 7.32313L3.87192 7.37883L3.85076 7.43467L3.83025 7.49064L3.81024 7.54685L3.79092 7.6031L3.77211 7.65958L3.75394 7.7162L3.73633 7.77296L3.71936 7.82981L3.70294 7.88679L3.68716 7.94387L3.67194 8.00113L3.65733 8.05844L3.64333 8.11589L3.62992 8.17343L3.61712 8.23102L3.6049 8.28874L3.59331 8.34651L3.5823 8.40432L3.5719 8.46228L3.56211 8.52023L3.5529 8.57828L3.54431 8.63628L3.53632 8.69441L3.52893 8.75255L3.52214 8.81073L3.51595 8.86892L3.51037 8.92715L3.50539 8.98537L3.50101 9.04356L3.49723 9.10183L3.49405 9.16006L3.49147 9.21825L3.48949 9.27643L3.4881 9.33457L3.48732 9.3927L3.48713 9.45084L3.48754 9.50889L3.48855 9.56688L3.49015 9.62484L3.49234 9.6827L3.49513 9.74056L3.4985 9.79833L3.50247 9.85596L3.50703 9.91359L3.51217 9.97109L3.5179 10.0285L3.52421 10.0858L3.53111 10.143L3.53859 10.2001L3.54665 10.2571L3.55529 10.314L3.56451 10.3706L3.5743 10.4273L3.58467 10.4837L3.5956 10.54L3.60711 10.5962L3.61918 10.6522L3.63182 10.7081L3.64501 10.7637L3.65878 10.8192L3.6731 10.8745L3.68799 10.9297L3.7034 10.9846L3.7194 11.0394L3.73591 11.0939L3.75302 11.1483L3.77064 11.2025L3.78881 11.2564L3.80753 11.31L3.82675 11.3635L3.84653 11.4168L3.86686 11.4698L3.8877 11.5226L3.90904 11.5751L3.93093 11.6274L3.95333 11.6794L3.97628 11.7312L3.99969 11.7827L4.02366 11.8339L4.04813 11.8848L4.07306 11.9355L4.09854 11.9859L4.12448 12.036L4.15092 12.0858L4.17788 12.1353L4.20529 12.1845L4.23321 12.2334L4.26159 12.282L4.29047 12.3302L4.31982 12.3782L4.34962 12.4258L4.37989 12.4731L4.41066 12.5201L4.44179 12.5667L4.47348 12.613L4.50554 12.6589L4.53811 12.7045L4.57109 12.7497L4.60452 12.7945L4.63838 12.839L4.67269 12.8831L4.70737 12.9269L4.74251 12.9703L4.77806 13.0133L4.81403 13.0559L4.85041 13.0981L4.88721 13.14L4.92437 13.1814L4.96195 13.2224L4.99989 13.2631L5.03825 13.3033L5.07698 13.3431L5.11612 13.3826L5.15558 13.4216L5.19546 13.4601L5.23571 13.4983L5.27623 13.536L5.31721 13.5734L5.35847 13.6102L5.40009 13.6467L5.44209 13.6827L5.4844 13.7182L5.52704 13.7534L5.57 13.788L5.61328 13.8222L5.65688 13.856L5.70081 13.8893L5.74505 13.9222L5.78953 13.9545L5.83433 13.9865L5.87945 14.0179L5.92485 14.0489L5.97056 14.0795L6.01651 14.1095L6.06274 14.1391L6.10924 14.1682L6.15597 14.1968L6.20298 14.2249L6.25026 14.2526L6.29772 14.2797L6.34551 14.3064L6.39344 14.3326L6.44169 14.3583L6.49012 14.3835L6.53874 14.4081L6.58763 14.4324L6.63675 14.4561L6.68601 14.4793L6.73545 14.502L6.78518 14.5242L6.83499 14.5459L6.88503 14.567L6.93526 14.5877L6.98567 14.6079L7.03617 14.6275L7.0869 14.6466L7.13777 14.6653L7.18878 14.6834L7.23992 14.7009L7.29125 14.7181L7.34268 14.7346L7.39424 14.7506L7.44593 14.7661L7.49772 14.7811L7.54961 14.7956L7.60163 14.8095L7.65374 14.823L7.70594 14.8359L7.75824 14.8483L7.81063 14.8601L7.86311 14.8715L7.91563 14.8823L7.9682 14.8926L8.02091 14.9023L8.07358 14.9116L8.12638 14.9203L8.17918 14.9284L8.23203 14.9361L8.28492 14.9432L8.33782 14.9499L8.39076 14.9559L8.4437 14.9615L8.49668 14.9665L8.54967 14.971L8.60265 14.975L8.65564 14.9785L8.70858 14.9814L8.76152 14.9838L8.8145 14.9857L8.8674 14.9871L8.92025 14.9879L8.97309 14.9882L9.0259 14.988L9.07865 14.9873L9.13136 14.9861L9.18398 14.9844L9.2366 14.9821L9.28908 14.9793L9.34151 14.976L9.39385 14.9722L9.44615 14.9679L9.49831 14.9631L9.55042 14.9577L9.60244 14.9519L9.65432 14.9455L9.70611 14.9387L9.75776 14.9314L9.80932 14.9235L9.86074 14.9151L9.91198 14.9063L9.96317 14.8969L10.0142 14.8871L10.0651 14.8768L10.1158 14.8659L10.1663 14.8546L10.2167 14.8428L10.267 14.8305L10.3171 14.8178L10.367 14.8045L10.4167 14.7908L10.4662 14.7766L10.5156 14.7619L10.5647 14.7468L10.6136 14.7311L10.6624 14.715L10.711 14.6985L10.7593 14.6814L10.8074 14.664L10.8553 14.646L10.9029 14.6276L10.9504 14.6088L10.9976 14.5895L11.0446 14.5697L11.0912 14.5495L11.1377 14.5289L11.1839 14.5079L11.2299 14.4863L11.2756 14.4644L11.321 14.4421L11.3662 14.4192L11.4111 14.396L11.4557 14.3724L11.5 14.3484L11.5441 14.3239L11.5878 14.299L11.6313 14.2737L11.6745 14.248L11.7173 14.2219L11.7598 14.1954L11.8021 14.1685L11.844 14.1413L11.8856 14.1136L11.927 14.0855L11.9679 14.0571L12.0085 14.0283L12.0488 13.9991L12.0888 13.9696L12.1284 13.9396L12.1677 13.9093L12.2066 13.8787L12.2452 13.8477L12.2835 13.8163L12.3213 13.7847L12.3589 13.7525L12.396 13.7202L12.4328 13.6875L12.4693 13.6544L12.5053 13.6211L12.5409 13.5874L12.5763 13.5533L12.6111 13.519L12.6457 13.4843L12.6798 13.4494L12.7136 13.4141L12.7469 13.3786L12.7799 13.3427L12.8125 13.3065L12.8446 13.2701L12.8764 13.2333L12.9078 13.1964L12.9387 13.1591L12.9692 13.1215L12.9993 13.0838L13.029 13.0456L13.0583 13.0073L13.0872 12.9687L13.1156 12.9299L13.1436 12.8909L13.1713 12.8515L13.1984 12.8119L13.2251 12.7722L13.2515 12.7321L13.2772 12.6919L13.3027 12.6515L13.3277 12.6108L13.3522 12.5699L13.3763 12.5288L13.4 12.4875L13.4232 12.4461L13.446 12.4044L13.4683 12.3626L13.4901 12.3206L13.5116 12.2783L13.5325 12.236L13.553 12.1934L13.573 12.1508L13.5927 12.1078L13.6117 12.0649L13.6304 12.0216L13.6486 11.9784L13.6663 11.935L13.6836 11.8914L13.7005 11.8476L13.7168 11.8039L13.7327 11.7599L13.7481 11.7158L13.763 11.6716L13.7775 11.6274L13.7915 11.5829L13.8051 11.5384L13.8182 11.4939L13.8308 11.4492L13.8429 11.4045L13.8546 11.3597L13.8657 11.3148L13.8764 11.2699L13.8867 11.2248L13.8965 11.1797L13.9058 11.1346L13.9146 11.0894L13.9229 11.0442L13.9308 10.9988L13.9382 10.9536L13.9452 10.9083L13.9516 10.8629L13.9576 10.8176L13.9631 10.7722L13.9682 10.7266L13.9727 10.6814L13.9769 10.6358L13.9805 10.5904L13.9836 10.5451L13.9863 10.4997L13.9885 10.4544L13.9903 10.409L13.9916 10.3636L13.9924 10.3184L13.9927 10.2731L13.9926 10.2279L13.992 10.1827L13.991 10.1376L13.9895 10.0925L13.9875 10.0475L13.985 10.0026L13.9821 9.95765L13.9788 9.91281L13.975 9.8682L13.9707 9.82344L13.966 9.77897L13.9608 9.7344L13.9552 9.69006L13.9491 9.64577L13.9426 9.60152L13.9356 9.55746L13.9282 9.51353L13.9203 9.4697L13.912 9.426L13.9032 9.38226L13.894 9.33884L13.8844 9.29556L13.8743 9.25233L13.8638 9.20918L13.8529 9.16641L13.8415 9.1235L13.8297 9.08095L13.8175 9.03845L13.8048 8.99623L13.7918 8.95405L13.7782 8.91206L13.7644 8.87034L13.7501 8.82876L13.7352 8.78723L13.7202 8.74606L13.7046 8.70499L13.6886 8.66419L13.6722 8.62349L13.6554 8.58297L13.6383 8.54281L13.6207 8.50271L13.6027 8.46292L13.5844 8.42337L13.5656 8.3839L13.5464 8.34467L13.527 8.3058L13.507 8.26703L13.4868 8.22863L13.4661 8.19045L13.4451 8.15232L13.4237 8.11465L13.4019 8.07712L13.3798 8.03991L13.3573 8.00284L13.3345 7.96618L13.3112 7.92961L13.2877 7.89346L13.2638 7.85754L13.2396 7.82189L13.2149 7.78643L13.19 7.75134L13.1648 7.71657L13.1391 7.68193L13.1132 7.64771L13.0869 7.61372L13.0604 7.5801L13.0335 7.54666L13.0062 7.51359L12.9787 7.4808L12.9508 7.44828L12.9227 7.41618L12.8942 7.38426L12.8655 7.35275L12.8365 7.32147L12.8072 7.29066L12.7775 7.25998L12.7476 7.22976L12.7174 7.19973L12.6869 7.17015L12.6563 7.1409L12.6253 7.11192L12.5939 7.08327L12.5624 7.05503L12.5306 7.02711L12.4984 6.99942L12.4663 6.97228L12.4337 6.94528L12.4009 6.91874L12.3679 6.89257L12.3346 6.86663L12.3011 6.84115L12.2675 6.81608L12.2334 6.79125L12.1992 6.76673L12.1649 6.74277L12.1302 6.71899L12.0955 6.69576L12.0605 6.67276L12.0253 6.65014L11.9898 6.62787L11.9543 6.60607L11.9184 6.58455L11.8825 6.56348L11.8462 6.54269L11.81 6.52241L11.7735 6.50245L11.7368 6.48281L11.7 6.46358L11.663 6.44482L11.6259 6.42632L11.5885 6.40825L11.5511 6.39059L11.5137 6.37334L11.4758 6.35637L11.438 6.3399L11.4 6.3238L11.3619 6.30803L11.3236 6.29271L11.2854 6.27781L11.2469 6.26327L11.2083 6.24906L11.1697 6.23536L11.1308 6.22197L11.0919 6.209L11.0531 6.19644L11.014 6.1843L10.975 6.17253L10.9356 6.16112L10.8964 6.15017L10.857 6.13959L10.8176 6.12943L10.7782 6.11963L10.7385 6.11025L10.699 6.10128L10.6594 6.09273L10.6197 6.08454L10.5798 6.07672L10.5402 6.06941L10.5003 6.06242L10.4606 6.05584L10.4206 6.04963L10.3809 6.04388L10.3408 6.03845L10.301 6.03353L10.2611 6.02893L10.2212 6.02475L10.1813 6.02097L10.1413 6.01757L10.1015 6.01458L10.0615 6.01201L10.0217 6.0098L9.98194 6.008L9.94193 6.00658L9.90223 6.00557L9.86249 6.00497L9.8228 6.00474L9.79566 6.00483L9.81622 7.74131L9.8285 7.74136L9.85132 7.74168L9.87418 7.74223L9.89708 7.74297L9.91999 7.74403L9.94294 7.74527L9.96589 7.74674L9.98889 7.74849L10.0119 7.75046L10.0349 7.75267L10.058 7.75511L10.081 7.75778L10.1041 7.76072L10.1271 7.76389L10.1502 7.7673L10.1733 7.77098L10.1964 7.77489L10.2195 7.77903L10.2425 7.78344L10.2656 7.78804L10.2886 7.79296L10.3117 7.79807L10.3347 7.80345L10.3577 7.80906L10.3807 7.8149L10.4036 7.82102L10.4265 7.82737L10.4494 7.83395L10.4723 7.8408L10.4951 7.84788L10.5179 7.85524L10.5406 7.86283L10.5633 7.87065L10.586 7.8787L10.6086 7.88702L10.6311 7.89558L10.6536 7.90436L10.676 7.91342L10.6984 7.92271L10.7207 7.93224L10.743 7.94203L10.7651 7.95206L10.7873 7.96232L10.8093 7.97285L10.8312 7.98357L10.8531 7.99456L10.8749 8.00583L10.8966 8.01728L10.9182 8.02901L10.9397 8.04097L10.9612 8.05315L10.9825 8.06557L11.0037 8.07822L11.0249 8.09115L11.0459 8.1043L11.0668 8.11769L11.0876 8.13125L11.1083 8.1451L11.1289 8.15922L11.1494 8.17352L11.1697 8.18806L11.1899 8.20282L11.21 8.21782L11.23 8.23304L11.2498 8.24849L11.2696 8.26418L11.2891 8.28009L11.3085 8.29619L11.3278 8.31257L11.347 8.32912L11.366 8.34591L11.3848 8.36293L11.4035 8.38018L11.422 8.39761L11.4404 8.41527L11.4586 8.43316L11.4767 8.45124L11.4946 8.46954L11.5123 8.48803L11.5298 8.50675L11.5472 8.5257L11.5644 8.54484L11.5815 8.56416L11.5983 8.5837L11.615 8.60343L11.6315 8.62335L11.6478 8.6435L11.6639 8.66383L11.6798 8.68434L11.6955 8.70508L11.7111 8.72597L11.7264 8.74708L11.7415 8.76833L11.7564 8.78981L11.7711 8.81147L11.7856 8.83332L11.7999 8.8553L11.814 8.87752L11.8279 8.89987L11.8415 8.92241L11.855 8.94513L11.8682 8.96799L11.8812 8.99103L11.8939 9.01426L11.9065 9.03762L11.9188 9.06117L11.9309 9.08486L11.9427 9.10869L11.9543 9.1327L11.9657 9.15689L11.9768 9.18117L11.9877 9.20564L11.9984 9.23025L12.0088 9.255L12.019 9.27988L12.0288 9.3049L12.0385 9.33006L12.0479 9.35536L12.0571 9.38079L12.066 9.40636L12.0746 9.43203L12.083 9.45783L12.0911 9.48377L12.0989 9.50981L12.1065 9.53598L12.1138 9.56229L12.1209 9.58864L12.1277 9.61513L12.1342 9.64176L12.1405 9.66849L12.1464 9.69526L12.1522 9.72221L12.1576 9.74921L12.1627 9.77625L12.1676 9.80348L12.1722 9.83076L12.1765 9.85808L12.1805 9.88554L12.1842 9.91304L12.1877 9.94064L12.1908 9.96833L12.1937 9.99606L12.1963 10.0238L12.1986 10.0517L12.2006 10.0797L12.2023 10.1076L12.2038 10.1357L12.2049 10.1638L12.2057 10.192L12.2062 10.2201L12.2065 10.2484L12.2064 10.2766L12.2061 10.305L12.2055 10.3333L12.2045 10.3617L12.2033 10.3901L12.2017 10.4186L12.1998 10.447L12.1977 10.4755L12.1952 10.504L12.1924 10.5325L12.1894 10.5611L12.186 10.5896L12.1823 10.6181L12.1784 10.6467L12.1741 10.6752L12.1695 10.7037L12.1646 10.7323L12.1594 10.7608L12.1539 10.7893L12.1481 10.8178L12.1419 10.8462L12.1355 10.8747L12.1287 10.9031L12.1217 10.9315L12.1143 10.9598L12.1067 10.9881L12.0987 11.0164L12.0904 11.0446L12.0818 11.0728L12.0729 11.1009L12.0637 11.129L12.0542 11.1571L12.0444 11.185L12.0342 11.2129L12.0238 11.2408L12.0131 11.2685L12.002 11.2962L11.9907 11.3238L11.979 11.3514L11.9671 11.3788L11.9548 11.4063L11.9422 11.4335L11.9294 11.4607L11.9162 11.4879L11.9027 11.5148L11.8889 11.5418L11.8749 11.5686L11.8605 11.5952L11.8458 11.6218L11.8308 11.6483L11.8156 11.6747L11.8 11.7009L11.7841 11.727L11.768 11.7531L11.7515 11.7789L11.7348 11.8046L11.7177 11.8302L11.7004 11.8557L11.6828 11.881L11.6649 11.9062L11.6467 11.9312L11.6283 11.9561L11.6095 11.9808L11.5905 12.0053L11.5711 12.0298L11.5516 12.054L11.5317 12.0781L11.5115 12.102L11.4911 12.1257L11.4704 12.1493L11.4494 12.1726L11.4282 12.1958L11.4066 12.2188L11.3849 12.2417L11.3628 12.2643L11.3405 12.2868L11.3179 12.309L11.2951 12.3311L11.272 12.3529L11.2486 12.3745L11.225 12.396L11.2011 12.4172L11.177 12.4382L11.1526 12.459L11.128 12.4796L11.1032 12.5L11.078 12.5201L11.0527 12.54L11.0271 12.5597L11.0013 12.5791L10.9752 12.5983L10.949 12.6173L10.9224 12.636L10.8957 12.6546L10.8687 12.6728L10.8415 12.6908L10.8141 12.7085L10.7865 12.726L10.7586 12.7433L10.7305 12.7602L10.7023 12.7769L10.6738 12.7934L10.6451 12.8096L10.6162 12.8255L10.5871 12.8412L10.5578 12.8566L10.5283 12.8717L10.4986 12.8865L10.4687 12.9011L10.4387 12.9153L10.4084 12.9293L10.378 12.943L10.3474 12.9564L10.3166 12.9696L10.2856 12.9824L10.2545 12.9949L10.2232 13.0071L10.1917 13.0191L10.1601 13.0307L10.1283 13.0421L10.0964 13.0531L10.0643 13.0639L10.032 13.0743L9.99965 13.0844L9.96713 13.0942L9.93443 13.1037L9.90163 13.1128L9.8687 13.1217L9.83563 13.1302L9.80242 13.1385L9.76908 13.1463L9.73564 13.1539L9.70206 13.1611L9.6684 13.1681L9.63459 13.1747L9.60069 13.1809L9.5667 13.1868L9.53257 13.1925L9.4984 13.1977L9.46409 13.2026L9.42973 13.2072L9.39523 13.2115L9.36069 13.2154L9.32606 13.219L9.29133 13.2222L9.25656 13.2251L9.22169 13.2276L9.18674 13.2298L9.15178 13.2317L9.11674 13.2332L9.08164 13.2344L9.04646 13.2351L9.01127 13.2356L8.97604 13.2357L8.94076 13.2355L8.90544 13.2349L8.87007 13.2339L8.8347 13.2327L8.79928 13.231L8.76382 13.229L8.72836 13.2266L8.69289 13.2239L8.65743 13.2208L8.62193 13.2174L8.58646 13.2136L8.55096 13.2094L8.51549 13.2049L8.47999 13.2L8.44452 13.1948L8.40906 13.1892L8.37365 13.1833L8.33823 13.177L8.30286 13.1703L8.26749 13.1633L8.23217 13.1559L8.19689 13.1482L8.16166 13.1401L8.12647 13.1316L8.09129 13.1228L8.05619 13.1136L8.02119 13.1041L7.98619 13.0942L7.95132 13.0839L7.91646 13.0733L7.88169 13.0623L7.84701 13.051L7.81237 13.0393L7.77788 13.0272L7.74343 13.0148L7.70907 13.002L7.67485 12.9889L7.64068 12.9755L7.60664 12.9616L7.5727 12.9474L7.53889 12.9329L7.50518 12.918L7.47155 12.9028L7.43811 12.8872L7.40472 12.8712L7.37151 12.8549L7.33844 12.8383L7.30551 12.8213L7.27272 12.804L7.24006 12.7863L7.20754 12.7683L7.17521 12.7499L7.14297 12.7312L7.11096 12.7122L7.07908 12.6928L7.04739 12.6731L7.01584 12.653L6.98447 12.6327L6.95329 12.6119L6.92229 12.5908L6.89151 12.5695L6.86088 12.5478L6.83043 12.5257L6.80022 12.5033L6.77018 12.4806L6.74038 12.4576L6.71076 12.4343L6.68137 12.4106L6.65216 12.3867L6.62318 12.3624L6.59444 12.3378L6.56592 12.3129L6.53763 12.2877L6.50958 12.2621L6.48175 12.2363L6.45415 12.2102L6.42683 12.1837L6.39969 12.157L6.37288 12.1299L6.34629 12.1026L6.31994 12.075L6.29386 12.0471L6.26806 12.0189L6.24253 11.9904L6.21723 11.9616L6.19226 11.9326L6.16751 11.9033L6.14304 11.8737L6.1189 11.8438L6.09503 11.8136L6.07143 11.7832L6.04811 11.7526L6.02511 11.7216L6.00244 11.6904L5.98004 11.659L5.95792 11.6272L5.93611 11.5952L5.91463 11.5631L5.89348 11.5306L5.87264 11.4979L5.85208 11.4649L5.83189 11.4318L5.81197 11.3983L5.79243 11.3647L5.7732 11.3308L5.7543 11.2967L5.73572 11.2624L5.7175 11.2279L5.69961 11.1931L5.68204 11.1582L5.66484 11.123L5.648 11.0876L5.63149 11.0521L5.61535 11.0163L5.59957 10.9803L5.58412 10.9441L5.56903 10.9078L5.55431 10.8712L5.53996 10.8345L5.52598 10.7976L5.51241 10.7605L5.49917 10.7232L5.48629 10.6858L5.47378 10.6483L5.46168 10.6105L5.44995 10.5726L5.43859 10.5346L5.4276 10.4963L5.41702 10.458L5.40685 10.4195L5.39701 10.3809L5.38763 10.3421L5.37861 10.3032L5.36997 10.2642L5.36173 10.225L5.35391 10.1857L5.34646 10.1464L5.33943 10.1069L5.3328 10.0673L5.32659 10.0276L5.32075 9.98774L5.31532 9.94786L5.31036 9.90784L5.30576 9.86778L5.30157 9.82758L5.2978 9.78734L5.29444 9.747L5.2915 9.70662L5.28897 9.66614L5.28685 9.62562L5.28515 9.58505L5.28386 9.54439L5.28304 9.50369L5.28262 9.46298L5.28258 9.42219L5.28299 9.38134L5.28386 9.3405L5.28511 9.29961L5.28681 9.25867L5.28892 9.21774L5.29145 9.1768L5.2944 9.13582L5.2978 9.09484L5.30162 9.05386L5.30585 9.01288L5.31054 8.9719L5.31565 8.93092L5.32117 8.88998L5.32715 8.84905L5.33354 8.80811L5.34039 8.76722L5.34761 8.72633L5.35529 8.68549L5.36343 8.64469L5.37199 8.60394L5.38096 8.56324L5.39034 8.52258L5.40018 8.48201L5.41044 8.44144L5.42116 8.40097L5.43229 8.36058L5.44383 8.32025L5.45579 8.27995L5.46821 8.2398L5.48104 8.19969L5.49429 8.15968L5.508 8.1198L5.52212 8.07997L5.53665 8.04028L5.5516 8.00068L5.56701 7.96121L5.58283 7.92184L5.59907 7.88256L5.61572 7.84347L5.63278 7.80446L5.6503 7.7656L5.6682 7.72687L5.68655 7.68828L5.70527 7.64987L5.72445 7.61156L5.74399 7.57343L5.764 7.53549L5.78438 7.49768L5.80521 7.46005L5.82642 7.42257L5.84803 7.38527L5.87007 7.3482L5.89251 7.31126L5.91532 7.27451L5.9386 7.23799L5.96224 7.20161L5.98625 7.16546L6.01067 7.12954L6.03551 7.0938L6.06071 7.05829L6.08633 7.02301L6.11232 6.98792L6.13867 6.95306L6.16544 6.91847L6.19258 6.88406L6.22013 6.84994L6.24805 6.81599L6.27629 6.78237L6.30495 6.74893L6.33397 6.71577L6.36336 6.68288L6.39312 6.65023L6.42324 6.61789L6.45374 6.58579L6.4846 6.55396L6.51579 6.52241L6.54734 6.49113L6.57926 6.46013L6.6115 6.42945L6.64411 6.39905L6.67704 6.36892L6.7103 6.33912L6.74392 6.30959L6.77791 6.28043L6.81217 6.2515L6.84681 6.22294L6.88172 6.1947L6.917 6.16673L6.95255 6.13913L6.98847 6.11186L7.02467 6.08491L7.06119 6.05828L7.09803 6.03201L7.13515 6.00607L7.17259 5.98045L7.21035 5.9552L7.24834 5.93032L7.28665 5.9058L7.32529 5.88161L7.36416 5.85779L7.40334 5.83433L7.44276 5.81124L7.4825 5.78852L7.52247 5.76616L7.56271 5.74418L7.60324 5.72261L7.64399 5.7014L7.68501 5.68057L7.72627 5.66015L7.7678 5.64009L7.80957 5.62045L7.85156 5.60118L7.89378 5.58232L7.93624 5.56388L7.97897 5.5458L8.02188 5.52814L8.06498 5.51094L8.10835 5.49411L8.15191 5.47769L8.19565 5.46168L8.23962 5.44613L8.28382 5.43095L8.32816 5.41624L8.37273 5.40193L8.41743 5.38804L8.46237 5.37461L8.50744 5.3616L8.5527 5.34904L8.59815 5.3369L8.64373 5.32517L8.68949 5.3139L8.73539 5.30309L8.78148 5.29274L8.82766 5.28281L8.87402 5.27333L8.92048 5.26432L8.9438 5.25999ZM9.515 8.59934L8.98487 8.72601L8.95373 6.09995L8.92875 6.10556L8.89113 6.11444L8.85355 6.12368L8.81625 6.13325L8.779 6.14318L8.74197 6.15348L8.70495 6.1642L8.66829 6.17515L8.63154 6.18655L8.59525 6.19819L8.55887 6.21029L8.52271 6.22271L8.48675 6.23545L8.45092 6.24851L8.41541 6.26189L8.37995 6.27569L8.34467 6.28977L8.30962 6.30416L8.27462 6.31897L8.24008 6.33397L8.20554 6.34942L8.17132 6.36511L8.13714 6.3812L8.10329 6.39753L8.06953 6.41423L8.03614 6.4312L8.00288 6.44849L7.96986 6.46611L7.93707 6.484L7.90445 6.50222L7.87207 6.52075L7.84006 6.53952L7.808 6.5587L7.77636 6.57806L7.74499 6.59775L7.71381 6.61771L7.68281 6.63799L7.65213 6.65855L7.62168 6.67939L7.59146 6.70045L7.56156 6.72179L7.53181 6.74346L7.50237 6.7654L7.47321 6.78757L7.44428 6.81001L7.41567 6.83264L7.38734 6.85559L7.35919 6.87882L7.33132 6.90232L7.30381 6.92597L7.27654 6.94993L7.24954 6.97408L7.22281 6.9985L7.19637 7.0232L7.17024 7.04808L7.14439 7.07315L7.11877 7.09854L7.09352 7.12406L7.06855 7.14987L7.0439 7.17581L7.01943 7.20212L6.99537 7.22847L6.97159 7.2551L6.94809 7.28196L6.92495 7.30892L6.90205 7.33619L6.87956 7.36351L6.85725 7.3912L6.83536 7.41893L6.81369 7.44695L6.7924 7.47514L6.77142 7.50343L6.75073 7.5319L6.7304 7.56055L6.71034 7.58944L6.69061 7.61841L6.67125 7.64762L6.6522 7.67687L6.63348 7.70631L6.61504 7.73598L6.59701 7.76569L6.57921 7.79568L6.56183 7.82562L6.54471 7.85584L6.52793 7.88615L6.51155 7.91655L6.49545 7.94709L6.47972 7.97777L6.46427 8.00863L6.44923 8.03945L6.43447 8.07054L6.42007 8.10163L6.40604 8.13286L6.39229 8.16419L6.3789 8.19565L6.36589 8.22711L6.35319 8.25875L6.34087 8.29044L6.32882 8.32222L6.31718 8.35401L6.30587 8.38597L6.29487 8.41798L6.28425 8.45004L6.27394 8.48215L6.26401 8.51439L6.2544 8.54663L6.2452 8.57887L6.23628 8.61125L6.22767 8.64368L6.21949 8.67611L6.21162 8.70858L6.20408 8.7411L6.1969 8.77366L6.1901 8.80627L6.18361 8.83884L6.17745 8.87145L6.17165 8.90415L6.16623 8.93676L6.16112 8.96941L6.15634 9.00216L6.15192 9.03477L6.14787 9.06752L6.14415 9.10013L6.14074 9.13283L6.13771 9.16558L6.13499 9.19819L6.13265 9.23085L6.13063 9.2635L6.12892 9.29607L6.12759 9.32863L6.12658 9.36115L6.12593 9.39371L6.12557 9.42619L6.12561 9.45861L6.12593 9.49099L6.12662 9.52337L6.12764 9.55566L6.12897 9.5879L6.13063 9.6201L6.13265 9.65221L6.13499 9.68426L6.13766 9.71628L6.14065 9.7482L6.14396 9.78012L6.1476 9.81181L6.15155 9.84359L6.15583 9.87514L6.16048 9.90674L6.1654 9.93815L6.17064 9.96952L6.17621 10.0008L6.18209 10.032L6.1883 10.0631L6.19479 10.094L6.20164 10.1249L6.20877 10.1556L6.21622 10.1863L6.22395 10.2167L6.23204 10.2472L6.24037 10.2775L6.24902 10.3077L6.25798 10.3377L6.26723 10.3676L6.2768 10.3974L6.28664 10.4269L6.2968 10.4565L6.30725 10.4859L6.31796 10.515L6.32895 10.5441L6.34027 10.5731L6.35186 10.6018L6.36373 10.6304L6.37582 10.6588L6.38829 10.6872L6.40098 10.7153L6.41395 10.7433L6.4272 10.7711L6.44068 10.7987L6.45452 10.8262L6.4685 10.8534L6.48281 10.8805L6.49739 10.9075L6.51224 10.9342L6.52733 10.9608L6.54265 10.9872L6.55824 11.0133L6.57411 11.0394L6.59016 11.0652L6.60649 11.0907L6.62309 11.1162L6.63988 11.1414L6.65694 11.1664L6.67419 11.1911L6.69171 11.2158L6.70947 11.2402L6.72741 11.2643L6.74567 11.2883L6.76406 11.3121L6.78269 11.3356L6.80155 11.3589L6.82064 11.382L6.83986 11.4048L6.85941 11.4275L6.8791 11.45L6.89897 11.4721L6.91916 11.4941L6.9394 11.5158L6.95991 11.5373L6.98061 11.5586L7.00144 11.5796L7.02255 11.6004L7.0438 11.621L7.06524 11.6413L7.08685 11.6613L7.10866 11.6812L7.13064 11.7008L7.15276 11.7201L7.17507 11.7392L7.19752 11.758L7.22015 11.7766L7.24296 11.795L7.26596 11.813L7.289 11.8308L7.31227 11.8484L7.33568 11.8657L7.35923 11.8828L7.38292 11.8996L7.40675 11.9162L7.43071 11.9324L7.45481 11.9484L7.479 11.9642L7.50334 11.9797L7.5279 11.9949L7.55246 12.0098L7.57716 12.0246L7.60204 12.039L7.62692 12.0531L7.65194 12.067L7.6772 12.0807L7.70245 12.094L7.72779 12.1071L7.75322 12.1199L7.77884 12.1324L7.80442 12.1447L7.83022 12.1567L7.85602 12.1684L7.88187 12.1798L7.9079 12.191L7.93398 12.2019L7.96006 12.2125L7.98628 12.2228L8.01254 12.2329L8.03894 12.2427L8.06525 12.2522L8.09179 12.2614L8.11824 12.2704L8.14478 12.2791L8.17141 12.2875L8.19808 12.2956L8.22476 12.3034L8.25148 12.311L8.2783 12.3183L8.30511 12.3253L8.33193 12.332L8.35879 12.3385L8.38565 12.3447L8.41256 12.3506L8.43951 12.3562L8.46646 12.3616L8.49342 12.3667L8.52037 12.3715L8.54737 12.376L8.57437 12.3802L8.60137 12.3842L8.62827 12.3879L8.65527 12.3913L8.68222 12.3945L8.70922 12.3974L8.73618 12.4L8.76313 12.4023L8.79004 12.4044L8.8169 12.4062L8.8438 12.4077L8.87062 12.4089L8.89739 12.41L8.92425 12.4106L8.95092 12.4111L8.9776 12.4113L9.00428 12.4112L9.03086 12.4109L9.05749 12.4102L9.08403 12.4094L9.11043 12.4082L9.13684 12.4068L9.16328 12.4052L9.1895 12.4032L9.21576 12.4011L9.24189 12.3986L9.26801 12.396L9.29405 12.393L9.31994 12.3898L9.34588 12.3864L9.37164 12.3826L9.3973 12.3787L9.42301 12.3745L9.44854 12.37L9.47398 12.3653L9.49936 12.3604L9.52466 12.3552L9.54978 12.3497L9.5748 12.3441L9.59982 12.3382L9.6247 12.332L9.64945 12.3256L9.6741 12.319L9.69861 12.3122L9.72313 12.305L9.74741 12.2977L9.77151 12.2902L9.79571 12.2824L9.81963 12.2744L9.84345 12.2662L9.86714 12.2577L9.89069 12.249L9.91419 12.2401L9.93751 12.231L9.96064 12.2216L9.98369 12.2121L10.0066 12.2023L10.0294 12.1924L10.0519 12.1822L10.0745 12.1718L10.0968 12.1612L10.1189 12.1504L10.141 12.1394L10.1628 12.1282L10.1845 12.1168L10.2061 12.1052L10.2275 12.0934L10.2487 12.0815L10.2698 12.0693L10.2907 12.0569L10.3114 12.0443L10.332 12.0316L10.3524 12.0187L10.3727 12.0056L10.3928 11.9923L10.4126 11.9789L10.4324 11.9652L10.4519 11.9514L10.4712 11.9375L10.4904 11.9233L10.5094 11.909L10.5282 11.8945L10.5468 11.8799L10.5653 11.8651L10.5836 11.8502L10.6016 11.8351L10.6195 11.8198L10.6371 11.8044L10.6547 11.7889L10.672 11.7732L10.6891 11.7573L10.7059 11.7414L10.7226 11.7252L10.7392 11.7089L10.7555 11.6926L10.7716 11.6761L10.7874 11.6594L10.8031 11.6426L10.8187 11.6257L10.8339 11.6087L10.849 11.5915L10.8639 11.5742L10.8785 11.5568L10.893 11.5393L10.9072 11.5217L10.9213 11.5039L10.9351 11.4861L10.9487 11.4682L10.9621 11.4501L10.9753 11.4321L10.9883 11.4138L11.001 11.3954L11.0136 11.377L11.0259 11.3585L11.038 11.3399L11.0498 11.3212L11.0615 11.3024L11.073 11.2836L11.0842 11.2646L11.0952 11.2456L11.106 11.2266L11.1166 11.2074L11.1269 11.1881L11.1371 11.1689L11.1469 11.1496L11.1566 11.1302L11.1661 11.1107L11.1754 11.0911L11.1844 11.0716L11.1932 11.0519L11.2017 11.0323L11.2101 11.0125L11.2182 10.9928L11.2261 10.9728L11.2338 10.9531L11.2413 10.9331L11.2484 10.9133L11.2555 10.8933L11.2623 10.8732L11.2688 10.8533L11.2752 10.8332L11.2813 10.8132L11.2872 10.793L11.2928 10.773L11.2984 10.7527L11.3036 10.7328L11.3086 10.7125L11.3133 10.6923L11.3179 10.6722L11.3222 10.6521L11.3264 10.6318L11.3303 10.6117L11.334 10.5914L11.3374 10.5714L11.3407 10.5512L11.3437 10.531L11.3465 10.5108L11.3491 10.4907L11.3515 10.4706L11.3536 10.4506L11.3556 10.4304L11.3573 10.4104L11.3588 10.3904L11.3601 10.3704L11.3612 10.3504L11.3621 10.3305L11.3627 10.3107L11.3632 10.2907L11.3635 10.2708L11.3635 10.2511L11.3633 10.2313L11.363 10.2116L11.3624 10.192L11.3616 10.1723L11.3606 10.1529L11.3594 10.1331L11.358 10.1139L11.3564 10.0945L11.3546 10.075L11.3526 10.0557L11.3504 10.0366L11.348 10.0173L11.3454 9.99831L11.3426 9.97923L11.3397 9.96041L11.3364 9.94142L11.3331 9.92256L11.3295 9.90389L11.3258 9.88526L11.3219 9.86659L11.3177 9.84814L11.3134 9.8297L11.3089 9.81139L11.3043 9.79323L11.2994 9.77492L11.2944 9.75698L11.2892 9.73886L11.2838 9.72106L11.2782 9.70326L11.2725 9.6856L11.2665 9.66798L11.2604 9.65041L11.2542 9.63312L11.2478 9.61587L11.2411 9.59858L11.2344 9.58156L11.2274 9.56445L11.2204 9.54775L11.2131 9.53087L11.2057 9.51427L11.1981 9.4978L11.1904 9.48133L11.1825 9.46505L11.1745 9.44886L11.1663 9.43277L11.158 9.41685L11.1495 9.40103L11.1409 9.38534L11.1321 9.36975L11.1231 9.3543L11.1141 9.33898L11.1049 9.3238L11.0955 9.30867L11.086 9.29382L11.0764 9.27901L11.0667 9.26433L11.0568 9.24975L11.0468 9.2354L11.0366 9.2211L11.0264 9.20698L11.016 9.193L11.0055 9.17915L10.9949 9.16544L10.9841 9.15183L10.9732 9.13844L10.9622 9.12515L10.9511 9.112L10.9399 9.09898L10.9286 9.08615L10.9172 9.07345L10.9057 9.0609L10.894 9.04843L10.8823 9.0362L10.8704 9.0241L10.8585 9.0121L10.8465 9.00032L10.8343 8.98869L10.8221 8.97719L10.8097 8.96578L10.7974 8.9546L10.7849 8.94352L10.7723 8.93266L10.7596 8.9219L10.7469 8.91137L10.734 8.90093L10.7212 8.89067L10.7082 8.88055L10.6951 8.87057L10.682 8.86082L10.6688 8.85116L10.6555 8.84169L10.6422 8.8324L10.6289 8.8232L10.6154 8.81423L10.6019 8.8054L10.5883 8.7967L10.5747 8.7882L10.561 8.77983L10.5473 8.77164L10.5335 8.76363L10.5197 8.75577L10.5057 8.74804L10.4918 8.7405L10.4779 8.73309L10.4639 8.72587L10.4499 8.71884L10.4357 8.71189L10.4216 8.70518L10.4075 8.69864L10.3933 8.69221L10.3791 8.68595L10.3648 8.67983L10.3506 8.67395L10.3363 8.6682L10.3219 8.66258L10.3076 8.65716L10.2933 8.65187L10.2789 8.64676L10.2645 8.6418L10.2501 8.63697L10.2358 8.63237L10.2213 8.62786L10.2069 8.62354L10.1925 8.6194L10.178 8.61539L10.1637 8.61158L10.1492 8.6079L10.1348 8.60435L10.1203 8.601L10.1059 8.59778L10.0915 8.59474L10.0771 8.59184L10.0628 8.58909L10.0484 8.58651L10.034 8.58407L10.0197 8.58182L10.0053 8.5797L9.99105 8.57772L9.9767 8.57588L9.96244 8.57423L9.94827 8.57271L9.93401 8.57138L9.91985 8.57014L9.90568 8.56908L9.89156 8.56816L9.87744 8.56738L9.86337 8.56678L9.84943 8.56632L9.8354 8.56595L9.82147 8.56577L9.80753 8.56572L9.79368 8.56586L9.77984 8.56609L9.76609 8.56646L9.75234 8.56701L9.73872 8.56765L9.72501 8.56848L9.71149 8.5694L9.69797 8.57046L9.68449 8.5717L9.67111 8.57303L9.65768 8.5745L9.64443 8.57611L9.63119 8.57786L9.61803 8.57975L9.60488 8.58177L9.59186 8.58389L9.57884 8.58614L9.56601 8.58853L9.55309 8.59106L9.54035 8.59368L9.52761 8.59644L9.515 8.59934Z" fill="#586E84"/>
<path d="M28.0603 11.132C28.0603 10.9568 28.0334 10.7996 27.9795 10.6604C27.9301 10.5166 27.8358 10.3864 27.6965 10.2696C27.5573 10.1483 27.3619 10.0293 27.1104 9.9125C26.8588 9.79572 26.5332 9.67444 26.1334 9.54868C25.6888 9.40494 25.2665 9.24324 24.8668 9.06358C24.4715 8.88391 24.1212 8.67505 23.8157 8.43699C23.5148 8.19444 23.2767 7.91371 23.1016 7.5948C22.9309 7.2759 22.8455 6.90533 22.8455 6.48312C22.8455 6.07438 22.9354 5.70381 23.115 5.37143C23.2947 5.03456 23.5462 4.74709 23.8696 4.50903C24.193 4.26648 24.5748 4.08008 25.015 3.94982C25.4597 3.81956 25.947 3.75443 26.477 3.75443C27.2002 3.75443 27.8313 3.88469 28.3703 4.14521C28.9093 4.40572 29.327 4.76281 29.6234 5.21647C29.9244 5.67013 30.0749 6.18891 30.0749 6.77283H28.0671C28.0671 6.48536 28.0064 6.23383 27.8852 6.01823C27.7684 5.79814 27.5887 5.62521 27.3462 5.49944C27.1081 5.37368 26.8072 5.31079 26.4434 5.31079C26.093 5.31079 25.801 5.36469 25.5675 5.47249C25.3339 5.5758 25.1587 5.71729 25.042 5.89695C24.9252 6.07213 24.8668 6.26976 24.8668 6.48985C24.8668 6.65605 24.9072 6.80652 24.9881 6.94127C25.0734 7.07602 25.1992 7.20178 25.3654 7.31857C25.5315 7.43535 25.7359 7.5454 25.9785 7.6487C26.221 7.75201 26.5017 7.85307 26.8207 7.95189C27.3552 8.11359 27.8245 8.2955 28.2288 8.49763C28.6375 8.69975 28.9789 8.92658 29.2529 9.17811C29.5269 9.42965 29.7335 9.71487 29.8727 10.0338C30.012 10.3527 30.0816 10.7143 30.0816 11.1185C30.0816 11.5452 29.9985 11.927 29.8323 12.2639C29.6661 12.6008 29.4258 12.886 29.1114 13.1195C28.797 13.3531 28.4219 13.5305 27.9862 13.6518C27.5505 13.7731 27.0632 13.8337 26.5242 13.8337C26.0391 13.8337 25.5607 13.7708 25.0891 13.6451C24.6175 13.5148 24.1885 13.3194 23.8023 13.0589C23.4205 12.7984 23.115 12.466 22.886 12.0618C22.6569 11.6575 22.5423 11.1792 22.5423 10.6267H24.5703C24.5703 10.9321 24.6175 11.1904 24.7118 11.4015C24.8061 11.6126 24.9386 11.7833 25.1093 11.9135C25.2845 12.0438 25.4911 12.1381 25.7292 12.1965C25.9717 12.2549 26.2367 12.2841 26.5242 12.2841C26.8746 12.2841 27.162 12.2347 27.3866 12.1359C27.6157 12.0371 27.7841 11.9001 27.8919 11.7249C28.0042 11.5497 28.0603 11.3521 28.0603 11.132ZM37.9982 7.88452V9.46109H32.8777V7.88452H37.9982ZM33.4773 3.88918V13.699H31.456V3.88918H33.4773ZM39.44 3.88918V13.699H37.4255V3.88918H39.44ZM47.781 12.1224V13.699H42.5594V12.1224H47.781ZM43.2197 3.88918V13.699H41.1985V3.88918H43.2197ZM47.1005 7.88452V9.42066H42.5594V7.88452H47.1005ZM47.7743 3.88918V5.47249H42.5594V3.88918H47.7743ZM55.2664 12.1224V13.699H50.3278V12.1224H55.2664ZM50.9813 3.88918V13.699H48.9601V3.88918H50.9813ZM62.7315 12.1224V13.699H57.7929V12.1224H62.7315ZM58.4465 3.88918V13.699H56.4252V3.88918H58.4465ZM68.9974 11.132C68.9974 10.9568 68.9704 10.7996 68.9165 10.6604C68.8671 10.5166 68.7728 10.3864 68.6335 10.2696C68.4943 10.1483 68.2989 10.0293 68.0474 9.9125C67.7959 9.79572 67.4702 9.67444 67.0704 9.54868C66.6258 9.40494 66.2036 9.24324 65.8038 9.06358C65.4085 8.88391 65.0582 8.67505 64.7528 8.43699C64.4518 8.19444 64.2138 7.91371 64.0386 7.5948C63.8679 7.2759 63.7826 6.90533 63.7826 6.48312C63.7826 6.07438 63.8724 5.70381 64.0521 5.37143C64.2317 5.03456 64.4833 4.74709 64.8067 4.50903C65.1301 4.26648 65.5118 4.08008 65.952 3.94982C66.3967 3.81956 66.884 3.75443 67.4141 3.75443C68.1372 3.75443 68.7683 3.88469 69.3073 4.14521C69.8463 4.40572 70.264 4.76281 70.5605 5.21647C70.8614 5.67013 71.0119 6.18891 71.0119 6.77283H69.0041C69.0041 6.48536 68.9435 6.23383 68.8222 6.01823C68.7054 5.79814 68.5257 5.62521 68.2832 5.49944C68.0451 5.37368 67.7442 5.31079 67.3804 5.31079C67.03 5.31079 66.7381 5.36469 66.5045 5.47249C66.2709 5.5758 66.0958 5.71729 65.979 5.89695C65.8622 6.07213 65.8038 6.26976 65.8038 6.48985C65.8038 6.65605 65.8442 6.80652 65.9251 6.94127C66.0104 7.07602 66.1362 7.20178 66.3024 7.31857C66.4686 7.43535 66.6729 7.5454 66.9155 7.6487C67.158 7.75201 67.4388 7.85307 67.7577 7.95189C68.2922 8.11359 68.7616 8.2955 69.1658 8.49763C69.5746 8.69975 69.9159 8.92658 70.1899 9.17811C70.4639 9.42965 70.6705 9.71487 70.8098 10.0338C70.949 10.3527 71.0186 10.7143 71.0186 11.1185C71.0186 11.5452 70.9355 11.927 70.7693 12.2639C70.6031 12.6008 70.3628 12.886 70.0484 13.1195C69.734 13.3531 69.359 13.5305 68.9233 13.6518C68.4876 13.7731 68.0002 13.8337 67.4612 13.8337C66.9761 13.8337 66.4978 13.7708 66.0261 13.6451C65.5545 13.5148 65.1256 13.3194 64.7393 13.0589C64.3575 12.7984 64.0521 12.466 63.823 12.0618C63.5939 11.6575 63.4794 11.1792 63.4794 10.6267H65.5074C65.5074 10.9321 65.5545 11.1904 65.6488 11.4015C65.7432 11.6126 65.8757 11.7833 66.0463 11.9135C66.2215 12.0438 66.4281 12.1381 66.6662 12.1965C66.9087 12.2549 67.1738 12.2841 67.4612 12.2841C67.8116 12.2841 68.099 12.2347 68.3236 12.1359C68.5527 12.0371 68.7211 11.9001 68.8289 11.7249C68.9412 11.5497 68.9974 11.3521 68.9974 11.132Z" fill="#586E84"/>
</svg>
