<svg width="76" height="17" viewBox="0 0 76 17" fill="none" xmlns="http://www.w3.org/2000/svg">
<path d="M7.7041 2.44347V0H0V16.788H7.7041V14.3446C6.12591 14.3446 4.61234 13.7176 3.49642 12.6017C2.38048 11.4857 1.75355 9.97222 1.75355 8.39403C1.75355 6.81584 2.38048 5.30227 3.49642 4.18635C4.61234 3.0704 6.12591 2.44347 7.7041 2.44347Z" fill="#586E84"/>
<path d="M7.70412 2.44336V14.3445C9.28231 14.3445 10.7959 13.7175 11.9118 12.6016C13.0278 11.4856 13.6547 9.97211 13.6547 8.39392C13.6547 6.81573 13.0278 5.30216 11.9118 4.18624C10.7959 3.0703 9.28231 2.44336 7.70412 2.44336Z" fill="#586E84"/>
<path d="M20.9491 2.53851V12.894H19.0087V2.53851H20.9491ZM25.5441 5.60407L22.3775 9.21537L20.6796 10.9334L19.9722 9.53203L21.3197 7.82071L23.2129 5.60407H25.5441ZM23.5296 12.894L21.3736 9.5253L22.7144 8.35297L25.7664 12.894H23.5296ZM26.0696 9.32317V9.18168C26.0696 8.64717 26.146 8.15534 26.2987 7.70617C26.4514 7.25251 26.6738 6.85949 26.9657 6.52711C27.2577 6.19473 27.617 5.93646 28.0437 5.7523C28.4704 5.56365 28.96 5.46932 29.5125 5.46932C30.065 5.46932 30.5568 5.56365 30.988 5.7523C31.4192 5.93646 31.7808 6.19473 32.0727 6.52711C32.3692 6.85949 32.5938 7.25251 32.7465 7.70617C32.8992 8.15534 32.9756 8.64717 32.9756 9.18168V9.32317C32.9756 9.85319 32.8992 10.345 32.7465 10.7987C32.5938 11.2478 32.3692 11.6409 32.0727 11.9777C31.7808 12.3101 31.4214 12.5684 30.9947 12.7526C30.568 12.9367 30.0784 13.0288 29.526 13.0288C28.9735 13.0288 28.4817 12.9367 28.0505 12.7526C27.6237 12.5684 27.2622 12.3101 26.9657 11.9777C26.6738 11.6409 26.4514 11.2478 26.2987 10.7987C26.146 10.345 26.0696 9.85319 26.0696 9.32317ZM28.01 9.18168V9.32317C28.01 9.6286 28.037 9.91382 28.0909 10.1788C28.1448 10.4438 28.2301 10.6774 28.3469 10.8795C28.4682 11.0772 28.6254 11.2321 28.8185 11.3444C29.0117 11.4567 29.2475 11.5129 29.526 11.5129C29.7955 11.5129 30.0268 11.4567 30.2199 11.3444C30.4131 11.2321 30.568 11.0772 30.6848 10.8795C30.8016 10.6774 30.8869 10.4438 30.9408 10.1788C30.9992 9.91382 31.0284 9.6286 31.0284 9.32317V9.18168C31.0284 8.88523 30.9992 8.60675 30.9408 8.34623C30.8869 8.08123 30.7994 7.84766 30.6781 7.64553C30.5613 7.43892 30.4063 7.27722 30.2132 7.16043C30.02 7.04365 29.7865 6.98526 29.5125 6.98526C29.2385 6.98526 29.0049 7.04365 28.8118 7.16043C28.6231 7.27722 28.4682 7.43892 28.3469 7.64553C28.2301 7.84766 28.1448 8.08123 28.0909 8.34623C28.037 8.60675 28.01 8.88523 28.01 9.18168ZM36.0681 7.16043V12.894H34.1277V5.60407H35.9468L36.0681 7.16043ZM35.7851 8.99303H35.2596C35.2596 8.45403 35.3292 7.96893 35.4684 7.53773C35.6077 7.10204 35.8031 6.73148 36.0546 6.42605C36.3061 6.11612 36.6048 5.88031 36.9507 5.71861C37.301 5.55242 37.6918 5.46932 38.123 5.46932C38.4644 5.46932 38.7765 5.51873 39.0595 5.61755C39.3425 5.71636 39.585 5.87357 39.7872 6.08917C39.9938 6.30477 40.151 6.58999 40.2588 6.94483C40.3711 7.29968 40.4272 7.73312 40.4272 8.24517V12.894H38.4734V8.23843C38.4734 7.91503 38.4284 7.6635 38.3386 7.48383C38.2488 7.30417 38.1163 7.1784 37.9411 7.10653C37.7704 7.03018 37.5593 6.992 37.3078 6.992C37.0473 6.992 36.8204 7.04365 36.6273 7.14696C36.4386 7.25027 36.2814 7.394 36.1557 7.57816C36.0344 7.75783 35.9423 7.96893 35.8794 8.21148C35.8165 8.45403 35.7851 8.71455 35.7851 8.99303ZM45.4736 5.60407V6.97852H41.229V5.60407H45.4736ZM42.28 3.80516H44.2204V10.6976C44.2204 10.9087 44.2474 11.0704 44.3013 11.1827C44.3597 11.295 44.445 11.3736 44.5573 11.4185C44.6696 11.459 44.8111 11.4792 44.9818 11.4792C45.1031 11.4792 45.2109 11.4747 45.3052 11.4657C45.404 11.4522 45.4871 11.4387 45.5545 11.4253L45.5612 12.8536C45.395 12.9075 45.2153 12.9502 45.0222 12.9816C44.8291 13.0131 44.6157 13.0288 44.3821 13.0288C43.9554 13.0288 43.5826 12.9592 43.2637 12.8199C42.9493 12.6762 42.7068 12.4471 42.5361 12.1327C42.3654 11.8183 42.28 11.4051 42.28 10.893V3.80516ZM48.519 7.19412V12.894H46.5786V5.60407H48.4044L48.519 7.19412ZM50.7154 5.55691L50.6817 7.35582C50.5874 7.34235 50.4728 7.33112 50.3381 7.32213C50.2078 7.30866 50.0888 7.30192 49.981 7.30192C49.707 7.30192 49.469 7.33785 49.2668 7.40972C49.0692 7.4771 48.903 7.57816 48.7683 7.71291C48.638 7.84766 48.5392 8.0116 48.4718 8.20475C48.4089 8.39789 48.373 8.61798 48.364 8.86502L47.9732 8.74375C47.9732 8.27212 48.0204 7.83868 48.1147 7.44341C48.209 7.04365 48.346 6.69555 48.5257 6.3991C48.7099 6.10265 48.9344 5.87357 49.1995 5.71187C49.4645 5.55017 49.7676 5.46932 50.109 5.46932C50.2168 5.46932 50.3269 5.47831 50.4392 5.49627C50.5514 5.50975 50.6435 5.52996 50.7154 5.55691ZM55.3373 11.2501V8.00262C55.3373 7.76905 55.2991 7.56918 55.2228 7.40298C55.1464 7.2323 55.0274 7.0998 54.8657 7.00547C54.7085 6.91115 54.5041 6.86398 54.2526 6.86398C54.037 6.86398 53.8506 6.90216 53.6934 6.97852C53.5362 7.05039 53.4149 7.15594 53.3295 7.29518C53.2442 7.42993 53.2015 7.58939 53.2015 7.77355H51.2611C51.2611 7.46362 51.333 7.16942 51.4767 6.89093C51.6205 6.61245 51.8293 6.36766 52.1033 6.15655C52.3773 5.94095 52.703 5.77251 53.0803 5.65124C53.462 5.52996 53.8887 5.46932 54.3604 5.46932C54.9263 5.46932 55.4294 5.56365 55.8696 5.7523C56.3098 5.94095 56.6556 6.22392 56.9071 6.60122C57.1632 6.97852 57.2912 7.45015 57.2912 8.0161V11.1356C57.2912 11.5353 57.3159 11.8632 57.3653 12.1192C57.4147 12.3708 57.4866 12.5909 57.5809 12.7795V12.894H55.6203C55.526 12.6964 55.4541 12.4494 55.4047 12.1529C55.3598 11.852 55.3373 11.551 55.3373 11.2501ZM55.5933 8.45403L55.6068 9.55225H54.5221C54.266 9.55225 54.0437 9.58144 53.8551 9.63983C53.6664 9.69822 53.5114 9.78132 53.3902 9.88912C53.2689 9.99243 53.1791 10.1137 53.1207 10.2529C53.0668 10.3922 53.0398 10.5449 53.0398 10.7111C53.0398 10.8773 53.078 11.0278 53.1544 11.1625C53.2307 11.2928 53.3408 11.3961 53.4845 11.4724C53.6282 11.5443 53.7967 11.5802 53.9898 11.5802C54.2818 11.5802 54.5355 11.5218 54.7511 11.4051C54.9667 11.2883 55.1329 11.1445 55.2497 10.9739C55.371 10.8032 55.4339 10.6415 55.4384 10.4888L55.9504 11.3107C55.8786 11.4949 55.7797 11.6858 55.654 11.8834C55.5327 12.0811 55.3777 12.2675 55.1891 12.4426C55.0004 12.6133 54.7736 12.7548 54.5086 12.8671C54.2436 12.9749 53.9292 13.0288 53.5653 13.0288C53.1027 13.0288 52.6827 12.9367 52.3054 12.7526C51.9326 12.5639 51.6362 12.3056 51.4161 11.9777C51.2005 11.6454 51.0927 11.2681 51.0927 10.8458C51.0927 10.4641 51.1646 10.1249 51.3083 9.82848C51.452 9.53203 51.6631 9.28275 51.9416 9.08062C52.2246 8.874 52.5772 8.71904 52.9994 8.61573C53.4216 8.50793 53.9112 8.45403 54.4682 8.45403H55.5933ZM62.7283 10.8795C62.7283 10.7403 62.6879 10.6145 62.6071 10.5022C62.5262 10.3899 62.3757 10.2866 62.1557 10.1923C61.9401 10.0935 61.6279 10.0037 61.2191 9.92281C60.8508 9.84196 60.5072 9.74089 60.1883 9.61962C59.8739 9.49385 59.5999 9.34338 59.3663 9.16821C59.1373 8.99303 58.9576 8.78642 58.8273 8.54836C58.6971 8.30581 58.6319 8.02957 58.6319 7.71965C58.6319 7.41421 58.6971 7.12675 58.8273 6.85725C58.9621 6.58775 59.153 6.34969 59.4 6.14307C59.6516 5.93196 59.957 5.76802 60.3163 5.65124C60.6801 5.52996 61.0889 5.46932 61.5425 5.46932C62.1759 5.46932 62.7194 5.57039 63.173 5.77251C63.6312 5.97463 63.9815 6.25312 64.2241 6.60796C64.4711 6.95831 64.5946 7.35807 64.5946 7.80723H62.6542C62.6542 7.61858 62.6138 7.45015 62.533 7.30192C62.4566 7.1492 62.3353 7.03018 62.1691 6.94483C62.0074 6.855 61.7963 6.81008 61.5358 6.81008C61.3202 6.81008 61.1338 6.84826 60.9766 6.92462C60.8194 6.99649 60.6981 7.0953 60.6128 7.22107C60.5319 7.34235 60.4915 7.4771 60.4915 7.62532C60.4915 7.73761 60.514 7.83868 60.5589 7.92851C60.6083 8.01385 60.6869 8.09245 60.7947 8.16432C60.9025 8.23619 61.0417 8.30356 61.2124 8.36645C61.3876 8.42484 61.6032 8.47874 61.8592 8.52815C62.3847 8.63595 62.8541 8.77743 63.2673 8.95261C63.6806 9.12329 64.0085 9.35686 64.251 9.65331C64.4936 9.94527 64.6148 10.3293 64.6148 10.8054C64.6148 11.1288 64.543 11.4253 64.3992 11.6948C64.2555 11.9643 64.0489 12.2001 63.7794 12.4022C63.5099 12.5998 63.1865 12.7548 62.8092 12.8671C62.4364 12.9749 62.0164 13.0288 61.5493 13.0288C60.871 13.0288 60.2961 12.9075 59.8245 12.665C59.3574 12.4224 59.0025 12.1147 58.76 11.7419C58.5219 11.3646 58.4029 10.9783 58.4029 10.5831H60.2422C60.2512 10.8481 60.3186 11.0614 60.4443 11.2231C60.5746 11.3848 60.7385 11.5016 60.9362 11.5735C61.1383 11.6454 61.3561 11.6813 61.5897 11.6813C61.8412 11.6813 62.0501 11.6476 62.2163 11.5802C62.3825 11.5084 62.5083 11.414 62.5936 11.2973C62.6834 11.176 62.7283 11.0367 62.7283 10.8795ZM69.4456 5.60407V6.97852H65.201V5.60407H69.4456ZM66.2521 3.80516H68.1925V10.6976C68.1925 10.9087 68.2194 11.0704 68.2733 11.1827C68.3317 11.295 68.417 11.3736 68.5293 11.4185C68.6416 11.459 68.7831 11.4792 68.9538 11.4792C69.0751 11.4792 69.1829 11.4747 69.2772 11.4657C69.376 11.4522 69.4591 11.4387 69.5265 11.4253L69.5332 12.8536C69.367 12.9075 69.1874 12.9502 68.9942 12.9816C68.8011 13.0131 68.5877 13.0288 68.3542 13.0288C67.9274 13.0288 67.5546 12.9592 67.2357 12.8199C66.9213 12.6762 66.6788 12.4471 66.5081 12.1327C66.3374 11.8183 66.2521 11.4051 66.2521 10.893V3.80516ZM72.491 7.19412V12.894H70.5506V5.60407H72.3764L72.491 7.19412ZM74.6874 5.55691L74.6537 7.35582C74.5594 7.34235 74.4449 7.33112 74.3101 7.32213C74.1798 7.30866 74.0608 7.30192 73.953 7.30192C73.679 7.30192 73.441 7.33785 73.2388 7.40972C73.0412 7.4771 72.875 7.57816 72.7403 7.71291C72.61 7.84766 72.5112 8.0116 72.4438 8.20475C72.3809 8.39789 72.345 8.61798 72.336 8.86502L71.9452 8.74375C71.9452 8.27212 71.9924 7.83868 72.0867 7.44341C72.1811 7.04365 72.318 6.69555 72.4977 6.3991C72.6819 6.10265 72.9065 5.87357 73.1715 5.71187C73.4365 5.55017 73.7397 5.46932 74.081 5.46932C74.1888 5.46932 74.2989 5.47831 74.4112 5.49627C74.5235 5.50975 74.6155 5.52996 74.6874 5.55691Z" fill="#586E84"/>
</svg>
