<svg width="108" height="19" viewBox="0 0 108 19" fill="none" xmlns="http://www.w3.org/2000/svg">
<path d="M5.63753 11.4882V16.157C5.63753 16.3361 5.56643 16.5077 5.43986 16.6342C5.31336 16.7608 5.14171 16.8319 4.96271 16.8319C4.78377 16.8319 4.61212 16.7608 4.48555 16.6342C4.35898 16.5077 4.28788 16.3361 4.28788 16.157V11.4946C4.4758 11.6318 4.70104 11.7084 4.93365 11.7142C5.18718 11.7214 5.4356 11.6417 5.63753 11.4882ZM11.3848 10.1385C11.2136 10.1385 11.0493 10.2066 10.9282 10.3277C10.8071 10.4487 10.7391 10.613 10.7391 10.7843V11.5979C10.7391 11.777 10.8102 11.9486 10.9367 12.0751C11.0633 12.2017 11.2349 12.2728 11.4139 12.2728C11.5929 12.2728 11.7646 12.2017 11.8911 12.0751C12.0176 11.9486 12.0887 11.777 12.0887 11.5979V10.8166C12.0938 10.724 12.0788 10.6314 12.0448 10.5451C12.0108 10.4588 11.9587 10.3808 11.8919 10.3165C11.8251 10.2522 11.7452 10.203 11.6578 10.1722C11.5703 10.1416 11.4772 10.1301 11.3848 10.1385ZM2.82199 13.2576C2.58963 13.2506 2.36468 13.1741 2.17623 13.038V17.7198C2.17623 17.8996 2.24766 18.0721 2.37483 18.1993C2.50199 18.3264 2.67445 18.3979 2.85428 18.3979C3.03412 18.3979 3.20658 18.3264 3.33374 18.1993C3.4609 18.0721 3.53234 17.8996 3.53234 17.7198V13.0703C3.32146 13.2066 3.07265 13.2722 2.82199 13.2576ZM9.27965 8.73721C9.19215 8.73281 9.10471 8.74631 9.02257 8.77679C8.94049 8.80727 8.86545 8.85415 8.80198 8.91453C8.73856 8.97498 8.68813 9.04763 8.65364 9.12815C8.61922 9.20868 8.60147 9.29541 8.60159 9.38297V12.9799C8.60159 13.1597 8.67302 13.3322 8.80017 13.4594C8.92738 13.5865 9.0998 13.6579 9.27965 13.6579C9.45949 13.6579 9.63198 13.5865 9.75913 13.4594C9.88628 13.3322 9.9577 13.1597 9.9577 12.9799V9.42817C9.96287 9.33499 9.94776 9.24181 9.9134 9.15502C9.87905 9.06822 9.82635 8.98989 9.75881 8.92545C9.69126 8.861 9.6106 8.81192 9.52233 8.7817C9.43405 8.75141 9.34022 8.74063 9.24736 8.75012L9.27965 8.73721ZM7.13571 10.1191C6.89245 10.1175 6.65571 10.0408 6.45765 9.89958V14.5943C6.45765 14.7741 6.52908 14.9466 6.65623 15.0738C6.78344 15.2009 6.95586 15.2724 7.13571 15.2724C7.31555 15.2724 7.48797 15.2009 7.61519 15.0738C7.74234 14.9466 7.81376 14.7741 7.81376 14.5943V9.90604C7.60892 10.0586 7.35882 10.1382 7.10342 10.1321L7.13571 10.1191ZM1.35611 13.7161V0.600562C1.35441 0.44069 1.2897 0.287953 1.17605 0.175506C1.06239 0.063059 0.908966 -6.45716e-06 0.749088 4.9588e-10H0.607019C0.447141 -6.45716e-06 0.293713 0.063059 0.180059 0.175506C0.0664041 0.287953 0.00169836 0.44069 0 0.600562V13.7161C0 13.877 0.0639566 14.0314 0.177792 14.1453C0.291628 14.2591 0.44603 14.3231 0.607019 14.3231H0.749088C0.910083 14.3231 1.06448 14.2591 1.17832 14.1453C1.29216 14.0314 1.35611 13.877 1.35611 13.7161ZM2.89303 12.7603H2.75096C2.58997 12.7603 2.43557 12.6964 2.32173 12.5825C2.2079 12.4687 2.14394 12.3143 2.14394 12.1533V2.16331C2.14565 2.00345 2.21035 1.8507 2.324 1.73826C2.43765 1.62581 2.59108 1.56275 2.75096 1.56275H2.89303C3.05291 1.56275 3.20633 1.62581 3.31999 1.73826C3.43364 1.8507 3.49835 2.00345 3.50005 2.16331V12.1662C3.50005 12.3272 3.43609 12.4816 3.32226 12.5955C3.20842 12.7093 3.05402 12.7732 2.89303 12.7732V12.7603ZM5.03051 11.2234H4.88199C4.72274 11.2234 4.56995 11.1601 4.45733 11.0475C4.34471 10.9349 4.28142 10.7822 4.28142 10.6228V3.71315C4.28058 3.63374 4.2955 3.55495 4.32527 3.48134C4.35504 3.40773 4.39915 3.34076 4.45501 3.28431C4.51086 3.22786 4.57738 3.18304 4.65067 3.15246C4.72397 3.12188 4.80256 3.10612 4.88199 3.10613H5.03051C5.1904 3.10784 5.34313 3.17254 5.45555 3.28619C5.56805 3.39984 5.63107 3.55327 5.63107 3.71315V10.6228C5.63107 10.7822 5.56779 10.9349 5.45517 11.0475C5.34255 11.1601 5.18982 11.2234 5.03051 11.2234ZM7.168 9.64128H7.03238C6.87249 9.64128 6.71906 9.57825 6.6054 9.46576C6.49175 9.35333 6.42704 9.20061 6.42537 9.04072V5.32111C6.42007 5.23819 6.43182 5.15508 6.45998 5.07688C6.48807 4.99874 6.53198 4.92712 6.58887 4.86662C6.64577 4.80604 6.71447 4.75787 6.7908 4.72494C6.86707 4.69207 6.94928 4.67515 7.03238 4.67534H7.17445C7.33544 4.67534 7.48985 4.73927 7.60369 4.85312C7.71754 4.96697 7.78147 5.12137 7.78147 5.28236V9.0278C7.78231 9.10807 7.76727 9.18769 7.73711 9.26208C7.70702 9.33648 7.66246 9.40415 7.60595 9.46124C7.54951 9.51826 7.48235 9.56353 7.40822 9.59446C7.33415 9.62539 7.25472 9.64128 7.17445 9.64128H7.168ZM9.31194 8.25288H9.16987C9.00888 8.25288 8.85448 8.18895 8.74063 8.0751C8.62678 7.96125 8.56285 7.80685 8.56285 7.64586V6.68367C8.56453 6.52378 8.62923 6.37106 8.74289 6.25863C8.85654 6.14614 9.00998 6.08311 9.16987 6.08311H9.31194C9.47183 6.08311 9.62526 6.14614 9.73892 6.25863C9.85257 6.37106 9.91728 6.52378 9.91896 6.68367V7.64586C9.91896 7.80575 9.85593 7.95919 9.74344 8.07284C9.63101 8.1865 9.47829 8.2512 9.31839 8.25288H9.31194Z" fill="#586E84"/>
<path d="M19.1197 12.0317L20.5851 5.84163H21.4037L21.5907 6.87247L20.0293 13.199H19.15L19.1197 12.0317ZM18.3668 5.84163L19.5795 12.0317L19.4785 13.199H18.4982L16.866 5.84163H18.3668ZM22.8792 12.0064L24.0768 5.84163H25.5776L23.9505 13.199H22.9702L22.8792 12.0064ZM21.8635 5.84163L23.3391 12.057L23.2986 13.199H22.4194L20.8479 6.86741L21.05 5.84163H21.8635ZM29.1704 7.09986L27.1693 13.199H25.5574L28.2911 5.84163H29.3169L29.1704 7.09986ZM30.8328 13.199L28.8267 7.09986L28.665 5.84163H29.7009L32.4498 13.199H30.8328ZM30.7419 10.4602V11.6477H26.856V10.4602H30.7419ZM35.3705 11.6628L37.1038 5.84163H38.7915L36.2296 13.199H35.1179L35.3705 11.6628ZM33.7738 5.84163L35.5019 11.6628L35.7647 13.199H34.6429L32.0961 5.84163H33.7738ZM44.4156 12.0165V13.199H40.4995V12.0165H44.4156ZM40.9947 5.84163V13.199H39.4787V5.84163H40.9947ZM43.9053 8.83813V9.99024H40.4995V8.83813H43.9053ZM44.4106 5.84163V7.02911H40.4995V5.84163H44.4106ZM49.1302 11.2737C49.1302 11.1424 49.11 11.0244 49.0696 10.92C49.0325 10.8122 48.9618 10.7145 48.8573 10.6269C48.7529 10.536 48.6064 10.4467 48.4177 10.3591C48.2291 10.2715 47.9848 10.1806 47.685 10.0863C47.3515 9.97845 47.0348 9.85718 46.735 9.72243C46.4386 9.58768 46.1758 9.43103 45.9467 9.25249C45.721 9.07057 45.5425 8.86003 45.4111 8.62085C45.2831 8.38166 45.2191 8.10374 45.2191 7.78708C45.2191 7.48052 45.2864 7.2026 45.4212 6.95332C45.5559 6.70066 45.7446 6.48506 45.9871 6.30652C46.2297 6.1246 46.516 5.9848 46.8462 5.88711C47.1797 5.78941 47.5452 5.74057 47.9427 5.74057C48.4851 5.74057 48.9584 5.83826 49.3626 6.03365C49.7669 6.22903 50.0802 6.49685 50.3025 6.83709C50.5282 7.17734 50.6411 7.56643 50.6411 8.00437H49.1352C49.1352 7.78877 49.0898 7.60012 48.9988 7.43842C48.9112 7.27335 48.7765 7.14365 48.5946 7.04933C48.416 6.955 48.1903 6.90784 47.9174 6.90784C47.6547 6.90784 47.4357 6.94826 47.2605 7.02911C47.0854 7.10659 46.954 7.21271 46.8664 7.34746C46.7788 7.47884 46.735 7.62707 46.735 7.79213C46.735 7.91678 46.7653 8.02963 46.826 8.13069C46.89 8.23176 46.9843 8.32608 47.1089 8.41367C47.2336 8.50126 47.3869 8.58379 47.5688 8.66127C47.7507 8.73875 47.9612 8.81455 48.2004 8.88866C48.6013 9.00994 48.9533 9.14637 49.2565 9.29796C49.5631 9.44956 49.8191 9.61968 50.0246 9.80833C50.2301 9.99698 50.385 10.2109 50.4895 10.4501C50.5939 10.6893 50.6461 10.9604 50.6461 11.2636C50.6461 11.5837 50.5838 11.87 50.4592 12.1227C50.3345 12.3753 50.1543 12.5892 49.9185 12.7644C49.6827 12.9396 49.4014 13.0726 49.0746 13.1636C48.7478 13.2546 48.3823 13.3 47.9781 13.3C47.6143 13.3 47.2555 13.2529 46.9018 13.1585C46.548 13.0609 46.2263 12.9143 45.9366 12.7189C45.6503 12.5235 45.4212 12.2743 45.2494 11.9711C45.0776 11.6679 44.9917 11.3091 44.9917 10.8948H46.5127C46.5127 11.1238 46.548 11.3175 46.6188 11.4759C46.6895 11.6342 46.7889 11.7622 46.9169 11.8599C47.0483 11.9576 47.2033 12.0283 47.3818 12.0721C47.5637 12.1159 47.7625 12.1378 47.9781 12.1378C48.2408 12.1378 48.4564 12.1008 48.6249 12.0267C48.7967 11.9525 48.923 11.8498 49.0039 11.7184C49.0881 11.587 49.1302 11.4388 49.1302 11.2737ZM52.1823 5.84163H53.1272L55.5375 11.8397L57.9428 5.84163H58.8928L55.9014 13.199H55.1636L52.1823 5.84163ZM51.874 5.84163H52.7078L52.8442 10.3288V13.199H51.874V5.84163ZM58.3622 5.84163H59.196V13.199H58.2258V10.3288L58.3622 5.84163ZM63.7236 6.49348L61.288 13.199H60.2925L63.097 5.84163H63.7388L63.7236 6.49348ZM65.7651 13.199L63.3244 6.49348L63.3093 5.84163H63.951L66.7656 13.199H65.7651ZM65.6387 10.4753V11.2737H61.5053V10.4753H65.6387ZM67.7509 5.84163H70.1866C70.739 5.84163 71.2056 5.92585 71.5863 6.09428C71.9703 6.26272 72.2617 6.51201 72.4605 6.84215C72.6626 7.16892 72.7636 7.57148 72.7636 8.04984C72.7636 8.38672 72.6946 8.69496 72.5565 8.97456C72.4217 9.2508 72.2263 9.48661 71.9703 9.682C71.7176 9.87402 71.4145 10.0172 71.0607 10.1115L70.7879 10.2176H68.4988L68.4887 9.42429H70.2169C70.5672 9.42429 70.8586 9.36365 71.0911 9.24238C71.3235 9.11774 71.4987 8.95098 71.6166 8.74212C71.7345 8.53326 71.7934 8.3025 71.7934 8.04984C71.7934 7.76687 71.7379 7.51927 71.6267 7.30703C71.5155 7.0948 71.3403 6.93142 71.1012 6.81688C70.8654 6.69898 70.5605 6.64002 70.1866 6.64002H68.7262V13.199H67.7509V5.84163ZM72.0512 13.199L70.2623 9.86391L71.278 9.85886L73.0921 13.1383V13.199H72.0512ZM76.8516 6.49348L74.416 13.199H73.4206L76.225 5.84163H76.8668L76.8516 6.49348ZM78.8931 13.199L76.4524 6.49348L76.4373 5.84163H77.079L79.8936 13.199H78.8931ZM78.7668 10.4753V11.2737H74.6333V10.4753H78.7668ZM82.9406 5.84163V13.199H81.9805V5.84163H82.9406ZM85.3055 5.84163V6.64002H79.6207V5.84163H85.3055ZM91.2025 9.00488V9.79822H87.2206V9.00488H91.2025ZM87.3722 5.84163V13.199H86.397V5.84163H87.3722ZM92.0514 5.84163V13.199H91.0812V5.84163H92.0514ZM99.4492 9.28786V9.75275C99.4492 10.3052 99.3801 10.8004 99.242 11.2384C99.1039 11.6763 98.9051 12.0485 98.6457 12.3551C98.3863 12.6617 98.0747 12.8958 97.7109 13.0575C97.3505 13.2192 96.9462 13.3 96.4982 13.3C96.0636 13.3 95.6644 13.2192 95.3006 13.0575C94.9401 12.8958 94.6268 12.6617 94.3607 12.3551C94.0979 12.0485 93.8941 11.6763 93.7493 11.2384C93.6044 10.8004 93.532 10.3052 93.532 9.75275V9.28786C93.532 8.73538 93.6027 8.24186 93.7442 7.80729C93.8891 7.36936 94.0929 6.99711 94.3556 6.69055C94.6184 6.38063 94.93 6.14482 95.2905 5.98312C95.6543 5.82142 96.0535 5.74057 96.4881 5.74057C96.9361 5.74057 97.3403 5.82142 97.7008 5.98312C98.0646 6.14482 98.3762 6.38063 98.6356 6.69055C98.8984 6.99711 99.0988 7.36936 99.237 7.80729C99.3784 8.24186 99.4492 8.73538 99.4492 9.28786ZM98.484 9.75275V9.27775C98.484 8.83981 98.4386 8.45241 98.3476 8.11553C98.26 7.77866 98.1303 7.49568 97.9585 7.26661C97.7867 7.03753 97.5762 6.86404 97.3269 6.74614C97.081 6.62823 96.8013 6.56928 96.4881 6.56928C96.1849 6.56928 95.9103 6.62823 95.6644 6.74614C95.4218 6.86404 95.213 7.03753 95.0378 7.26661C94.866 7.49568 94.7329 7.77866 94.6386 8.11553C94.5443 8.45241 94.4971 8.83981 94.4971 9.27775V9.75275C94.4971 10.1941 94.5443 10.5848 94.6386 10.9251C94.7329 11.2619 94.8677 11.5466 95.0429 11.779C95.2214 12.0081 95.432 12.1816 95.6745 12.2995C95.9204 12.4174 96.195 12.4764 96.4982 12.4764C96.8148 12.4764 97.0961 12.4174 97.342 12.2995C97.588 12.1816 97.7951 12.0081 97.9636 11.779C98.1354 11.5466 98.2651 11.2619 98.3527 10.9251C98.4402 10.5848 98.484 10.1941 98.484 9.75275ZM106.569 5.84163V13.199H105.589L101.885 7.52432V13.199H100.91V5.84163H101.885L105.604 11.5314V5.84163H106.569Z" fill="#586E84"/>
</svg>
