<svg width="102" height="19" viewBox="0 0 102 19" fill="none" xmlns="http://www.w3.org/2000/svg">
<path d="M13.0401 15.2268L0.729246 6.73479C-0.518306 5.87427 -0.0942208 4.08253 1.46144 3.66119L14.5456 0.109989C14.8228 0.00997888 15.1198 -0.0224863 15.4121 0.0152902C15.7043 0.0530667 15.9833 0.159994 16.2259 0.327199C16.4685 0.494404 16.6678 0.717062 16.8071 0.976694C16.9464 1.23633 17.0218 1.52545 17.027 1.82005L16.2516 13.8626C16.1596 15.292 14.2876 16.0873 13.0401 15.2268Z" fill="#586E84"/>
<path d="M9.13547 17.323L1.88278 3.1395C1.71699 2.81502 1.64403 2.45106 1.67196 2.08775C1.69988 1.72445 1.8276 1.37591 2.04102 1.08058C2.25445 0.785248 2.54529 0.554595 2.88148 0.414057C3.21766 0.273518 3.58613 0.228557 3.94625 0.284134L17.3873 2.35858C17.6967 2.40634 17.9904 2.52688 18.2442 2.71027C18.498 2.89367 18.7046 3.13469 18.8472 3.41351C18.9896 3.69232 19.0639 4.00098 19.0639 4.3141C19.0638 4.62722 18.9894 4.93586 18.8469 5.21463L12.6551 17.3237C12.4888 17.6472 12.2366 17.9187 11.9261 18.1082C11.6155 18.2977 11.2588 18.3979 10.8951 18.3978C10.5313 18.3978 10.1746 18.2974 9.86417 18.1078C9.55372 17.9182 9.30161 17.6466 9.13547 17.323Z" fill="#586E84"/>
<path d="M13.5564 5.0173L10.9756 4.59937L7.80707 5.50208L9.0718 8.09816L12.0334 10.2425C12.0988 10.2893 12.1706 10.3251 12.2465 10.3487L13.3714 8.04048L13.5564 5.0173Z" fill="white"/>
<path d="M29.6462 11.132C29.6462 10.9568 29.6193 10.7996 29.5654 10.6604C29.516 10.5166 29.4216 10.3864 29.2824 10.2696C29.1432 10.1483 28.9478 10.0293 28.6962 9.9125C28.4447 9.79572 28.1191 9.67444 27.7193 9.54868C27.2746 9.40494 26.8524 9.24324 26.4527 9.06358C26.0574 8.88391 25.707 8.67505 25.4016 8.43699C25.1007 8.19444 24.8626 7.91371 24.6874 7.5948C24.5167 7.2759 24.4314 6.90533 24.4314 6.48312C24.4314 6.07438 24.5212 5.70381 24.7009 5.37143C24.8806 5.03456 25.1321 4.74709 25.4555 4.50903C25.7789 4.26648 26.1607 4.08008 26.6009 3.94982C27.0456 3.81956 27.5329 3.75443 28.0629 3.75443C28.7861 3.75443 29.4172 3.88469 29.9562 4.14521C30.4952 4.40572 30.9129 4.76281 31.2093 5.21647C31.5103 5.67013 31.6607 6.18891 31.6607 6.77283H29.653C29.653 6.48536 29.5923 6.23383 29.4711 6.01823C29.3543 5.79814 29.1746 5.62521 28.9321 5.49944C28.694 5.37368 28.3931 5.31079 28.0292 5.31079C27.6789 5.31079 27.3869 5.36469 27.1534 5.47249C26.9198 5.5758 26.7446 5.71729 26.6278 5.89695C26.511 6.07213 26.4527 6.26976 26.4527 6.48985C26.4527 6.65605 26.4931 6.80652 26.5739 6.94127C26.6593 7.07602 26.785 7.20178 26.9512 7.31857C27.1174 7.43535 27.3218 7.5454 27.5643 7.6487C27.8069 7.75201 28.0876 7.85307 28.4065 7.95189C28.941 8.11359 29.4104 8.2955 29.8147 8.49763C30.2234 8.69975 30.5648 8.92658 30.8388 9.17811C31.1128 9.42965 31.3194 9.71487 31.4586 10.0338C31.5979 10.3527 31.6675 10.7143 31.6675 11.1185C31.6675 11.5452 31.5844 11.927 31.4182 12.2639C31.252 12.6008 31.0117 12.886 30.6973 13.1195C30.3829 13.3531 30.0078 13.5305 29.5721 13.6518C29.1364 13.7731 28.6491 13.8337 28.1101 13.8337C27.625 13.8337 27.1466 13.7708 26.675 13.6451C26.2034 13.5148 25.7744 13.3194 25.3881 13.0589C25.0063 12.7984 24.7009 12.466 24.4718 12.0618C24.2428 11.6575 24.1282 11.1792 24.1282 10.6267H26.1562C26.1562 10.9321 26.2034 11.1904 26.2977 11.4015C26.392 11.6126 26.5245 11.7833 26.6952 11.9135C26.8704 12.0438 27.077 12.1381 27.3151 12.1965C27.5576 12.2549 27.8226 12.2841 28.1101 12.2841C28.4604 12.2841 28.7479 12.2347 28.9725 12.1359C29.2016 12.0371 29.37 11.9001 29.4778 11.7249C29.5901 11.5497 29.6462 11.3521 29.6462 11.132ZM34.861 7.9182V13.699H32.9139V6.409H34.7398L34.861 7.9182ZM34.5915 9.79796H34.0525C34.0525 9.29041 34.1132 8.82327 34.2345 8.39657C34.3602 7.96537 34.5421 7.59256 34.7802 7.27814C35.0227 6.95923 35.3214 6.71219 35.6763 6.53702C36.0311 6.36184 36.4421 6.27425 36.9092 6.27425C37.2326 6.27425 37.5291 6.32366 37.7986 6.42248C38.0681 6.5168 38.2994 6.66727 38.4926 6.87389C38.6902 7.07602 38.8429 7.34102 38.9507 7.66892C39.0585 7.99232 39.1124 8.38084 39.1124 8.8345V13.699H37.172V9.0501C37.172 8.71772 37.1271 8.46169 37.0373 8.28203C36.9474 8.10236 36.8194 7.97659 36.6532 7.90473C36.4915 7.83286 36.2961 7.79693 36.0671 7.79693C35.8155 7.79693 35.5954 7.84858 35.4068 7.95189C35.2226 8.0552 35.0699 8.19893 34.9486 8.38309C34.8274 8.56276 34.7375 8.77387 34.6791 9.01642C34.6207 9.25896 34.5915 9.51948 34.5915 9.79796ZM38.9305 9.57563L38.2365 9.66321C38.2365 9.1871 38.2949 8.74467 38.4117 8.33593C38.533 7.92719 38.7104 7.56785 38.944 7.25793C39.182 6.948 39.4762 6.7077 39.8266 6.53702C40.1769 6.36184 40.5812 6.27425 41.0393 6.27425C41.3897 6.27425 41.7086 6.32591 41.9961 6.42922C42.2835 6.52803 42.5283 6.68749 42.7304 6.90758C42.9371 7.12318 43.0943 7.40615 43.2021 7.7565C43.3144 8.10685 43.3705 8.53581 43.3705 9.04337V13.699H41.4234V9.04337C41.4234 8.70649 41.3785 8.45047 41.2886 8.27529C41.2033 8.09562 41.0775 7.9721 40.9113 7.90473C40.7496 7.83286 40.5565 7.79693 40.3319 7.79693C40.0983 7.79693 39.894 7.84409 39.7188 7.93842C39.5436 8.02825 39.3976 8.15402 39.2808 8.31572C39.1641 8.47742 39.0765 8.66607 39.0181 8.88167C38.9597 9.09277 38.9305 9.32409 38.9305 9.57563ZM48.8077 12.055V8.80755C48.8077 8.57399 48.7695 8.37411 48.6931 8.20792C48.6168 8.03723 48.4977 7.90473 48.336 7.8104C48.1788 7.71608 47.9745 7.66892 47.7229 7.66892C47.5073 7.66892 47.3209 7.7071 47.1637 7.78345C47.0065 7.85532 46.8852 7.96087 46.7999 8.10012C46.7145 8.23487 46.6719 8.39432 46.6719 8.57848H44.7315C44.7315 8.26855 44.8033 7.97435 44.9471 7.69587C45.0908 7.41738 45.2997 7.17259 45.5737 6.96148C45.8477 6.74588 46.1733 6.57744 46.5506 6.45617C46.9324 6.33489 47.3591 6.27425 47.8307 6.27425C48.3967 6.27425 48.8997 6.36858 49.3399 6.55723C49.7801 6.74588 50.126 7.02885 50.3775 7.40615C50.6335 7.78345 50.7615 8.25508 50.7615 8.82103V11.9405C50.7615 12.3402 50.7862 12.6681 50.8356 12.9242C50.8851 13.1757 50.9569 13.3958 51.0512 13.5844V13.699H49.0906C48.9963 13.5013 48.9244 13.2543 48.875 12.9579C48.8301 12.6569 48.8077 12.356 48.8077 12.055ZM49.0637 9.25896L49.0772 10.3572H47.9924C47.7364 10.3572 47.5141 10.3864 47.3254 10.4448C47.1368 10.5032 46.9818 10.5863 46.8605 10.6941C46.7393 10.7974 46.6494 10.9186 46.591 11.0579C46.5371 11.1971 46.5102 11.3498 46.5102 11.516C46.5102 11.6822 46.5484 11.8327 46.6247 11.9674C46.7011 12.0977 46.8111 12.201 46.9549 12.2774C47.0986 12.3492 47.267 12.3852 47.4602 12.3852C47.7521 12.3852 48.0059 12.3268 48.2215 12.21C48.4371 12.0932 48.6033 11.9495 48.7201 11.7788C48.8414 11.6081 48.9042 11.4464 48.9087 11.2937L49.4208 12.1157C49.3489 12.2998 49.2501 12.4907 49.1243 12.6884C49.0031 12.886 48.8481 13.0724 48.6594 13.2476C48.4708 13.4182 48.244 13.5597 47.979 13.672C47.7139 13.7798 47.3995 13.8337 47.0357 13.8337C46.5731 13.8337 46.1531 13.7416 45.7758 13.5575C45.403 13.3688 45.1065 13.1106 44.8864 12.7827C44.6708 12.4503 44.563 12.073 44.563 11.6508C44.563 11.269 44.6349 10.9299 44.7786 10.6334C44.9224 10.337 45.1335 10.0877 45.412 9.88555C45.6949 9.67894 46.0475 9.52397 46.4698 9.42066C46.892 9.31286 47.3816 9.25896 47.9385 9.25896H49.0637ZM54.1977 7.99905V13.699H52.2573V6.409H54.0831L54.1977 7.99905ZM56.3941 6.36184L56.3604 8.16075C56.2661 8.14728 56.1515 8.13605 56.0168 8.12707C55.8865 8.11359 55.7675 8.10685 55.6597 8.10685C55.3857 8.10685 55.1476 8.14279 54.9455 8.21465C54.7479 8.28203 54.5817 8.38309 54.4469 8.51784C54.3167 8.65259 54.2179 8.81654 54.1505 9.00968C54.0876 9.20282 54.0517 9.42291 54.0427 9.66995L53.6519 9.54868C53.6519 9.07705 53.6991 8.64361 53.7934 8.24834C53.8877 7.84858 54.0247 7.50048 54.2044 7.20403C54.3886 6.90758 54.6131 6.6785 54.8781 6.5168C55.1432 6.3551 55.4463 6.27425 55.7877 6.27425C55.8955 6.27425 56.0056 6.28324 56.1178 6.3012C56.2301 6.31468 56.3222 6.33489 56.3941 6.36184ZM61.2181 6.409V7.78345H56.9735V6.409H61.2181ZM58.0246 4.61009H59.965V11.5026C59.965 11.7137 59.9919 11.8754 60.0458 11.9877C60.1042 12.0999 60.1895 12.1785 60.3018 12.2235C60.4141 12.2639 60.5556 12.2841 60.7263 12.2841C60.8476 12.2841 60.9554 12.2796 61.0497 12.2706C61.1485 12.2572 61.2316 12.2437 61.299 12.2302L61.3057 13.6585C61.1395 13.7124 60.9599 13.7551 60.7667 13.7866C60.5736 13.818 60.3602 13.8337 60.1267 13.8337C59.6999 13.8337 59.3271 13.7641 59.0082 13.6249C58.6938 13.4811 58.4513 13.2521 58.2806 12.9376C58.1099 12.6232 58.0246 12.21 58.0246 11.6979V4.61009ZM64.4656 3.88918V13.699H62.4444V3.88918H64.4656ZM68.3734 8.0799V9.65648H63.9131V8.0799H68.3734ZM68.845 3.88918V5.47249H63.9131V3.88918H68.845ZM71.9442 6.409V13.699H69.9971V6.409H71.9442ZM69.8758 4.50903C69.8758 4.22606 69.9746 3.99249 70.1723 3.80833C70.3699 3.62417 70.6349 3.53209 70.9673 3.53209C71.2952 3.53209 71.5579 3.62417 71.7556 3.80833C71.9577 3.99249 72.0588 4.22606 72.0588 4.50903C72.0588 4.79201 71.9577 5.02557 71.7556 5.20973C71.5579 5.39389 71.2952 5.48597 70.9673 5.48597C70.6349 5.48597 70.3699 5.39389 70.1723 5.20973C69.9746 5.02557 69.8758 4.79201 69.8758 4.50903ZM75.4477 7.96537V13.699H73.5073V6.409H75.3264L75.4477 7.96537ZM75.1647 9.79796H74.6392C74.6392 9.25896 74.7088 8.77387 74.8481 8.34267C74.9873 7.90697 75.1827 7.53641 75.4342 7.23098C75.6858 6.92105 75.9845 6.68524 76.3303 6.52354C76.6807 6.35735 77.0715 6.27425 77.5027 6.27425C77.844 6.27425 78.1562 6.32366 78.4392 6.42248C78.7221 6.5213 78.9647 6.6785 79.1668 6.8941C79.3734 7.1097 79.5306 7.39492 79.6384 7.74977C79.7507 8.10461 79.8069 8.53805 79.8069 9.0501V13.699H77.853V9.04337C77.853 8.71997 77.8081 8.46843 77.7183 8.28877C77.6284 8.1091 77.4959 7.98333 77.3207 7.91147C77.1501 7.83511 76.939 7.79693 76.6874 7.79693C76.4269 7.79693 76.2001 7.84858 76.0069 7.95189C75.8183 8.0552 75.6611 8.19893 75.5353 8.38309C75.414 8.56276 75.322 8.77387 75.2591 9.01642C75.1962 9.25896 75.1647 9.51948 75.1647 9.79796ZM85.5877 12.1089V3.35018H87.5415V13.699H85.783L85.5877 12.1089ZM80.9792 10.1416V10.0001C80.9792 9.44312 81.0421 8.93781 81.1679 8.48415C81.2936 8.026 81.4778 7.63298 81.7203 7.30509C81.9629 6.9772 82.2616 6.72342 82.6164 6.54375C82.9713 6.36409 83.3755 6.27425 83.8292 6.27425C84.2559 6.27425 84.6287 6.36409 84.9476 6.54375C85.271 6.72342 85.545 6.97945 85.7696 7.31183C85.9986 7.63972 86.1828 8.02825 86.322 8.47742C86.4613 8.92209 86.5623 9.40944 86.6252 9.93945V10.2494C86.5623 10.7569 86.4613 11.2286 86.322 11.6643C86.1828 12.0999 85.9986 12.4817 85.7696 12.8096C85.545 13.133 85.271 13.3846 84.9476 13.5642C84.6242 13.7439 84.2469 13.8337 83.8157 13.8337C83.362 13.8337 82.9578 13.7416 82.6029 13.5575C82.2526 13.3733 81.9561 13.1151 81.7136 12.7827C81.4755 12.4503 81.2936 12.0595 81.1679 11.6104C81.0421 11.1612 80.9792 10.6716 80.9792 10.1416ZM82.9196 10.0001V10.1416C82.9196 10.4425 82.9421 10.7232 82.987 10.9838C83.0364 11.2443 83.115 11.4756 83.2228 11.6777C83.3351 11.8754 83.4788 12.0303 83.654 12.1426C83.8337 12.2504 84.0515 12.3043 84.3075 12.3043C84.6399 12.3043 84.9139 12.2302 85.1295 12.082C85.3451 11.9293 85.509 11.7204 85.6213 11.4554C85.7381 11.1904 85.8055 10.8849 85.8235 10.5391V9.65648C85.81 9.3735 85.7696 9.11972 85.7022 8.89514C85.6393 8.66607 85.545 8.47068 85.4192 8.30898C85.2979 8.14728 85.1452 8.02151 84.9611 7.93168C84.7814 7.84184 84.568 7.79693 84.321 7.79693C84.0695 7.79693 83.8539 7.85532 83.6742 7.9721C83.4945 8.08439 83.3486 8.23936 83.2363 8.43699C83.1285 8.63462 83.0476 8.86819 82.9937 9.13769C82.9443 9.4027 82.9196 9.69016 82.9196 10.0001ZM92.4127 13.8337C91.8468 13.8337 91.3392 13.7439 90.8901 13.5642C90.4409 13.3801 90.0591 13.1263 89.7447 12.8029C89.4348 12.4795 89.1967 12.1044 89.0305 11.6777C88.8643 11.2465 88.7812 10.7884 88.7812 10.3033V10.0338C88.7812 9.4813 88.8598 8.97599 89.017 8.51784C89.1742 8.05969 89.3988 7.66218 89.6908 7.3253C89.9872 6.98843 90.3466 6.73016 90.7688 6.55049C91.191 6.36633 91.6671 6.27425 92.1971 6.27425C92.7137 6.27425 93.1718 6.3596 93.5716 6.53028C93.9713 6.70096 94.306 6.94351 94.5755 7.25793C94.8495 7.57235 95.0561 7.94964 95.1953 8.38983C95.3346 8.82552 95.4042 9.31062 95.4042 9.84513V10.6536H89.6099V9.36003H93.4975V9.2118C93.4975 8.9423 93.4481 8.702 93.3492 8.49089C93.2549 8.27529 93.1112 8.10461 92.918 7.97884C92.7249 7.85307 92.4779 7.79019 92.1769 7.79019C91.9209 7.79019 91.7008 7.84634 91.5166 7.95863C91.3325 8.07092 91.182 8.22813 91.0652 8.43025C90.9529 8.63238 90.8676 8.87044 90.8092 9.14443C90.7553 9.41393 90.7284 9.71038 90.7284 10.0338V10.3033C90.7284 10.5952 90.7688 10.8647 90.8496 11.1118C90.935 11.3588 91.054 11.5722 91.2067 11.7518C91.3639 11.9315 91.5526 12.0707 91.7727 12.1696C91.9973 12.2684 92.251 12.3178 92.534 12.3178C92.8844 12.3178 93.21 12.2504 93.5109 12.1157C93.8164 11.9764 94.0791 11.7676 94.2992 11.4891L95.2425 12.5132C95.0898 12.7333 94.8809 12.9444 94.6159 13.1465C94.3554 13.3486 94.041 13.5148 93.6726 13.6451C93.3043 13.7708 92.8844 13.8337 92.4127 13.8337ZM98.4495 7.99905V13.699H96.5091V6.409H98.335L98.4495 7.99905ZM100.646 6.36184L100.612 8.16075C100.518 8.14728 100.403 8.13605 100.269 8.12707C100.138 8.11359 100.019 8.10685 99.9116 8.10685C99.6376 8.10685 99.3995 8.14279 99.1974 8.21465C98.9998 8.28203 98.8336 8.38309 98.6988 8.51784C98.5686 8.65259 98.4697 8.81654 98.4024 9.00968C98.3395 9.20282 98.3036 9.42291 98.2946 9.66995L97.9038 9.54868C97.9038 9.07705 97.951 8.64361 98.0453 8.24834C98.1396 7.84858 98.2766 7.50048 98.4563 7.20403C98.6404 6.90758 98.865 6.6785 99.13 6.5168C99.395 6.3551 99.6982 6.27425 100.04 6.27425C100.147 6.27425 100.257 6.28324 100.37 6.3012C100.482 6.31468 100.574 6.33489 100.646 6.36184Z" fill="#586E84"/>
</svg>
