<svg width="96" height="19" viewBox="0 0 96 19" fill="none" xmlns="http://www.w3.org/2000/svg">
<path d="M21.507 18.3979H28.9338L10.536 0H3.10913L21.507 18.3979Z" fill="#586E84"/>
<path d="M14.3516 9.41258e-07L32.0868 17.7352V0H27.2873V5.59933L21.6879 0L14.3516 9.41258e-07Z" fill="#586E84"/>
<path d="M0 0.615967V18.3978H4.79944V12.7985L10.3987 18.3978H17.7819L0 0.615967Z" fill="#586E84"/>
<path d="M41.5507 5.56682L38.8826 13.699H36.7334L40.3784 3.88918H41.7461L41.5507 5.56682ZM43.7673 13.699L41.0925 5.56682L40.8769 3.88918H42.2581L45.9233 13.699H43.7673ZM43.6461 10.0473V11.6306H38.4649V10.0473H43.6461ZM48.652 7.99905V13.699H46.7116V6.409H48.5375L48.652 7.99905ZM50.8484 6.36184L50.8147 8.16075C50.7204 8.14728 50.6059 8.13605 50.4711 8.12707C50.3409 8.11359 50.2218 8.10685 50.114 8.10685C49.8401 8.10685 49.602 8.14279 49.3999 8.21465C49.2022 8.28203 49.036 8.38309 48.9013 8.51784C48.771 8.65259 48.6722 8.81654 48.6048 9.00968C48.542 9.20282 48.506 9.42291 48.497 9.66995L48.1063 9.54868C48.1063 9.07705 48.1534 8.64361 48.2478 8.24834C48.3421 7.84858 48.4791 7.50048 48.6587 7.20403C48.8429 6.90758 49.0675 6.6785 49.3325 6.5168C49.5975 6.3551 49.9007 6.27425 50.2421 6.27425C50.3499 6.27425 50.4599 6.28324 50.5722 6.3012C50.6845 6.31468 50.7766 6.33489 50.8484 6.36184ZM55.6725 6.409V7.78345H51.4279V6.409H55.6725ZM52.4789 4.61009H54.4193V11.5026C54.4193 11.7137 54.4463 11.8754 54.5002 11.9877C54.5585 12.0999 54.6439 12.1785 54.7562 12.2235C54.8685 12.2639 55.01 12.2841 55.1806 12.2841C55.3019 12.2841 55.4097 12.2796 55.504 12.2706C55.6029 12.2572 55.686 12.2437 55.7533 12.2302L55.7601 13.6585C55.5939 13.7124 55.4142 13.7551 55.2211 13.7866C55.0279 13.818 54.8146 13.8337 54.581 13.8337C54.1543 13.8337 53.7815 13.7641 53.4626 13.6249C53.1482 13.4811 52.9056 13.2521 52.7349 12.9376C52.5642 12.6232 52.4789 12.21 52.4789 11.6979V4.61009ZM60.4359 11.6508L62.7469 3.88918H64.9972L61.5813 13.699H60.099L60.4359 11.6508ZM58.3068 3.88918L60.6111 11.6508L60.9614 13.699H59.4657L56.07 3.88918H58.3068ZM68.851 13.8337C68.2851 13.8337 67.7775 13.7439 67.3283 13.5642C66.8792 13.3801 66.4974 13.1263 66.183 12.8029C65.873 12.4795 65.635 12.1044 65.4688 11.6777C65.3026 11.2465 65.2195 10.7884 65.2195 10.3033V10.0338C65.2195 9.4813 65.2981 8.97599 65.4553 8.51784C65.6125 8.05969 65.8371 7.66218 66.1291 7.3253C66.4255 6.98843 66.7849 6.73016 67.2071 6.55049C67.6293 6.36633 68.1054 6.27425 68.6354 6.27425C69.152 6.27425 69.6101 6.3596 70.0099 6.53028C70.4096 6.70096 70.7443 6.94351 71.0138 7.25793C71.2877 7.57235 71.4944 7.94964 71.6336 8.38983C71.7728 8.82552 71.8425 9.31062 71.8425 9.84513V10.6536H66.0482V9.36003H69.9358V9.2118C69.9358 8.9423 69.8864 8.702 69.7875 8.49089C69.6932 8.27529 69.5495 8.10461 69.3563 7.97884C69.1632 7.85307 68.9162 7.79019 68.6152 7.79019C68.3592 7.79019 68.1391 7.84634 67.9549 7.95863C67.7708 8.07092 67.6203 8.22813 67.5035 8.43025C67.3912 8.63238 67.3059 8.87044 67.2475 9.14443C67.1936 9.41393 67.1666 9.71038 67.1666 10.0338V10.3033C67.1666 10.5952 67.2071 10.8647 67.2879 11.1118C67.3733 11.3588 67.4923 11.5722 67.645 11.7518C67.8022 11.9315 67.9909 12.0707 68.211 12.1696C68.4355 12.2684 68.6893 12.3178 68.9723 12.3178C69.3226 12.3178 69.6483 12.2504 69.9492 12.1157C70.2547 11.9764 70.5174 11.7676 70.7375 11.4891L71.6808 12.5132C71.5281 12.7333 71.3192 12.9444 71.0542 13.1465C70.7937 13.3486 70.4793 13.5148 70.1109 13.6451C69.7426 13.7708 69.3226 13.8337 68.851 13.8337ZM74.8474 7.96537V13.699H72.907V6.409H74.7261L74.8474 7.96537ZM74.5644 9.79796H74.0389C74.0389 9.25896 74.1085 8.77387 74.2478 8.34267C74.387 7.90697 74.5824 7.53641 74.8339 7.23098C75.0855 6.92105 75.3841 6.68524 75.73 6.52354C76.0804 6.35735 76.4711 6.27425 76.9023 6.27425C77.2437 6.27425 77.5559 6.32366 77.8388 6.42248C78.1218 6.5213 78.3644 6.6785 78.5665 6.8941C78.7731 7.1097 78.9303 7.39492 79.0381 7.74977C79.1504 8.10461 79.2066 8.53805 79.2066 9.0501V13.699H77.2527V9.04337C77.2527 8.71997 77.2078 8.46843 77.1179 8.28877C77.0281 8.1091 76.8956 7.98333 76.7204 7.91147C76.5497 7.83511 76.3386 7.79693 76.0871 7.79693C75.8266 7.79693 75.5997 7.84858 75.4066 7.95189C75.218 8.0552 75.0607 8.19893 74.935 8.38309C74.8137 8.56276 74.7216 8.77387 74.6587 9.01642C74.5959 9.25896 74.5644 9.51948 74.5644 9.79796ZM84.9941 11.954V6.409H86.9345V13.699H85.1086L84.9941 11.954ZM85.2097 10.4582L85.7824 10.4448C85.7824 10.9299 85.7262 11.3813 85.6139 11.799C85.5016 12.2122 85.3332 12.5716 85.1086 12.877C84.884 13.1779 84.601 13.4138 84.2597 13.5844C83.9183 13.7506 83.5163 13.8337 83.0537 13.8337C82.6988 13.8337 82.3709 13.7843 82.07 13.6855C81.7735 13.5822 81.5175 13.4227 81.3019 13.2071C81.0908 12.987 80.9246 12.7063 80.8033 12.365C80.6866 12.0191 80.6282 11.6036 80.6282 11.1185V6.409H82.5686V11.132C82.5686 11.3476 82.5933 11.5295 82.6427 11.6777C82.6966 11.826 82.7707 11.9472 82.865 12.0416C82.9593 12.1359 83.0694 12.2033 83.1952 12.2437C83.3254 12.2841 83.4691 12.3043 83.6264 12.3043C84.0261 12.3043 84.3405 12.2235 84.5696 12.0618C84.8032 11.9001 84.9671 11.68 85.0614 11.4015C85.1603 11.1185 85.2097 10.8041 85.2097 10.4582ZM91.772 13.8337C91.206 13.8337 90.6985 13.7439 90.2493 13.5642C89.8001 13.3801 89.4184 13.1263 89.1039 12.8029C88.794 12.4795 88.556 12.1044 88.3898 11.6777C88.2236 11.2465 88.1405 10.7884 88.1405 10.3033V10.0338C88.1405 9.4813 88.2191 8.97599 88.3763 8.51784C88.5335 8.05969 88.7581 7.66218 89.05 7.3253C89.3465 6.98843 89.7058 6.73016 90.128 6.55049C90.5503 6.36633 91.0264 6.27425 91.5564 6.27425C92.0729 6.27425 92.5311 6.3596 92.9308 6.53028C93.3306 6.70096 93.6652 6.94351 93.9347 7.25793C94.2087 7.57235 94.4153 7.94964 94.5546 8.38983C94.6938 8.82552 94.7634 9.31062 94.7634 9.84513V10.6536H88.9692V9.36003H92.8567V9.2118C92.8567 8.9423 92.8073 8.702 92.7085 8.49089C92.6142 8.27529 92.4704 8.10461 92.2773 7.97884C92.0842 7.85307 91.8371 7.79019 91.5362 7.79019C91.2801 7.79019 91.0601 7.84634 90.8759 7.95863C90.6917 8.07092 90.5413 8.22813 90.4245 8.43025C90.3122 8.63238 90.2269 8.87044 90.1685 9.14443C90.1146 9.41393 90.0876 9.71038 90.0876 10.0338V10.3033C90.0876 10.5952 90.128 10.8647 90.2089 11.1118C90.2942 11.3588 90.4133 11.5722 90.566 11.7518C90.7232 11.9315 90.9118 12.0707 91.1319 12.1696C91.3565 12.2684 91.6103 12.3178 91.8933 12.3178C92.2436 12.3178 92.5693 12.2504 92.8702 12.1157C93.1756 11.9764 93.4384 11.7676 93.6585 11.4891L94.6017 12.5132C94.449 12.7333 94.2402 12.9444 93.9751 13.1465C93.7146 13.3486 93.4002 13.5148 93.0319 13.6451C92.6636 13.7708 92.2436 13.8337 91.772 13.8337Z" fill="#586E84"/>
</svg>
