<svg width="77" height="19" viewBox="0 0 77 19" fill="none" xmlns="http://www.w3.org/2000/svg">
<path fill-rule="evenodd" clip-rule="evenodd" d="M9.19894 18.3979C14.2794 18.3979 18.3979 14.2794 18.3979 9.19892C18.3979 4.11851 14.2794 0 9.19894 0C4.11849 0 0 4.11851 0 9.19892C0 14.2794 4.11849 18.3979 9.19894 18.3979ZM12.0687 4.28525C12.2084 3.78906 11.7269 3.49565 11.2871 3.80896L5.14824 8.18225C4.67132 8.52202 4.74634 9.19892 5.26092 9.19892H6.87745V9.18641H10.028L7.4609 10.0922L6.3292 14.1126C6.18951 14.6088 6.67098 14.9022 7.11078 14.5889L13.2496 10.2156C13.7266 9.87587 13.6515 9.19892 13.137 9.19892H10.6855L12.0687 4.28525Z" fill="#586E84"/>
<path d="M30.9678 12.1224V13.699H24.0147V12.1224H30.9678ZM30.8667 5.01434L24.9108 13.699H23.4892V12.5401L29.4923 3.88918H30.8667V5.01434ZM30.1728 3.88918V5.47249H23.4959V3.88918H30.1728ZM31.6752 10.1281V9.98661C31.6752 9.45211 31.7516 8.96027 31.9043 8.5111C32.057 8.05744 32.2794 7.66442 32.5713 7.33204C32.8633 6.99966 33.2226 6.74139 33.6493 6.55723C34.076 6.36858 34.5656 6.27425 35.1181 6.27425C35.6706 6.27425 36.1624 6.36858 36.5936 6.55723C37.0248 6.74139 37.3864 6.99966 37.6783 7.33204C37.9748 7.66442 38.1994 8.05744 38.3521 8.5111C38.5048 8.96027 38.5812 9.45211 38.5812 9.98661V10.1281C38.5812 10.6581 38.5048 11.15 38.3521 11.6036C38.1994 12.0528 37.9748 12.4458 37.6783 12.7827C37.3864 13.1151 37.0271 13.3733 36.6003 13.5575C36.1736 13.7416 35.684 13.8337 35.1316 13.8337C34.5791 13.8337 34.0873 13.7416 33.6561 13.5575C33.2294 13.3733 32.8678 13.1151 32.5713 12.7827C32.2794 12.4458 32.057 12.0528 31.9043 11.6036C31.7516 11.15 31.6752 10.6581 31.6752 10.1281ZM33.6156 9.98661V10.1281C33.6156 10.4335 33.6426 10.7188 33.6965 10.9838C33.7504 11.2488 33.8357 11.4823 33.9525 11.6845C34.0738 11.8821 34.231 12.0371 34.4241 12.1494C34.6173 12.2616 34.8531 12.3178 35.1316 12.3178C35.4011 12.3178 35.6324 12.2616 35.8255 12.1494C36.0187 12.0371 36.1736 11.8821 36.2904 11.6845C36.4072 11.4823 36.4925 11.2488 36.5464 10.9838C36.6048 10.7188 36.634 10.4335 36.634 10.1281V9.98661C36.634 9.69016 36.6048 9.41168 36.5464 9.15116C36.4925 8.88616 36.405 8.65259 36.2837 8.45047C36.1669 8.24385 36.0119 8.08215 35.8188 7.96537C35.6257 7.84858 35.3921 7.79019 35.1181 7.79019C34.8441 7.79019 34.6105 7.84858 34.4174 7.96537C34.2288 8.08215 34.0738 8.24385 33.9525 8.45047C33.8357 8.65259 33.7504 8.88616 33.6965 9.15116C33.6426 9.41168 33.6156 9.69016 33.6156 9.98661ZM39.4638 10.1281V9.98661C39.4638 9.45211 39.5401 8.96027 39.6929 8.5111C39.8456 8.05744 40.0679 7.66442 40.3599 7.33204C40.6518 6.99966 41.0112 6.74139 41.4379 6.55723C41.8646 6.36858 42.3542 6.27425 42.9066 6.27425C43.4591 6.27425 43.951 6.36858 44.3822 6.55723C44.8134 6.74139 45.1749 6.99966 45.4669 7.33204C45.7633 7.66442 45.9879 8.05744 46.1406 8.5111C46.2934 8.96027 46.3697 9.45211 46.3697 9.98661V10.1281C46.3697 10.6581 46.2934 11.15 46.1406 11.6036C45.9879 12.0528 45.7633 12.4458 45.4669 12.7827C45.1749 13.1151 44.8156 13.3733 44.3889 13.5575C43.9622 13.7416 43.4726 13.8337 42.9201 13.8337C42.3676 13.8337 41.8758 13.7416 41.4446 13.5575C41.0179 13.3733 40.6563 13.1151 40.3599 12.7827C40.0679 12.4458 39.8456 12.0528 39.6929 11.6036C39.5401 11.15 39.4638 10.6581 39.4638 10.1281ZM41.4042 9.98661V10.1281C41.4042 10.4335 41.4311 10.7188 41.485 10.9838C41.5389 11.2488 41.6243 11.4823 41.7411 11.6845C41.8623 11.8821 42.0195 12.0371 42.2127 12.1494C42.4058 12.2616 42.6416 12.3178 42.9201 12.3178C43.1896 12.3178 43.4209 12.2616 43.6141 12.1494C43.8072 12.0371 43.9622 11.8821 44.079 11.6845C44.1958 11.4823 44.2811 11.2488 44.335 10.9838C44.3934 10.7188 44.4226 10.4335 44.4226 10.1281V9.98661C44.4226 9.69016 44.3934 9.41168 44.335 9.15116C44.2811 8.88616 44.1935 8.65259 44.0722 8.45047C43.9554 8.24385 43.8005 8.08215 43.6073 7.96537C43.4142 7.84858 43.1806 7.79019 42.9066 7.79019C42.6327 7.79019 42.3991 7.84858 42.2059 7.96537C42.0173 8.08215 41.8623 8.24385 41.7411 8.45047C41.6243 8.65259 41.5389 8.88616 41.485 9.15116C41.4311 9.41168 41.4042 9.69016 41.4042 9.98661ZM49.5027 7.9182V13.699H47.5555V6.409H49.3814L49.5027 7.9182ZM49.2332 9.79796H48.6942C48.6942 9.29041 48.7548 8.82327 48.8761 8.39657C49.0018 7.96537 49.1837 7.59256 49.4218 7.27814C49.6644 6.95923 49.963 6.71219 50.3179 6.53702C50.6727 6.36184 51.0837 6.27425 51.5509 6.27425C51.8743 6.27425 52.1707 6.32366 52.4402 6.42248C52.7097 6.5168 52.941 6.66727 53.1342 6.87389C53.3318 7.07602 53.4845 7.34102 53.5923 7.66892C53.7001 7.99232 53.754 8.38084 53.754 8.8345V13.699H51.8136V9.0501C51.8136 8.71772 51.7687 8.46169 51.6789 8.28203C51.589 8.10236 51.461 7.97659 51.2948 7.90473C51.1331 7.83286 50.9377 7.79693 50.7087 7.79693C50.4571 7.79693 50.237 7.84858 50.0484 7.95189C49.8642 8.0552 49.7115 8.19893 49.5902 8.38309C49.469 8.56276 49.3791 8.77387 49.3207 9.01642C49.2623 9.25896 49.2332 9.51948 49.2332 9.79796ZM53.5721 9.57563L52.8781 9.66321C52.8781 9.1871 52.9365 8.74467 53.0533 8.33593C53.1746 7.92719 53.352 7.56785 53.5856 7.25793C53.8236 6.948 54.1178 6.7077 54.4682 6.53702C54.8185 6.36184 55.2228 6.27425 55.6809 6.27425C56.0313 6.27425 56.3502 6.32591 56.6377 6.42922C56.9251 6.52803 57.1699 6.68749 57.372 6.90758C57.5787 7.12318 57.7359 7.40615 57.8437 7.7565C57.956 8.10685 58.0121 8.53581 58.0121 9.04337V13.699H56.065V9.04337C56.065 8.70649 56.0201 8.45047 55.9302 8.27529C55.8449 8.09562 55.7191 7.9721 55.5529 7.90473C55.3912 7.83286 55.1981 7.79693 54.9735 7.79693C54.7399 7.79693 54.5356 7.84409 54.3604 7.93842C54.1852 8.02825 54.0392 8.15402 53.9225 8.31572C53.8057 8.47742 53.7181 8.66607 53.6597 8.88167C53.6013 9.09277 53.5721 9.32409 53.5721 9.57563ZM62.8698 13.8337C62.3039 13.8337 61.7963 13.7439 61.3472 13.5642C60.898 13.3801 60.5162 13.1263 60.2018 12.8029C59.8919 12.4795 59.6538 12.1044 59.4876 11.6777C59.3214 11.2465 59.2383 10.7884 59.2383 10.3033V10.0338C59.2383 9.4813 59.3169 8.97599 59.4741 8.51784C59.6314 8.05969 59.8559 7.66218 60.1479 7.3253C60.4443 6.98843 60.8037 6.73016 61.2259 6.55049C61.6481 6.36633 62.1242 6.27425 62.6542 6.27425C63.1708 6.27425 63.6289 6.3596 64.0287 6.53028C64.4285 6.70096 64.7631 6.94351 65.0326 7.25793C65.3066 7.57235 65.5132 7.94964 65.6524 8.38983C65.7917 8.82552 65.8613 9.31062 65.8613 9.84513V10.6536H60.067V9.36003H63.9546V9.2118C63.9546 8.9423 63.9052 8.702 63.8064 8.49089C63.712 8.27529 63.5683 8.10461 63.3752 7.97884C63.182 7.85307 62.935 7.79019 62.634 7.79019C62.378 7.79019 62.1579 7.84634 61.9738 7.95863C61.7896 8.07092 61.6391 8.22813 61.5223 8.43025C61.4101 8.63238 61.3247 8.87044 61.2663 9.14443C61.2124 9.41393 61.1855 9.71038 61.1855 10.0338V10.3033C61.1855 10.5952 61.2259 10.8647 61.3067 11.1118C61.3921 11.3588 61.5111 11.5722 61.6638 11.7518C61.821 11.9315 62.0097 12.0707 62.2298 12.1696C62.4544 12.2684 62.7081 12.3178 62.9911 12.3178C63.3415 12.3178 63.6671 12.2504 63.9681 12.1157C64.2735 11.9764 64.5363 11.7676 64.7563 11.4891L65.6996 12.5132C65.5469 12.7333 65.338 12.9444 65.073 13.1465C64.8125 13.3486 64.4981 13.5148 64.1298 13.6451C63.7614 13.7708 63.3415 13.8337 62.8698 13.8337ZM68.9066 7.99905V13.699H66.9662V6.409H68.7921L68.9066 7.99905ZM71.1031 6.36184L71.0694 8.16075C70.9751 8.14728 70.8605 8.13605 70.7258 8.12707C70.5955 8.11359 70.4765 8.10685 70.3687 8.10685C70.0947 8.10685 69.8566 8.14279 69.6545 8.21465C69.4569 8.28203 69.2907 8.38309 69.1559 8.51784C69.0257 8.65259 68.9269 8.81654 68.8595 9.00968C68.7966 9.20282 68.7607 9.42291 68.7517 9.66995L68.3609 9.54868C68.3609 9.07705 68.4081 8.64361 68.5024 8.24834C68.5967 7.84858 68.7337 7.50048 68.9134 7.20403C69.0975 6.90758 69.3221 6.6785 69.5871 6.5168C69.8521 6.3551 70.1553 6.27425 70.4967 6.27425C70.6045 6.27425 70.7145 6.28324 70.8268 6.3012C70.9391 6.31468 71.0312 6.33489 71.1031 6.36184ZM73.9598 7.99905V13.699H72.0194V6.409H73.8452L73.9598 7.99905ZM76.1562 6.36184L76.1225 8.16075C76.0282 8.14728 75.9136 8.13605 75.7789 8.12707C75.6486 8.11359 75.5296 8.10685 75.4218 8.10685C75.1478 8.10685 74.9097 8.14279 74.7076 8.21465C74.51 8.28203 74.3438 8.38309 74.209 8.51784C74.0788 8.65259 73.98 8.81654 73.9126 9.00968C73.8497 9.20282 73.8138 9.42291 73.8048 9.66995L73.414 9.54868C73.414 9.07705 73.4612 8.64361 73.5555 8.24834C73.6498 7.84858 73.7868 7.50048 73.9665 7.20403C74.1507 6.90758 74.3752 6.6785 74.6402 6.5168C74.9053 6.3551 75.2084 6.27425 75.5498 6.27425C75.6576 6.27425 75.7677 6.28324 75.8799 6.3012C75.9922 6.31468 76.0843 6.33489 76.1562 6.36184Z" fill="#586E84"/>
</svg>
