<svg width="58" height="58" viewBox="0 0 58 58" fill="none" xmlns="http://www.w3.org/2000/svg">
<path opacity="0.3" d="M56.4857 27.4845H37.6496C35.8088 27.4845 34.8861 25.2584 36.1896 23.9572L49.508 10.6389C50.0997 10.0472 50.0997 9.08594 49.508 8.49654C48.9163 7.90486 47.9551 7.90486 47.3635 8.49654L34.0451 21.8149C32.7439 23.1161 30.5177 22.1957 30.5177 20.3527V1.51658C30.5177 0.677806 29.8399 0 29.0011 0C28.1624 0 27.4846 0.677806 27.4846 1.51658V20.3527C27.4846 22.1935 25.2584 23.1161 23.9572 21.8149L10.6388 8.49654C10.0471 7.90486 9.08597 7.90486 8.49429 8.49654C7.90262 9.08821 7.90262 10.0472 8.49429 10.6389L21.8126 23.9572C23.1139 25.2584 22.1935 27.4845 20.3527 27.4845H1.51661C0.6801 27.4845 0 28.1624 0 29.0012C0 29.8399 0.677833 30.5177 1.51661 30.5177H20.3527C22.1935 30.5177 23.1161 32.7439 21.8126 34.0451L8.49429 47.3635C7.90262 47.9552 7.90262 48.9141 8.49429 49.5058C9.08597 50.0974 10.0449 50.0974 10.6388 49.5058L23.9572 36.1874C25.2584 34.8862 27.4846 35.8065 27.4846 37.6473V56.4834C27.4846 57.3199 28.1624 58 29.0011 58C29.8399 58 30.5177 57.3199 30.5177 56.4834V37.6473C30.5177 35.8065 32.7439 34.8839 34.0451 36.1851L47.3635 49.5035C47.9551 50.0952 48.914 50.0952 49.508 49.5035C50.0997 48.9118 50.0997 47.9506 49.508 47.3612L36.1896 34.0429C34.8884 32.7416 35.8088 30.5155 37.6496 30.5155H56.4857C57.3222 30.5155 58.0023 29.8377 58.0023 28.9989C58.0023 28.1601 57.3245 27.4823 56.4857 27.4823V27.4845Z" fill="#000D12"/>
</svg>
