<svg width="39" height="39" viewBox="0 0 39 39" fill="none" xmlns="http://www.w3.org/2000/svg">
<path d="M32.9775 0.25C33.7919 0.250021 34.5501 0.359042 35.2393 0.59668C35.8408 0.804134 36.3895 1.1148 36.8555 1.52734L37.0508 1.71094C37.5573 2.21547 37.9277 2.83431 38.165 3.52246C38.3729 4.12546 38.4818 4.7814 38.5059 5.48145L38.5117 5.78418C38.5013 8.49054 37.3404 11.7923 35.2773 15.4033C34.5595 16.6539 33.7301 17.9372 32.8008 19.2354L32.6963 19.3809L32.8008 19.5264C33.7291 20.8211 34.5579 22.1048 35.2754 23.3545V23.3555C37.3388 26.967 38.5006 30.2713 38.5088 32.9756L38.5039 33.2783C38.4798 33.9783 38.371 34.6343 38.1631 35.2373H38.1621C37.9546 35.8442 37.6391 36.3964 37.2207 36.8652L36.752 36.3965L36.3984 36.75L36.8682 37.2197C36.3996 37.6375 35.8468 37.9506 35.2393 38.1602C34.5501 38.3978 33.7919 38.5058 32.9775 38.5059C30.44 38.4962 27.3788 37.4772 24.0303 35.6494L23.3574 35.2734C22.1068 34.5555 20.8222 33.726 19.5264 32.7969L19.3809 32.6924L19.2354 32.7969C17.9395 33.726 16.654 34.5555 15.4033 35.2734C11.7917 37.3368 8.48749 38.4978 5.7832 38.5059C4.96918 38.5058 4.2114 38.3977 3.52246 38.1602H3.52148C2.83432 37.9252 2.21583 37.5536 1.71094 37.0488L1.70996 37.0479C1.2037 36.5434 0.833918 35.9252 0.59668 35.2373C0.359147 34.5485 0.250118 33.7905 0.25 32.9766C0.259483 30.4409 1.27956 27.3773 3.10742 24.0283L3.4834 23.3555C4.2012 22.105 5.03076 20.8224 5.95996 19.5244L6.06445 19.3789L5.95996 19.2324C5.03093 17.9367 4.20125 16.652 3.4834 15.4014H3.48242C1.41946 11.7904 0.258386 8.4862 0.25 5.78223C0.25 4.96799 0.359115 4.20962 0.59668 3.52051C0.83393 2.83446 1.20553 2.21346 1.70996 1.71094L1.71094 1.70996C2.21545 1.20355 2.8344 0.833943 3.52246 0.59668C4.21137 0.35917 4.96922 0.250069 5.7832 0.25C8.48969 0.260159 11.792 1.42016 15.4033 3.4834C16.6539 4.20127 17.9372 5.03065 19.2354 5.95996L19.3809 6.06445L19.5264 5.95996C20.4981 5.26325 21.4636 4.62263 22.4131 4.04297L23.3574 3.4834C26.9689 1.42003 30.2733 0.258237 32.9775 0.25ZM6.71387 20.792C5.94831 21.8883 5.25859 22.971 4.6543 24.0254C2.66066 27.4867 1.5906 30.6826 1.59863 32.9746C1.59651 33.6683 1.69281 34.2806 1.87109 34.7979C2.04993 35.3187 2.31106 35.7455 2.66309 36.0977L2.66504 36.0986C3.01844 36.4475 3.44205 36.7086 3.96289 36.8896L3.96387 36.8906C4.48152 37.069 5.09374 37.1631 5.78613 37.1631C8.03963 37.1712 11.1694 36.1323 14.5693 34.1992L14.5732 34.2031L14.7373 34.1094C15.7917 33.5051 16.8743 32.8154 17.9707 32.0498L18.25 31.8555L17.9805 31.6475C16.0495 30.1554 14.1073 28.448 12.21 26.5527H12.2109C10.3137 24.6555 8.6083 22.7133 7.11621 20.7822L6.9082 20.5137L6.71387 20.792ZM31.6514 20.7783C30.1593 22.7093 28.4519 24.6515 26.5566 26.5488C24.6595 28.446 22.7171 30.1505 20.7861 31.6426L20.5176 31.8506L20.7959 32.0459C21.8923 32.8115 22.9737 33.501 24.0283 34.1055V34.1045C27.4899 36.0982 30.6856 37.1675 32.9775 37.1592C33.6693 37.1592 34.2821 37.0687 34.8008 36.8877C35.3204 36.7071 35.747 36.4482 36.0996 36.0957L36.1006 36.0947C36.4302 35.7629 36.6768 35.3689 36.8555 34.8926L36.8633 34.8896L36.8965 34.7939C37.0527 34.3408 37.1437 33.815 37.1641 33.2266L37.1689 32.9707C37.1765 30.824 36.2366 27.881 34.4766 24.668L34.1133 24.0215C33.509 22.9671 32.8193 21.8845 32.0537 20.7881L31.8594 20.5088L31.6514 20.7783ZM19.2314 7.84766C17.21 9.37832 15.1583 11.1601 13.1611 13.1572C11.164 15.1544 9.38224 17.2061 7.85156 19.2275L7.7373 19.3789L7.85156 19.5293C9.38229 21.5509 11.1639 23.6033 13.1611 25.6006C15.1582 27.5976 17.2078 29.3794 19.2314 30.9102L19.3828 31.0244L19.5332 30.9102C21.5547 29.3795 23.6073 27.5978 25.6045 25.6006C27.6017 23.6034 29.3832 21.5531 30.9141 19.5293L31.0283 19.3789L30.9141 19.2275C29.3834 17.2061 27.6017 15.1544 25.6045 13.1572C23.6072 11.16 21.5548 9.37838 19.5332 7.84766L19.3828 7.7334L19.2314 7.84766ZM5.7832 1.59473C5.09108 1.5948 4.4794 1.68886 3.96191 1.86719H3.96094C3.43994 2.04821 3.01583 2.30967 2.66211 2.66113L2.66113 2.66211C2.3554 2.96982 2.11644 3.33272 1.94043 3.76758L1.86914 3.95898C1.69075 4.47655 1.59674 5.08897 1.59668 5.78125C1.58837 8.03429 2.6252 11.1641 4.55762 14.5635L4.55469 14.5674L4.65039 14.7334C5.25466 15.7877 5.94346 16.8705 6.70898 17.9668L6.9043 18.2461L7.1123 17.9766C8.60427 16.0457 10.3109 14.1033 12.2061 12.2061C14.1032 10.3089 16.0456 8.60436 17.9766 7.1123L18.2461 6.9043L17.9668 6.70898C17.1446 6.13484 16.33 5.60378 15.5293 5.11914L14.7334 4.65039C11.2715 2.65642 8.07522 1.58625 5.7832 1.59473ZM32.9775 1.59473C30.7243 1.58656 27.594 2.62297 24.1943 4.55566L24.1914 4.55273L24.0264 4.64746C22.9719 5.25182 21.8885 5.94136 20.792 6.70703L20.5137 6.90234L20.7822 7.11035C22.7131 8.60232 24.6555 10.3089 26.5527 12.2041C28.45 14.1013 30.1554 16.0435 31.6475 17.9746L31.8555 18.2441L32.0498 17.9648C32.6238 17.1413 33.155 16.3275 33.6396 15.5273L34.1094 14.7314C35.9786 11.4861 37.0353 8.47401 37.1533 6.22168L37.165 5.78125C37.165 5.1756 37.0925 4.63148 36.9551 4.1582L36.8926 3.95898C36.7137 3.43808 36.4517 3.0113 36.0996 2.65918L36.0986 2.6582C35.7453 2.30936 35.3215 2.04818 34.8008 1.86719H34.7998C34.2821 1.68875 33.67 1.59475 32.9775 1.59473Z" stroke="url(#paint0_linear_24_4040)" stroke-width="0.5"/>
<defs>
<linearGradient id="paint0_linear_24_4040" x1="9.27419" y1="-40.8702" x2="52.076" y2="-28.1678" gradientUnits="userSpaceOnUse">
<stop stop-color="white"/>
<stop offset="1" stop-color="#8B8B8B"/>
</linearGradient>
</defs>
</svg>
