<svg width="42" height="43" viewBox="0 0 42 43" fill="none" xmlns="http://www.w3.org/2000/svg">
<path d="M27.5303 19.083C30.967 21.1855 33.1898 24.8754 33.334 28.999L33.3408 29.4434C33.4328 36.0144 27.7455 41.7243 21.0918 41.5635L21.085 41.5625C16.6567 41.5098 12.7881 39.1266 10.6816 35.4521C19.9757 36.7907 28.5976 28.3514 27.5303 19.083ZM6.39551 10.0469C4.97566 17.8965 10.5037 25.9559 18.3955 27.3232L18.4385 27.3311H18.4463C19.7495 27.5761 21.1514 27.6432 22.5039 27.5283C18.4878 33.4749 9.03227 34.4605 3.99805 29.1191L3.98633 29.1064L3.97363 29.0957L3.70703 28.8389C1.00296 26.1488 0.0587785 22.2186 0.685547 18.5156C1.27712 15.0207 3.25787 11.7909 6.39551 10.0469ZM27.2754 8.66504C31.1006 7.96996 35.2042 8.97584 37.9961 11.9443L38.0195 11.9678C40.8339 14.5907 41.8942 18.4974 41.3721 22.2129C40.894 25.6142 39.0967 28.7972 36.1816 30.6436C36.5292 26.3991 35.0015 22.1306 32.1416 19.1396C28.8369 15.5458 23.6374 13.8094 18.8174 14.6025C20.5331 11.3702 23.76 9.30392 27.2754 8.66504ZM9.08398 12.5723C9.05868 0.655643 24.6205 -3.86534 31.1387 5.58887C21.6239 4.32336 12.9943 13.2924 14.5449 22.7031C11.3005 20.5622 9.22842 16.9821 9.09082 12.9961L9.08398 12.5723Z" stroke="url(#paint0_linear_24_4034)"/>
<defs>
<linearGradient id="paint0_linear_24_4034" x1="10.0491" y1="-44.3599" x2="56.4399" y2="-30.6156" gradientUnits="userSpaceOnUse">
<stop stop-color="white"/>
<stop offset="1" stop-color="#8B8B8B"/>
</linearGradient>
</defs>
</svg>
